<svg width="27" height="34" viewBox="0 0 27 34" fill="none" xmlns="http://www.w3.org/2000/svg">
<path d="M4.26675 8.46856C3.38309 8.46856 2.66675 9.18491 2.66675 10.0686V31.4019C2.66675 32.2856 3.38309 33.0019 4.26675 33.0019H22.4001C23.2837 33.0019 24.0001 32.2856 24.0001 31.4019V13.8019C24.0001 13.7907 23.9942 13.7811 23.9937 13.7694C23.9905 13.7212 23.9808 13.6736 23.9649 13.628C23.9599 13.611 23.954 13.5943 23.9473 13.5779C23.9223 13.5226 23.8883 13.472 23.8465 13.428L23.8433 13.4243L19.0433 8.62429C18.9989 8.58134 18.9473 8.54666 18.8907 8.52189C18.876 8.51551 18.8608 8.50999 18.8454 8.50536C18.7977 8.48828 18.7478 8.47822 18.6971 8.47549C18.687 8.47549 18.6785 8.46963 18.6683 8.46963H17.0667V7.40189H18.1334C18.5739 7.40182 18.9691 7.13096 19.1281 6.72011C19.287 6.30927 19.177 5.84297 18.8513 5.54643L18.8465 5.54216L14.0507 1.27923C13.6466 0.908361 13.0264 0.906742 12.6203 1.27549L7.81662 5.54643C7.49099 5.84284 7.38097 6.30887 7.53965 6.71961C7.69833 7.13036 8.09309 7.40138 8.53341 7.40189H9.60008V8.46856H4.26675ZM19.2001 10.2894L22.1793 13.2686H19.7334C19.4389 13.2686 19.2001 13.0298 19.2001 12.7352V10.2894ZM18.1334 9.53523V12.7352C18.1334 13.6189 18.8498 14.3352 19.7334 14.3352H22.9334V31.4019C22.9334 31.6964 22.6946 31.9352 22.4001 31.9352H4.26675C3.9722 31.9352 3.73341 31.6964 3.73341 31.4019V10.0686C3.73341 9.77401 3.9722 9.53523 4.26675 9.53523H9.60008V11.1352C9.60008 11.7243 10.0776 12.2019 10.6667 12.2019H16.0001C16.5892 12.2019 17.0667 11.7243 17.0667 11.1352V9.53523H18.1334ZM8.53022 6.33896L13.3377 2.07229L18.1334 6.33523H17.0667C16.4776 6.33523 16.0001 6.81279 16.0001 7.40189V11.1352H10.6667V7.40189C10.6667 6.81279 10.1892 6.33523 9.60008 6.33523L8.53022 6.33896Z" fill="#1A73E8" stroke="#1A73E8" stroke-width="0.6"/>
<path d="M16.0001 17.5352H10.6668C10.0777 17.5352 9.6001 18.0128 9.6001 18.6019V19.6686C9.6001 20.2577 10.0777 20.7352 10.6668 20.7352H16.0001C16.5892 20.7352 17.0668 20.2577 17.0668 19.6686V18.6019C17.0668 18.0128 16.5892 17.5352 16.0001 17.5352ZM16.0001 19.6686H10.6668V18.6019H16.0001V19.6686Z" fill="#1A73E8"/>
<path d="M16.0001 13.2686H10.6668C10.0777 13.2686 9.6001 13.7461 9.6001 14.3352V15.4019C9.6001 15.991 10.0777 16.4686 10.6668 16.4686H16.0001C16.5892 16.4686 17.0668 15.991 17.0668 15.4019V14.3352C17.0668 13.7461 16.5892 13.2686 16.0001 13.2686ZM16.0001 15.4019H10.6668V14.3352H16.0001V15.4019Z" fill="#1A73E8"/>
<path d="M5.33338 11.1352C5.03883 11.1352 4.80005 11.374 4.80005 11.6686V12.7352C4.80005 13.0298 5.03883 13.2686 5.33338 13.2686C5.62793 13.2686 5.86671 13.0298 5.86671 12.7352V11.6686C5.86671 11.374 5.62793 11.1352 5.33338 11.1352Z" fill="#1A73E8"/>
<path d="M5.33338 14.3352C5.03883 14.3352 4.80005 14.574 4.80005 14.8685V23.9352C4.80005 24.2298 5.03883 24.4685 5.33338 24.4685C5.62793 24.4685 5.86671 24.2298 5.86671 23.9352V14.8685C5.86671 14.574 5.62793 14.3352 5.33338 14.3352Z" fill="#1A73E8"/>
<path d="M0 32.4686C0 32.7631 0.238781 33.0019 0.533333 33.0019C0.827885 33.0019 1.06667 32.7631 1.06667 32.4686V30.3352C1.06667 30.0407 0.827885 29.8019 0.533333 29.8019C0.238781 29.8019 0 30.0407 0 30.3352V32.4686Z" fill="#1A73E8"/>
<path d="M0.533333 28.2019C0.827885 28.2019 1.06667 27.9631 1.06667 27.6686V15.9352C1.06667 15.6407 0.827885 15.4019 0.533333 15.4019C0.238781 15.4019 0 15.6407 0 15.9352V27.6686C0 27.9631 0.238781 28.2019 0.533333 28.2019Z" fill="#1A73E8"/>
<path d="M25.6001 32.4686C25.6001 32.7631 25.8389 33.0019 26.1334 33.0019C26.428 33.0019 26.6668 32.7631 26.6668 32.4686V30.3352C26.6668 30.0407 26.428 29.8019 26.1334 29.8019C25.8389 29.8019 25.6001 30.0407 25.6001 30.3352V32.4686Z" fill="#1A73E8"/>
<path d="M26.1334 28.2019C26.428 28.2019 26.6668 27.9631 26.6668 27.6686V15.9352C26.6668 15.6407 26.428 15.4019 26.1334 15.4019C25.8389 15.4019 25.6001 15.6407 25.6001 15.9352V27.6686C25.6001 27.9631 25.8389 28.2019 26.1334 28.2019Z" fill="#1A73E8"/>
</svg>
