<svg width="20" height="20" viewBox="0 0 20 20" fill="none" xmlns="http://www.w3.org/2000/svg">
<path fill-rule="evenodd" clip-rule="evenodd" d="M11.875 18.125C11.875 17.78 12.155 17.5 12.5 17.5L15.625 17.5C16.6606 17.5 17.5 16.6606 17.5 15.625L17.5 4.375C17.5 3.33938 16.6606 2.5 15.625 2.5L12.5 2.5C12.155 2.5 11.875 2.22 11.875 1.875C11.875 1.53 12.155 1.25 12.5 1.25L15.625 1.25C17.3506 1.25 18.75 2.64938 18.75 4.375L18.75 15.625C18.75 17.3506 17.3506 18.75 15.625 18.75L12.5 18.75C12.155 18.75 11.875 18.47 11.875 18.125Z" fill="#1A73E8"/>
<path fill-rule="evenodd" clip-rule="evenodd" d="M14.8169 9.55816C15.0612 9.80191 15.0612 10.1981 14.8169 10.4419L11.0669 14.1919C10.8231 14.4362 10.4269 14.4362 10.1831 14.1919C9.93877 13.9481 9.93877 13.5519 10.1831 13.3082L12.8662 10.625L1.875 10.625C1.53 10.625 1.25 10.345 1.25 10C1.25 9.65501 1.53 9.37501 1.875 9.37501L12.8662 9.37501L10.1831 6.69187C9.93877 6.44812 9.93877 6.05191 10.1831 5.80816C10.4269 5.56378 10.8231 5.56378 11.0669 5.80816L14.8169 9.55816Z" fill="#1A73E8"/>
</svg>
