<svg width="32" height="33" viewBox="0 0 32 33" fill="none" xmlns="http://www.w3.org/2000/svg">
<path fill-rule="evenodd" clip-rule="evenodd" d="M21.3334 22.6686C21.3334 20.4594 19.5426 18.6686 17.3334 18.6686H14.6667C12.4576 18.6686 10.6667 20.4594 10.6667 22.6686V28.0019C9.19399 28.0019 8.00008 26.808 8.00008 25.3352H5.33341C3.86066 25.3352 2.66675 24.1413 2.66675 22.6686V20.0019C2.66675 17.4258 4.12786 15.191 6.26658 14.081C5.27374 13.0105 4.66675 11.5771 4.66675 10.0019C4.66675 6.68818 7.35304 4.00189 10.6667 4.00189C12.7097 4.00189 14.5677 5.03273 15.6628 6.67788C15.7744 6.67169 15.8869 6.66856 16.0001 6.66856C16.1133 6.66856 16.2257 6.67169 16.3374 6.67788C17.4327 5.03233 19.2908 4.00189 21.3334 4.00189C24.6471 4.00189 27.3334 6.68818 27.3334 10.0019C27.3334 11.5771 26.7264 13.0105 25.7336 14.081C27.8723 15.191 29.3334 17.4258 29.3334 20.0019V22.6686C29.3334 24.1413 28.1395 25.3352 26.6667 25.3352H24.0001C24.0001 26.808 22.8062 28.0019 21.3334 28.0019V22.6686ZM12.0001 25.9352C12.0001 25.6039 12.2687 25.3352 12.6001 25.3352H19.4001C19.7315 25.3352 20.0001 25.6039 20.0001 25.9352V27.4019C20.0001 27.7333 19.7315 28.0019 19.4001 28.0019H12.6001C12.2687 28.0019 12.0001 27.7333 12.0001 27.4019V25.9352ZM26.6667 22.6686H24.0001C24.0001 20.0925 22.539 17.8577 20.4003 16.7476C20.6157 16.5154 20.8129 16.266 20.9897 16.0019H22.6667C24.8759 16.0019 26.6667 17.7928 26.6667 20.0019V22.6686ZM24.6667 10.0019C24.6667 8.16094 23.1744 6.66856 21.3334 6.66856C20.4863 6.66856 19.6968 6.98708 19.0975 7.52885C20.8371 8.57943 22.0001 10.4882 22.0001 12.6686C22.0001 12.8731 21.9898 13.0753 21.9699 13.2745C23.5064 12.9775 24.6667 11.6252 24.6667 10.0019ZM19.3334 12.6686C19.3334 12.9114 19.3075 13.1481 19.2573 13.38C18.9314 14.8791 17.5969 16.0019 16.0001 16.0019C14.1591 16.0019 12.6667 14.5095 12.6667 12.6686C12.6667 10.8276 14.1591 9.33523 16.0001 9.33523C17.841 9.33523 19.3334 10.8276 19.3334 12.6686ZM8.00008 22.6686C8.00008 20.0925 9.4612 17.8577 11.5999 16.7476C11.3845 16.5154 11.1873 16.266 11.0104 16.0019H9.33341C7.12428 16.0019 5.33341 17.7928 5.33341 20.0019V22.6686H8.00008ZM7.33342 10.0019C7.33342 8.16094 8.8258 6.66856 10.6667 6.66856C11.5139 6.66856 12.3035 6.98718 12.9026 7.52885C11.1631 8.57943 10.0001 10.4882 10.0001 12.6686C10.0001 12.8731 10.0103 13.0753 10.0303 13.2745C8.49378 12.9775 7.33342 11.6252 7.33342 10.0019Z" fill="#1A73E8"/>
</svg>
