<svg width="19" height="36" viewBox="0 0 19 36" fill="none" xmlns="http://www.w3.org/2000/svg">
<path d="M9.50005 4.07477C9.10587 4.0759 8.72815 4.233 8.44942 4.51173C8.17068 4.79046 8.01359 5.16818 8.01245 5.56237V9.74688C8.01378 10.1409 8.17095 10.5185 8.44967 10.7971C8.72838 11.0756 9.10599 11.2326 9.50005 11.2338C9.89412 11.2326 10.2717 11.0756 10.5504 10.7971C10.8292 10.5185 10.9863 10.1409 10.9877 9.74688V5.56237C10.9865 5.16818 10.8294 4.79046 10.5507 4.51173C10.272 4.233 9.89424 4.0759 9.50005 4.07477Z" fill="white"/>
<path d="M11.4861 27.3062H7.51464C3.94985 27.3062 1.03418 24.3905 1.03418 20.8264V7.13602C1.03418 3.57195 3.95057 0.656281 7.51464 0.656281H11.4854C15.0502 0.656281 17.9659 3.57195 17.9659 7.13602V20.8264C17.9659 24.3905 15.0495 27.3062 11.4854 27.3062H11.4861Z" stroke="white" stroke-width="0.972222" stroke-miterlimit="10" stroke-linecap="round" stroke-linejoin="round"/>
<path d="M13.2799 31.2619L9.5387 35.0031M5.76733 31.2619L9.50857 35.0031M9.56022 11.2783H9.43972C9.05384 11.2773 8.68404 11.1236 8.41118 10.8507C8.13833 10.5779 7.98462 10.2081 7.98367 9.82221V5.48636C7.98367 4.6859 8.63925 4.03104 9.43972 4.03104H9.56022C10.3607 4.03104 11.0163 4.6859 11.0163 5.48708V9.82364C11.0163 10.6241 10.3607 11.2797 9.56022 11.2797V11.2783Z" stroke="white" stroke-width="0.972222" stroke-miterlimit="10" stroke-linecap="round" stroke-linejoin="round"/>
</svg>
