<svg width="28" height="29" viewBox="0 0 28 29" fill="none" xmlns="http://www.w3.org/2000/svg">
<path d="M13.8616 4.00847C12.5243 4.10353 11.4687 5.22654 11.4687 6.59791L11.4675 9.1541L11.4431 9.16002C6.01078 10.2938 2 15.143 2 20.8641C2 21.2798 2.0211 21.694 2.06284 22.1049C2.16235 23.0843 3.40005 23.4362 3.99325 22.6538L4.21715 22.3683C5.96626 20.2113 8.45653 18.7963 11.2117 18.4256L11.4675 18.3945L11.4687 21.4062C11.4687 21.9865 11.662 22.5503 12.0175 23.0073C12.8954 24.1357 14.5152 24.3335 15.6353 23.449L25.0126 16.0451C25.1759 15.9161 25.3232 15.7678 25.4511 15.6033C26.3291 14.4749 26.1328 12.8432 25.0126 11.9587L15.6353 4.55475C15.1817 4.19659 14.622 4.00195 14.0457 4.00195L13.8616 4.00847ZM14.0457 6.17531C14.1395 6.17531 14.2306 6.20699 14.3045 6.2653L23.6817 13.6693C23.8641 13.8133 23.896 14.0789 23.7531 14.2626C23.7323 14.2894 23.7083 14.3135 23.6817 14.3345L14.3045 21.7385C14.1221 21.8825 13.8584 21.8503 13.7155 21.6666C13.6576 21.5922 13.6262 21.5004 13.6262 21.4059L13.625 17.2435C13.6248 16.6365 13.131 16.1473 12.5285 16.1573L12.2491 16.1619L11.8389 16.1819C9.11324 16.3571 6.56909 17.3738 4.50538 19.0384L4.29647 19.2119L4.325 19.0485C5.09546 14.9246 8.44201 11.6767 12.6771 11.1565C13.2182 11.09 13.6251 10.6272 13.6252 10.0781L13.6262 6.59821C13.6262 6.36451 13.814 6.17531 14.0457 6.17531Z" fill="#1A73E8"/>
</svg>
