<svg width="60" height="60" viewBox="0 0 60 60" fill="none" xmlns="http://www.w3.org/2000/svg">
<g clip-path="url(#clip0_133_326)">
<path d="M25.1577 30.0047C25.1577 30.0047 22.1458 27.2016 19.1237 30.0047C16.1958 32.7038 13.2688 30.1922 13.0627 30.0047H13.0544C13.045 28.1194 13.3527 26.2172 14.0055 24.3797C14.3412 23.4225 14.7701 22.4766 15.2932 21.5672H15.3025C15.3025 21.5672 16.5427 25.5141 20.5523 24.6141C24.5712 23.7141 25.7834 27.6506 25.7834 27.6506L25.7927 27.6609C25.4011 28.3444 25.1773 29.1422 25.1773 29.985V30.0047H25.1577Z" fill="#1A73E8"/>
<path d="M27.4982 34.0744C27.4982 34.0744 23.5819 35.3016 24.477 39.3328C25.3256 43.1578 21.8289 44.4891 21.4745 44.6119C21.4643 44.6119 21.4549 44.6119 21.4466 44.6006C19.8614 43.6828 18.4813 42.5391 17.3344 41.235C16.5511 40.3725 15.8798 39.435 15.311 38.4422C15.5441 38.4881 19.3672 39.2091 20.5607 35.3841C21.7832 31.4475 25.7834 32.3569 25.7834 32.3569L25.8105 32.3372C26.2207 33.0516 26.8082 33.6412 27.5169 34.0434L27.4982 34.0744Z" fill="#1A73E8"/>
<path d="M27.4983 25.9266C27.4983 25.9266 28.4027 21.9047 24.4771 20.6766C20.5514 19.4391 21.4466 15.3891 21.4466 15.3891L21.4373 15.3788C23.8328 13.9828 26.5462 13.2131 29.3063 13.1297H29.8387C29.8387 13.1297 27.0507 16.1859 29.8387 19.2328C32.6175 22.2703 29.8387 25.2985 29.8387 25.2985C28.9809 25.2985 28.1883 25.5328 27.4983 25.9369V25.9266Z" fill="#1A73E8"/>
<path d="M46.6136 30.0047H46.6229C46.6229 31.8984 46.3059 33.7922 45.6531 35.6297C45.3175 36.5859 44.8885 37.514 44.3663 38.4225C44.2544 38.1131 42.9481 34.5225 39.0979 35.385C35.2096 36.2494 33.9321 32.5631 33.8575 32.3494C33.8575 32.3381 33.8575 32.3381 33.8575 32.3381C34.2678 31.664 34.4925 30.8672 34.5009 30.014C34.734 30.2287 37.634 32.6859 40.5339 30.0047C43.4712 27.3047 46.4084 29.8172 46.6136 30.0047Z" fill="#1A73E8"/>
<path d="M44.3757 21.5672C44.3757 21.5672 40.3382 20.6766 39.098 24.6234C37.9138 28.4109 34.1933 27.7359 33.8855 27.6703C33.4846 26.9578 32.8971 26.3578 32.1978 25.9453C32.5894 25.8047 36.0293 24.5016 35.191 20.6859C34.2958 16.6453 38.2308 15.39 38.2308 15.39V15.3797C39.8253 16.3078 41.2053 17.4516 42.3616 18.7641C43.1449 19.6266 43.8162 20.5734 44.3757 21.5672Z" fill="#1A73E8"/>
<path d="M32.1605 34.0537C32.1605 34.0537 31.2551 38.0766 35.1816 39.3141C38.9208 40.4953 38.3054 44.2266 38.2308 44.5912C35.6852 46.0725 32.7852 46.8506 29.848 46.86C30.0624 46.6256 32.5064 43.6828 29.8387 40.7569C27.0506 37.71 29.8387 34.6725 29.8387 34.6725C30.6872 34.6725 31.4798 34.4475 32.1605 34.0444V34.0537Z" fill="#1A73E8"/>
<path d="M55.942 60.0038H3.72429C2.182 60.0038 0.926907 58.7419 0.926907 57.1913V2.80878C0.926907 1.25815 2.182 -0.00372314 3.72429 -0.00372314H55.942C57.4843 -0.00372314 58.7394 1.25815 58.7394 2.80878V57.1913C58.7394 58.7419 57.4843 60.0038 55.942 60.0038ZM3.72429 1.87128C3.20957 1.87128 2.79183 2.29221 2.79183 2.80878V57.1913C2.79183 57.7088 3.20957 58.1288 3.72429 58.1288H55.942C56.4567 58.1288 56.8745 57.7088 56.8745 57.1913V2.80878C56.8745 2.29221 56.4567 1.87128 55.942 1.87128H3.72429Z" fill="black"/>
<path d="M29.8331 35.6137C26.7476 35.6137 24.2384 33.0909 24.2384 29.9887C24.2384 26.8865 26.7476 24.3627 29.8331 24.3627C32.9187 24.3627 35.4279 26.8865 35.4279 29.9887C35.4279 33.0909 32.9187 35.6137 29.8331 35.6137ZM29.8331 26.2387C27.7761 26.2387 26.1033 27.9215 26.1033 29.9896C26.1033 32.0577 27.7761 33.7396 29.8331 33.7396C31.8902 33.7396 33.563 32.0577 33.563 29.9896C33.563 27.9215 31.8902 26.2387 29.8331 26.2387Z" fill="black"/>
<path d="M29.8332 26.2388C29.6066 26.2388 29.38 26.1563 29.2001 25.9894C28.8234 25.6388 28.7982 25.0482 29.1451 24.6676C29.3679 24.4191 31.2627 22.1785 29.146 19.8629C26.4866 16.9557 27.9823 13.771 29.1441 12.4941C29.4919 12.1116 30.0831 12.0854 30.4617 12.4351C30.8412 12.7847 30.8682 13.3772 30.5204 13.7597C30.2994 14.0072 28.3982 16.2769 30.5186 18.5944C33.1798 21.5044 31.6814 24.6694 30.5167 25.9369C30.3339 26.1376 30.084 26.2388 29.8332 26.2388Z" fill="black"/>
<path d="M29.8321 47.8163C29.6074 47.8163 29.3827 47.7356 29.2037 47.5706C28.8232 47.2219 28.7952 46.6294 29.144 46.2469C29.364 45.9975 31.2681 43.7222 29.1459 41.3944C26.4865 38.4797 27.9849 35.31 29.1477 34.0406C29.4974 33.6609 30.0876 33.6366 30.4653 33.9863C30.8429 34.3359 30.8681 34.9275 30.5222 35.3081C30.2974 35.5594 28.4036 37.8047 30.5212 40.1269C33.1787 43.0397 31.6831 46.23 30.5212 47.5097C30.3366 47.7141 30.0858 47.8163 29.8321 47.8163Z" fill="black"/>
<path d="M27.4955 26.8687C27.4274 26.8687 27.3584 26.8612 27.2885 26.8462C26.7877 26.7318 26.4726 26.2331 26.5835 25.7287C26.6544 25.3987 27.1784 22.5084 24.1955 21.569C20.4461 20.3868 20.1579 16.8778 20.5291 15.1875C20.641 14.6822 21.1333 14.3615 21.6406 14.474C22.1431 14.5856 22.4611 15.0862 22.3502 15.5915C22.2821 15.9168 21.7636 18.8381 24.7522 19.7803C28.5035 20.9625 28.7804 24.4556 28.4027 26.1384C28.3058 26.5734 27.9216 26.8687 27.4955 26.8687Z" fill="black"/>
<path d="M38.2252 45.5568C38.159 45.5568 38.091 45.5493 38.0238 45.5353C37.5212 45.4247 37.2032 44.925 37.3133 44.4187C37.3804 44.0925 37.8979 41.1637 34.9019 40.2159C31.1507 39.0272 30.8709 35.5312 31.2467 33.8475C31.3595 33.3422 31.8547 33.0243 32.361 33.1387C32.8617 33.2522 33.1778 33.7509 33.0669 34.2553C32.996 34.589 32.4766 37.4803 35.4623 38.4262C39.2118 39.614 39.5036 43.1287 39.1344 44.8209C39.0393 45.2578 38.6532 45.5568 38.2252 45.5568Z" fill="black"/>
<path d="M25.7823 28.59C25.3851 28.59 25.0187 28.3341 24.8928 27.9338C24.7893 27.6094 23.7971 24.8522 20.7555 25.5319C16.923 26.3925 14.9267 23.4984 14.4073 21.8484C14.2516 21.3544 14.5238 20.8284 15.0143 20.6719C15.5085 20.5153 16.0298 20.7891 16.1845 21.2831C16.288 21.5991 17.2914 24.3909 20.3489 23.7028C24.1822 22.8422 26.1628 25.7269 26.6719 27.375C26.8248 27.8691 26.5498 28.395 26.0584 28.5488C25.9679 28.5759 25.8737 28.59 25.7823 28.59Z" fill="black"/>
<path d="M44.3683 39.3806C43.972 39.3806 43.6056 39.1265 43.4797 38.7271C43.3771 38.4093 42.3673 35.6053 39.3023 36.299C35.4708 37.1493 33.4809 34.2684 32.9699 32.6212C32.8161 32.1271 33.0902 31.6012 33.5816 31.4474C34.0684 31.2909 34.5934 31.5656 34.7481 32.0578C34.8498 32.3765 35.8382 35.1553 38.8976 34.4671C42.7356 33.6121 44.7357 36.5071 45.257 38.159C45.4127 38.6521 45.1413 39.1799 44.6509 39.3365C44.5567 39.3665 44.4616 39.3806 44.3683 39.3806Z" fill="black"/>
<path d="M16.1912 32.1863C14.5725 32.1872 13.1673 31.3828 12.4194 30.6947C12.0399 30.345 12.0129 29.7525 12.3607 29.37C12.7085 28.9866 13.2997 28.9613 13.6783 29.311C13.9254 29.5331 16.1828 31.4419 18.487 29.3128C21.3804 26.6372 24.5284 28.1428 25.789 29.3128C26.1667 29.6644 26.1909 30.2578 25.8413 30.6375C25.4916 31.0172 24.9041 31.0406 24.5274 30.6938C24.2803 30.4697 22.0499 28.5666 19.7495 30.6928C18.5597 31.7934 17.3232 32.1863 16.1912 32.1863Z" fill="black"/>
<path d="M37.6069 32.1872C35.9919 32.1872 34.5941 31.3828 33.851 30.6947C33.4724 30.3431 33.4481 29.7506 33.7969 29.37C34.1447 28.9893 34.7312 28.965 35.1117 29.3128C35.3606 29.5387 37.592 31.4447 39.9026 29.3128C42.8016 26.64 45.9729 28.1447 47.2457 29.3118C47.6262 29.6615 47.6542 30.254 47.3054 30.6365C46.9567 31.0181 46.3664 31.0443 45.9888 30.6965C45.7398 30.4734 43.4767 28.559 41.1624 30.6937C39.9707 31.7943 38.7361 32.1872 37.6069 32.1872Z" fill="black"/>
<path d="M16.277 39.4781C15.8331 39.4781 15.4303 39.4303 15.0965 39.3562C14.5939 39.2447 14.2759 38.744 14.3869 38.2387C14.4979 37.7334 14.9902 37.4165 15.4984 37.5253C15.8219 37.5947 18.7256 38.1159 19.6637 35.1093C20.8395 31.3387 24.3148 31.0622 25.9876 31.44C26.4893 31.5543 26.8045 32.0559 26.6916 32.5612C26.5779 33.0646 26.079 33.3778 25.5801 33.27C25.251 33.1978 22.3781 32.6737 21.4428 35.6709C20.5001 38.6925 18.0692 39.4781 16.277 39.4781Z" fill="black"/>
<path d="M34.8479 28.7081C34.4003 28.7081 33.9919 28.6585 33.6571 28.5825C33.1545 28.4691 32.8384 27.9675 32.9512 27.4622C33.0641 26.9588 33.5629 26.6391 34.0618 26.7525C34.3938 26.8238 37.2704 27.345 38.2094 24.345C39.3908 20.5744 42.8866 20.2819 44.5697 20.6531C45.0723 20.7638 45.3903 21.2644 45.2802 21.7697C45.1702 22.276 44.6685 22.5956 44.1697 22.4841C43.847 22.4185 40.9331 21.8944 39.9894 24.9075C39.0458 27.9225 36.6326 28.7081 34.8479 28.7081Z" fill="black"/>
<path d="M21.441 45.5549C21.0447 45.5549 20.6782 45.2999 20.5523 44.9006C20.3966 44.4065 20.6689 43.8796 21.1594 43.724C21.4736 43.6209 24.2486 42.6121 23.5661 39.5371C22.7082 35.6802 25.5792 33.6927 27.2176 33.1809C27.7118 33.0281 28.233 33.3046 28.385 33.7977C28.537 34.2909 28.2638 34.8159 27.7742 34.9706C27.4507 35.0756 24.7046 36.0637 25.3853 39.1293C26.2413 42.9852 23.3628 44.9906 21.7216 45.5118C21.6284 45.5409 21.5342 45.5549 21.441 45.5549Z" fill="black"/>
<path d="M32.1595 26.895C31.7623 26.895 31.394 26.6381 31.27 26.2369C31.1161 25.7437 31.3884 25.2197 31.8779 25.0641C32.1987 24.9591 34.9532 23.9653 34.2725 20.8922C33.4202 17.0334 36.3015 15.0216 37.9445 14.4966C38.4396 14.3409 38.9609 14.6137 39.1157 15.1059C39.2714 15.5991 39.0001 16.1269 38.5096 16.2834C38.1944 16.3875 35.4129 17.4019 36.0945 20.4844C36.9477 24.3441 34.0757 26.3372 32.4374 26.8519C32.3451 26.88 32.2518 26.895 32.1595 26.895Z" fill="black"/>
<path d="M29.819 47.8002C26.7279 47.8002 23.6704 46.9743 20.9784 45.4124C12.52 40.5037 9.61078 29.5884 14.4941 21.0815C17.6486 15.5877 23.5315 12.1752 29.8479 12.1752C32.94 12.1752 35.9994 13.0012 38.6923 14.5649C42.7905 16.9434 45.7212 20.7843 46.9455 25.3799C48.1698 29.9746 47.5423 34.7746 45.1767 38.893C42.0193 44.3877 36.1355 47.8002 29.819 47.8002ZM29.847 14.0512C24.1944 14.0512 18.9307 17.1046 16.1091 22.0199C11.7386 29.6315 14.3411 39.3965 21.9109 43.7887C24.3203 45.1865 27.0552 45.9252 29.819 45.9252C35.4725 45.9252 40.7372 42.8709 43.5598 37.9555C45.6765 34.2693 46.2387 29.9765 45.1431 25.8655C44.0474 21.7537 41.4254 18.3177 37.7589 16.1896C35.3485 14.7909 32.6127 14.0512 29.847 14.0512Z" fill="black"/>
<path d="M57.8069 14.0645H1.85937C1.34372 14.0645 0.926907 13.6445 0.926907 13.127C0.926907 12.6095 1.34372 12.1895 1.85937 12.1895H57.8069C58.3226 12.1895 58.7394 12.6095 58.7394 13.127C58.7394 13.6445 58.3226 14.0645 57.8069 14.0645Z" fill="black"/>
<path d="M17.3102 19.6895H1.85937C1.34372 19.6895 0.926907 19.2695 0.926907 18.752C0.926907 18.2345 1.34372 17.8145 1.85937 17.8145H17.3102C17.8259 17.8145 18.2427 18.2345 18.2427 18.752C18.2427 19.2695 17.8259 19.6895 17.3102 19.6895Z" fill="black"/>
<path d="M13.9963 25.3145H1.85937C1.34372 25.3145 0.926907 24.8945 0.926907 24.377C0.926907 23.8595 1.34372 23.4395 1.85937 23.4395H13.9963C14.5119 23.4395 14.9287 23.8595 14.9287 24.377C14.9287 24.8945 14.5119 25.3145 13.9963 25.3145Z" fill="black"/>
<path d="M13.0638 30.9412H1.85937C1.34372 30.9412 0.926907 30.5212 0.926907 30.0037C0.926907 29.4862 1.34372 29.0662 1.85937 29.0662H13.0638C13.5795 29.0662 13.9963 29.4862 13.9963 30.0037C13.9963 30.5212 13.5795 30.9412 13.0638 30.9412Z" fill="black"/>
<path d="M14.0177 36.5662H1.85937C1.34372 36.5662 0.926907 36.1472 0.926907 35.6287C0.926907 35.1103 1.34372 34.6912 1.85937 34.6912H14.0177C14.5334 34.6912 14.9502 35.1103 14.9502 35.6287C14.9502 36.1472 14.5334 36.5662 14.0177 36.5662Z" fill="black"/>
<path d="M17.3102 42.1912H1.85937C1.34372 42.1912 0.926907 41.7722 0.926907 41.2537C0.926907 40.7353 1.34372 40.3162 1.85937 40.3162H17.3102C17.8259 40.3162 18.2427 40.7353 18.2427 41.2537C18.2427 41.7722 17.8259 42.1912 17.3102 42.1912Z" fill="black"/>
<path d="M57.8181 19.6895H42.3672C41.8516 19.6895 41.4348 19.2695 41.4348 18.752C41.4348 18.2345 41.8516 17.8145 42.3672 17.8145H57.8181C58.3337 17.8145 58.7506 18.2345 58.7506 18.752C58.7506 19.2695 58.3337 19.6895 57.8181 19.6895Z" fill="black"/>
<path d="M57.818 25.3145H45.6812C45.1655 25.3145 44.7487 24.8945 44.7487 24.377C44.7487 23.8595 45.1655 23.4395 45.6812 23.4395H57.818C58.3337 23.4395 58.7505 23.8595 58.7505 24.377C58.7505 24.8945 58.3337 25.3145 57.818 25.3145Z" fill="black"/>
<path d="M57.818 30.9412H46.6136C46.098 30.9412 45.6812 30.5212 45.6812 30.0037C45.6812 29.4862 46.098 29.0662 46.6136 29.0662H57.818C58.3337 29.0662 58.7505 29.4862 58.7505 30.0037C58.7505 30.5212 58.3337 30.9412 57.818 30.9412Z" fill="black"/>
<path d="M57.8181 36.5662H45.6598C45.1441 36.5662 44.7273 36.1472 44.7273 35.6287C44.7273 35.1103 45.1441 34.6912 45.6598 34.6912H57.8181C58.3338 34.6912 58.7506 35.1103 58.7506 35.6287C58.7506 36.1472 58.3338 36.5662 57.8181 36.5662Z" fill="black"/>
<path d="M57.8181 42.1912H42.3672C41.8516 42.1912 41.4348 41.7722 41.4348 41.2537C41.4348 40.7353 41.8516 40.3162 42.3672 40.3162H57.8181C58.3337 40.3162 58.7506 40.7353 58.7506 41.2537C58.7506 41.7722 58.3337 42.1912 57.8181 42.1912Z" fill="black"/>
<path d="M57.8069 47.8162H1.85937C1.34372 47.8162 0.926907 47.3972 0.926907 46.8787C0.926907 46.3603 1.34372 45.9412 1.85937 45.9412H57.8069C58.3226 45.9412 58.7394 46.3603 58.7394 46.8787C58.7394 47.3972 58.3226 47.8162 57.8069 47.8162Z" fill="black"/>
<path d="M52.2289 56.2687C50.6866 56.2687 49.4315 55.0068 49.4315 53.4562C49.4315 51.9056 50.6866 50.6437 52.2289 50.6437C53.7712 50.6437 55.0263 51.9056 55.0263 53.4562C55.0263 55.0068 53.7712 56.2687 52.2289 56.2687ZM52.2289 52.5187C51.7142 52.5187 51.2965 52.9387 51.2965 53.4562C51.2965 53.9737 51.7142 54.3937 52.2289 54.3937C52.7436 54.3937 53.1614 53.9737 53.1614 53.4562C53.1614 52.9387 52.7427 52.5187 52.2289 52.5187Z" fill="black"/>
<path d="M44.7674 56.2687C43.2251 56.2687 41.9701 55.0068 41.9701 53.4562C41.9701 51.9056 43.2251 50.6437 44.7674 50.6437C46.3097 50.6437 47.5648 51.9056 47.5648 53.4562C47.5648 55.0068 46.3097 56.2687 44.7674 56.2687ZM44.7674 52.5187C44.2527 52.5187 43.835 52.9387 43.835 53.4562C43.835 53.9737 44.2527 54.3937 44.7674 54.3937C45.2822 54.3937 45.6999 53.9737 45.6999 53.4562C45.6999 52.9387 45.2822 52.5187 44.7674 52.5187Z" fill="black"/>
<path d="M14.9295 56.2687C14.4139 56.2687 13.9971 55.8496 13.9971 55.3312C13.9971 54.8127 14.4139 54.3937 14.9295 54.3937C15.4443 54.3937 15.862 53.9737 15.862 53.4562C15.862 52.9387 15.4443 52.5187 14.9295 52.5187C14.4139 52.5187 13.9971 52.0996 13.9971 51.5812C13.9971 51.0627 14.4139 50.6437 14.9295 50.6437C16.4718 50.6437 17.7269 51.9056 17.7269 53.4562C17.7269 55.0068 16.4718 56.2687 14.9295 56.2687Z" fill="black"/>
<path d="M7.46804 56.2687C5.92576 56.2687 4.67067 55.0068 4.67067 53.4562C4.67067 51.9056 5.92576 50.6437 7.46804 50.6437C7.98369 50.6437 8.4005 51.0627 8.4005 51.5812C8.4005 52.0996 7.98369 52.5187 7.46804 52.5187C6.95333 52.5187 6.53559 52.9387 6.53559 53.4562C6.53559 53.9737 6.95333 54.3937 7.46804 54.3937C7.98369 54.3937 8.4005 54.8127 8.4005 55.3312C8.4005 55.8496 7.98369 56.2687 7.46804 56.2687Z" fill="black"/>
<path d="M14.9296 52.5187H7.46805C6.95239 52.5187 6.53559 52.0996 6.53559 51.5812C6.53559 51.0627 6.95239 50.6437 7.46805 50.6437H14.9296C15.4452 50.6437 15.862 51.0627 15.862 51.5812C15.862 52.0996 15.4443 52.5187 14.9296 52.5187Z" fill="black"/>
<path d="M14.9296 56.2687H7.46805C6.95239 56.2687 6.53559 55.8496 6.53559 55.3312C6.53559 54.8127 6.95239 54.3937 7.46805 54.3937H14.9296C15.4452 54.3937 15.862 54.8127 15.862 55.3312C15.862 55.8496 15.4443 56.2687 14.9296 56.2687Z" fill="black"/>
<path d="M41.0227 6.57288H18.6436C18.128 6.57288 17.7112 6.15288 17.7112 5.63538C17.7112 5.11788 18.128 4.69788 18.6436 4.69788H41.0227C41.5383 4.69788 41.9551 5.11788 41.9551 5.63538C41.9551 6.15288 41.5383 6.57288 41.0227 6.57288Z" fill="black"/>
<path d="M35.4428 9.38538H24.2244C23.7087 9.38538 23.2919 8.96538 23.2919 8.44788C23.2919 7.93038 23.7087 7.51038 24.2244 7.51038H35.4428C35.9585 7.51038 36.3753 7.93038 36.3753 8.44788C36.3753 8.96538 35.9585 9.38538 35.4428 9.38538Z" fill="black"/>
</g>
<defs>
<clipPath id="clip0_133_326">
<rect width="59.6774" height="60" fill="white"/>
</clipPath>
</defs>
</svg>
