<svg width="60" height="60" viewBox="0 0 60 60" fill="none" xmlns="http://www.w3.org/2000/svg">
<g clip-path="url(#clip0_133_808)">
<path d="M49.6875 29.0625V59.0625H46.875H44.0625V29.0625V28.9219C43.9875 23.8031 39.8241 19.6875 34.6875 19.6875C33.1313 19.6875 31.875 18.4219 31.875 16.875C31.875 15.3188 33.1313 14.0625 34.6875 14.0625C42.9281 14.0625 49.6125 20.6906 49.6875 28.9219V29.0625Z" fill="#1A73E8"/>
<path d="M16.875 31.875V35.625C16.875 36.6563 16.0312 37.5 15 37.5C13.9594 37.5 13.125 36.6563 13.125 35.625V31.875V28.125V24.3563C13.125 23.3241 13.9594 22.4813 15 22.4813C16.0312 22.4813 16.875 23.3241 16.875 24.3563V28.125V31.875Z" fill="#1A73E8"/>
<path d="M34.6837 57.1875H19.6855C18.1349 57.1875 16.873 55.9256 16.873 54.375V52.4953C16.873 50.9447 18.1349 49.6828 19.6855 49.6828H34.6837C36.2343 49.6828 37.4962 50.9447 37.4962 52.4953V54.375C37.4962 55.9256 36.2343 57.1875 34.6837 57.1875ZM19.6855 51.5578C19.168 51.5578 18.748 51.9778 18.748 52.4953V54.375C18.748 54.8925 19.168 55.3125 19.6855 55.3125H34.6837C35.2012 55.3125 35.6212 54.8925 35.6212 54.375V52.4953C35.6212 51.9778 35.2012 51.5578 34.6837 51.5578H19.6855Z" fill="black"/>
<path d="M34.6837 10.3172H19.6855C18.1349 10.3172 16.873 9.05531 16.873 7.50469V5.625C16.873 4.07437 18.1349 2.8125 19.6855 2.8125H34.6837C36.2343 2.8125 37.4962 4.07437 37.4962 5.625V7.50469C37.4962 9.05531 36.2343 10.3172 34.6837 10.3172ZM19.6855 4.6875C19.168 4.6875 18.748 5.1075 18.748 5.625V7.50469C18.748 8.02219 19.168 8.44219 19.6855 8.44219H34.6837C35.2012 8.44219 35.6212 8.02219 35.6212 7.50469V5.625C35.6212 5.1075 35.2012 4.6875 34.6837 4.6875H19.6855Z" fill="black"/>
<path d="M34.6836 51.5577C34.1652 51.5577 33.7461 51.1387 33.7461 50.6202V19.6808C33.7461 19.1624 34.1652 18.7433 34.6836 18.7433C35.202 18.7433 35.6211 19.1624 35.6211 19.6808V50.6202C35.6211 51.1387 35.202 51.5577 34.6836 51.5577Z" fill="black"/>
<path d="M19.6855 51.5578C19.1671 51.5578 18.748 51.1388 18.748 50.6203V9.3797C18.748 8.86126 19.1671 8.4422 19.6855 8.4422C20.204 8.4422 20.623 8.86126 20.623 9.3797V50.6203C20.623 51.1388 20.204 51.5578 19.6855 51.5578Z" fill="black"/>
<path d="M34.6837 25.2938H19.6855C19.1671 25.2938 18.748 24.8747 18.748 24.3563C18.748 23.8378 19.1671 23.4188 19.6855 23.4188H34.6837C35.2021 23.4188 35.6212 23.8378 35.6212 24.3563C35.6212 24.8747 35.2021 25.2938 34.6837 25.2938Z" fill="black"/>
<path d="M34.6837 36.5438H19.6855C19.1671 36.5438 18.748 36.1247 18.748 35.6063C18.748 35.0878 19.1671 34.6688 19.6855 34.6688H34.6837C35.2021 34.6688 35.6212 35.0878 35.6212 35.6063C35.6212 36.1247 35.2021 36.5438 34.6837 36.5438Z" fill="black"/>
<path d="M16.873 25.2928C16.3546 25.2928 15.9355 24.8738 15.9355 24.3553C15.9355 23.8378 15.5155 23.4178 14.998 23.4178C14.4805 23.4178 14.0605 23.8378 14.0605 24.3553C14.0605 24.8738 13.6415 25.2928 13.123 25.2928C12.6046 25.2928 12.1855 24.8738 12.1855 24.3553C12.1855 22.8047 13.4474 21.5428 14.998 21.5428C16.5487 21.5428 17.8105 22.8047 17.8105 24.3553C17.8105 24.8728 17.3915 25.2928 16.873 25.2928Z" fill="black"/>
<path d="M14.998 38.4347C13.4474 38.4347 12.1855 37.1728 12.1855 35.6222C12.1855 35.1038 12.6046 34.6847 13.123 34.6847C13.6415 34.6847 14.0605 35.1038 14.0605 35.6222C14.0605 36.1397 14.4805 36.5597 14.998 36.5597C15.5155 36.5597 15.9355 36.1397 15.9355 35.6222C15.9355 35.1038 16.3546 34.6847 16.873 34.6847C17.3915 34.6847 17.8105 35.1038 17.8105 35.6222C17.8105 37.1728 16.5487 38.4347 14.998 38.4347Z" fill="black"/>
<path d="M16.873 36.5597C16.3546 36.5597 15.9355 36.1407 15.9355 35.6222V24.3553C15.9355 23.8369 16.3546 23.4178 16.873 23.4178C17.3915 23.4178 17.8105 23.8369 17.8105 24.3553V35.6232C17.8105 36.1407 17.3915 36.5597 16.873 36.5597Z" fill="black"/>
<path d="M13.123 36.5597C12.6046 36.5597 12.1855 36.1407 12.1855 35.6222V24.3553C12.1855 23.8369 12.6046 23.4178 13.123 23.4178C13.6415 23.4178 14.0605 23.8369 14.0605 24.3553V35.6232C14.0605 36.1407 13.6415 36.5597 13.123 36.5597Z" fill="black"/>
<path d="M19.6855 29.0588H16.873C16.3546 29.0588 15.9355 28.6397 15.9355 28.1213C15.9355 27.6028 16.3546 27.1838 16.873 27.1838H19.6855C20.204 27.1838 20.623 27.6028 20.623 28.1213C20.623 28.6397 20.204 29.0588 19.6855 29.0588Z" fill="black"/>
<path d="M13.123 29.0588H10.3105C9.79211 29.0588 9.37305 28.6397 9.37305 28.1213C9.37305 27.6028 9.79211 27.1838 10.3105 27.1838H13.123C13.6415 27.1838 14.0605 27.6028 14.0605 28.1213C14.0605 28.6397 13.6415 29.0588 13.123 29.0588Z" fill="black"/>
<path d="M19.6855 32.8097H16.873C16.3546 32.8097 15.9355 32.3906 15.9355 31.8722C15.9355 31.3538 16.3546 30.9347 16.873 30.9347H19.6855C20.204 30.9347 20.623 31.3538 20.623 31.8722C20.623 32.3906 20.204 32.8097 19.6855 32.8097Z" fill="black"/>
<path d="M13.123 32.8097H10.3105C9.79211 32.8097 9.37305 32.3906 9.37305 31.8722C9.37305 31.3538 9.79211 30.9347 10.3105 30.9347H13.123C13.6415 30.9347 14.0605 31.3538 14.0605 31.8722C14.0605 32.3906 13.6415 32.8097 13.123 32.8097Z" fill="black"/>
<path d="M10.3105 32.8097C9.79211 32.8097 9.37305 32.3907 9.37305 31.8722V28.1213C9.37305 27.6028 9.79211 27.1838 10.3105 27.1838C10.829 27.1838 11.248 27.6028 11.248 28.1213V31.8722C11.248 32.3907 10.829 32.8097 10.3105 32.8097Z" fill="black"/>
<path d="M34.6838 20.6185C32.6176 20.6185 30.9366 18.9375 30.9366 16.8713C30.9366 14.805 32.6176 13.1241 34.6838 13.1241C35.2023 13.1241 35.6213 13.5431 35.6213 14.0616C35.6213 14.58 35.2023 14.9991 34.6838 14.9991C33.6507 14.9991 32.8116 15.8391 32.8116 16.8713C32.8116 17.9035 33.6516 18.7435 34.6838 18.7435C35.2023 18.7435 35.6213 19.1625 35.6213 19.681C35.6213 20.1994 35.2023 20.6185 34.6838 20.6185Z" fill="black"/>
<path d="M49.6855 29.9972C49.167 29.9972 48.748 29.5781 48.748 29.0597C48.748 21.3047 42.4395 14.9953 34.6836 14.9953C34.1652 14.9953 33.7461 14.5762 33.7461 14.0578C33.7461 13.5394 34.1652 13.1203 34.6836 13.1203C43.4727 13.1203 50.623 20.2706 50.623 29.0597C50.623 29.5781 50.2039 29.9972 49.6855 29.9972Z" fill="black"/>
<path d="M46.873 29.9972C46.3545 29.9972 45.9355 29.5781 45.9355 29.0597C45.9355 22.8553 40.888 17.8078 34.6836 17.8078C34.1652 17.8078 33.7461 17.3887 33.7461 16.8703C33.7461 16.3519 34.1652 15.9328 34.6836 15.9328C41.922 15.9328 47.8105 21.8212 47.8105 29.0597C47.8105 29.5781 47.3914 29.9972 46.873 29.9972Z" fill="black"/>
<path d="M44.0605 29.9972C43.542 29.9972 43.123 29.5781 43.123 29.0597C43.123 24.4059 39.3373 20.6203 34.6836 20.6203C34.1652 20.6203 33.7461 20.2012 33.7461 19.6828C33.7461 19.1644 34.1652 18.7453 34.6836 18.7453C40.3705 18.7453 44.998 23.3728 44.998 29.0597C44.998 29.5781 44.5789 29.9972 44.0605 29.9972Z" fill="black"/>
<path d="M49.6893 59.9972C49.1709 59.9972 48.7518 59.5781 48.7518 59.0597V28.921C48.7518 28.4025 49.1709 27.9835 49.6893 27.9835C50.2078 27.9835 50.6268 28.4025 50.6268 28.921V59.0597C50.6268 59.5781 50.2078 59.9972 49.6893 59.9972Z" fill="black"/>
<path d="M44.0643 59.9972C43.5459 59.9972 43.1268 59.5781 43.1268 59.0597V28.921C43.1268 28.4025 43.5459 27.9835 44.0643 27.9835C44.5828 27.9835 45.0018 28.4025 45.0018 28.921V59.0597C45.0018 59.5781 44.5828 59.9972 44.0643 59.9972Z" fill="black"/>
<path d="M46.874 60.0028C46.3556 60.0028 45.9365 59.5838 45.9365 59.0653V48.7472C45.9365 48.2288 46.3556 47.8097 46.874 47.8097C47.3925 47.8097 47.8115 48.2288 47.8115 48.7472V59.0653C47.8115 59.5838 47.3925 60.0028 46.874 60.0028Z" fill="black"/>
<path d="M46.874 44.0597C46.3556 44.0597 45.9365 43.6406 45.9365 43.1222V34.6847C45.9365 34.1663 46.3556 33.7472 46.874 33.7472C47.3925 33.7472 47.8115 34.1663 47.8115 34.6847V43.1222C47.8115 43.6406 47.3925 44.0597 46.874 44.0597Z" fill="black"/>
<path d="M19.6855 4.6875C19.1671 4.6875 18.748 4.26844 18.748 3.75V0.934692C18.748 0.416255 19.1671 -0.00280762 19.6855 -0.00280762C20.204 -0.00280762 20.623 0.416255 20.623 0.934692V3.75C20.623 4.26844 20.204 4.6875 19.6855 4.6875Z" fill="black"/>
<path d="M34.6893 4.6875C34.1709 4.6875 33.7518 4.26844 33.7518 3.75V0.934692C33.7518 0.416255 34.1709 -0.00280762 34.6893 -0.00280762C35.2078 -0.00280762 35.6268 0.416255 35.6268 0.934692V3.75C35.6268 4.26844 35.2078 4.6875 34.6893 4.6875Z" fill="black"/>
<path d="M19.6855 59.9972C19.1671 59.9972 18.748 59.5781 18.748 59.0597V56.25C18.748 55.7316 19.1671 55.3125 19.6855 55.3125C20.204 55.3125 20.623 55.7316 20.623 56.25V59.0597C20.623 59.5781 20.204 59.9972 19.6855 59.9972Z" fill="black"/>
<path d="M34.6893 59.9972C34.1709 59.9972 33.7518 59.5781 33.7518 59.0597V56.25C33.7518 55.7316 34.1709 55.3125 34.6893 55.3125C35.2078 55.3125 35.6268 55.7316 35.6268 56.25V59.0597C35.6268 59.5781 35.2078 59.9972 34.6893 59.9972Z" fill="black"/>
<path d="M34.6836 14.9991C34.1652 14.9991 33.7461 14.58 33.7461 14.0616V9.3797C33.7461 8.86126 34.1652 8.4422 34.6836 8.4422C35.202 8.4422 35.6211 8.86126 35.6211 9.3797V14.0616C35.6211 14.58 35.202 14.9991 34.6836 14.9991Z" fill="black"/>
</g>
<defs>
<clipPath id="clip0_133_808">
<rect width="60" height="60" fill="white"/>
</clipPath>
</defs>
</svg>
