<svg width="60" height="60" viewBox="0 0 60 60" fill="none" xmlns="http://www.w3.org/2000/svg">
<g clip-path="url(#clip0_133_396)">
<path d="M59.2683 6.58539H0.731707C0.327744 6.58539 0 6.91313 0 7.3171V12.7496C0 12.8301 0.0133384 12.9097 0.0390624 12.9859C1.02087 15.8623 3.45751 18.0002 6.43674 18.5995C6.58441 19.7394 7.1532 20.7832 8.03163 21.5254V31.4334C8.03163 43.5471 17.8868 53.4018 30 53.4018C42.1132 53.4018 51.9684 43.5471 51.9684 31.4334V21.5254C52.8468 20.7832 53.4156 19.7394 53.5633 18.599C56.5425 17.9997 58.9791 15.8623 59.9609 12.9859C59.9867 12.9097 60 12.8301 60 12.7496V7.3171C60 6.91313 59.6723 6.58539 59.2683 6.58539ZM50.505 31.4334C50.505 42.7401 41.3067 51.9384 30 51.9384C18.6933 51.9384 9.49505 42.7401 9.49505 31.4334V22.3614C9.97999 22.53 10.4902 22.6163 11.0037 22.6163H48.9963C49.5098 22.6163 50.02 22.53 50.505 22.3614V31.4334ZM48.9963 21.1528H11.0037C9.5584 21.1514 8.30031 20.1653 7.95303 18.7629C8.00877 18.7638 8.06402 18.7662 8.11976 18.7662H51.8802C51.936 18.7662 51.9912 18.7638 52.047 18.7629C51.6997 20.1653 50.4416 21.1509 48.9963 21.1528ZM58.5366 12.6248C57.5262 15.4316 54.8638 17.3028 51.8802 17.3028H8.11976C5.13624 17.3028 2.4738 15.4316 1.46341 12.6248V8.0488H58.5366V12.6248Z" fill="black"/>
<path d="M58.5366 12.6248C57.5262 15.4316 54.8638 17.3028 51.8802 17.3028H8.11976C5.13624 17.3028 2.4738 15.4316 1.46341 12.6248V8.0488H58.5366V12.6248Z" fill="#1A73E8"/>
<path d="M59.2683 6.58539H0.731707C0.327744 6.58539 0 6.91313 0 7.3171V12.7496C0 12.8301 0.0133384 12.9097 0.0390624 12.9859C1.02087 15.8623 3.45751 18.0002 6.43674 18.5995C6.58441 19.7394 7.1532 20.7832 8.03163 21.5254V31.4334C8.03163 43.5471 17.8868 53.4018 30 53.4018C42.1132 53.4018 51.9684 43.5471 51.9684 31.4334V21.5254C52.8468 20.7832 53.4156 19.7394 53.5633 18.599C56.5425 17.9997 58.9791 15.8623 59.9609 12.9859C59.9867 12.9097 60 12.8301 60 12.7496V7.3171C60 6.91313 59.6723 6.58539 59.2683 6.58539V6.58539ZM50.505 31.4334C50.505 42.7401 41.3067 51.9384 30 51.9384C18.6933 51.9384 9.49505 42.7401 9.49505 31.4334V22.3614C9.97999 22.53 10.4902 22.6163 11.0037 22.6163H48.9963C49.5098 22.6163 50.02 22.53 50.505 22.3614V31.4334ZM48.9963 21.1528H11.0037C9.5584 21.1514 8.30031 20.1653 7.95303 18.7629C8.00877 18.7638 8.06402 18.7662 8.11976 18.7662H51.8802C51.936 18.7662 51.9912 18.7638 52.047 18.7629C51.6997 20.1653 50.4416 21.1509 48.9963 21.1528ZM58.5366 12.6248C57.5262 15.4316 54.8638 17.3028 51.8802 17.3028H8.11976C5.13624 17.3028 2.4738 15.4316 1.46341 12.6248V8.0488H58.5366V12.6248Z" fill="black" stroke="black" stroke-width="0.6"/>
<path d="M43.2041 24.1549C42.7996 24.1549 42.4724 24.4827 42.4724 24.8866C42.4724 25.2911 42.7996 25.6183 43.2041 25.6183H48.5252C48.9296 25.6183 49.2569 25.2911 49.2569 24.8866C49.2569 24.4827 48.9296 24.1549 48.5252 24.1549H43.2041Z" fill="black"/>
<path d="M48.5252 26.816H43.2041C42.7996 26.816 42.4724 27.1437 42.4724 27.5477C42.4724 27.9516 42.7996 28.2794 43.2041 28.2794H48.5252C48.9296 28.2794 49.2569 27.9516 49.2569 27.5477C49.2569 27.1437 48.9296 26.816 48.5252 26.816Z" fill="black"/>
<path d="M48.5252 29.4765H43.2041C42.7996 29.4765 42.4724 29.8042 42.4724 30.2082C42.4724 30.6126 42.7996 30.9399 43.2041 30.9399H48.5252C48.9296 30.9399 49.2569 30.6126 49.2569 30.2082C49.2569 29.8042 48.9296 29.4765 48.5252 29.4765Z" fill="black"/>
<path d="M16.7959 24.1549H11.4748C11.0704 24.1549 10.7431 24.4827 10.7431 24.8866C10.7431 25.2911 11.0704 25.6183 11.4748 25.6183H16.7959C17.2004 25.6183 17.5276 25.2911 17.5276 24.8866C17.5276 24.4827 17.2004 24.1549 16.7959 24.1549Z" fill="black"/>
<path d="M16.7959 26.816H11.4748C11.0704 26.816 10.7431 27.1437 10.7431 27.5477C10.7431 27.9516 11.0704 28.2794 11.4748 28.2794H16.7959C17.2004 28.2794 17.5276 27.9516 17.5276 27.5477C17.5276 27.1437 17.2004 26.816 16.7959 26.816Z" fill="black"/>
<path d="M16.7959 29.4765H11.4748C11.0704 29.4765 10.7431 29.8042 10.7431 30.2082C10.7431 30.6126 11.0704 30.9399 11.4748 30.9399H16.7959C17.2004 30.9399 17.5276 30.6126 17.5276 30.2082C17.5276 29.8042 17.2004 29.4765 16.7959 29.4765Z" fill="black"/>
<path d="M14.2402 11.8765C14.6442 11.8765 14.9719 11.5487 14.9719 11.1448V10.1887C14.9719 9.78471 14.6442 9.45697 14.2402 9.45697C13.8362 9.45697 13.5085 9.78471 13.5085 10.1887V11.1452C13.509 11.5492 13.8362 11.8765 14.2402 11.8765Z" fill="black"/>
<path d="M5.23436 11.8765C5.6388 11.8765 5.96607 11.5487 5.96607 11.1448V10.1887C5.96607 9.78471 5.6388 9.45697 5.23436 9.45697C4.8304 9.45697 4.50266 9.78471 4.50266 10.1887V11.1452C4.50313 11.5492 4.8304 11.8765 5.23436 11.8765Z" fill="black"/>
<path d="M9.73751 11.8765C10.1415 11.8765 10.4692 11.5487 10.4692 11.1448V10.1887C10.4692 9.78471 10.1415 9.45697 9.73751 9.45697C9.33307 9.45697 9.0058 9.78471 9.0058 10.1887V11.1452C9.0058 11.5492 9.33354 11.8765 9.73751 11.8765Z" fill="black"/>
<path d="M18.7428 11.8765C19.1468 11.8765 19.4746 11.5487 19.4746 11.1448V10.1887C19.4746 9.78471 19.1468 9.45697 18.7428 9.45697C18.3389 9.45697 18.0111 9.78471 18.0111 10.1887V11.1452C18.0116 11.5492 18.3389 11.8765 18.7428 11.8765Z" fill="black"/>
<path d="M23.2455 11.8765C23.65 11.8765 23.9772 11.5487 23.9772 11.1448V10.1887C23.9772 9.78471 23.65 9.45697 23.2455 9.45697C22.8416 9.45697 22.5138 9.78471 22.5138 10.1887V11.1452C22.5143 11.5492 22.842 11.8765 23.2455 11.8765Z" fill="black"/>
<path d="M27.7487 11.8765C28.1526 11.8765 28.4804 11.5487 28.4804 11.1448V10.1887C28.4804 9.78471 28.1526 9.45697 27.7487 9.45697C27.3442 9.45697 27.017 9.78471 27.017 10.1887V11.1452C27.017 11.5492 27.3447 11.8765 27.7487 11.8765Z" fill="black"/>
<path d="M32.2513 11.8765C32.6558 11.8765 32.983 11.5487 32.983 11.1448V10.1887C32.983 9.78471 32.6558 9.45697 32.2513 9.45697C31.8474 9.45697 31.5196 9.78471 31.5196 10.1887V11.1452C31.5201 11.5492 31.8474 11.8765 32.2513 11.8765Z" fill="black"/>
<path d="M36.7545 11.8765C37.1584 11.8765 37.4862 11.5487 37.4862 11.1448V10.1887C37.4862 9.78471 37.1584 9.45697 36.7545 9.45697C36.35 9.45697 36.0228 9.78471 36.0228 10.1887V11.1452C36.0228 11.5492 36.3505 11.8765 36.7545 11.8765Z" fill="black"/>
<path d="M41.2572 11.8765C41.6611 11.8765 41.9889 11.5487 41.9889 11.1448V10.1887C41.9889 9.78471 41.6611 9.45697 41.2572 9.45697C40.8532 9.45697 40.5255 9.78471 40.5255 10.1887V11.1452C40.5255 11.5492 40.8532 11.8765 41.2572 11.8765Z" fill="black"/>
<path d="M45.7598 11.8765C46.1638 11.8765 46.4915 11.5487 46.4915 11.1448V10.1887C46.4915 9.78471 46.1638 9.45697 45.7598 9.45697C45.3559 9.45697 45.0281 9.78471 45.0281 10.1887V11.1452C45.0281 11.5492 45.3559 11.8765 45.7598 11.8765Z" fill="black"/>
<path d="M50.2625 11.8765C50.6669 11.8765 50.9942 11.5487 50.9942 11.1448V10.1887C50.9942 9.78471 50.6669 9.45697 50.2625 9.45697C49.8585 9.45697 49.5308 9.78471 49.5308 10.1887V11.1452C49.5312 11.5492 49.859 11.8765 50.2625 11.8765Z" fill="black"/>
<path d="M54.7656 11.8765C55.1696 11.8765 55.4973 11.5487 55.4973 11.1448V10.1887C55.4973 9.78471 55.1696 9.45697 54.7656 9.45697C54.3612 9.45697 54.0339 9.78471 54.0339 10.1887V11.1452C54.0339 11.5492 54.3616 11.8765 54.7656 11.8765Z" fill="black"/>
<path d="M30 49.1111C35.1186 49.1111 39.2683 44.9614 39.2683 39.8428C39.2683 34.7242 35.1186 30.5745 30 30.5745C24.8814 30.5745 20.7317 34.7242 20.7317 39.8428C20.7374 44.9591 24.8838 49.1054 30 49.1111ZM30 32.0379C34.3107 32.0379 37.8049 35.5321 37.8049 39.8428C37.8049 44.153 34.3107 47.6477 30 47.6477C25.6893 47.6477 22.1951 44.153 22.1951 39.8428C22.1999 35.534 25.6917 32.0427 30 32.0379Z" fill="#1A73E8"/>
<path d="M30 44.2328C32.4237 44.2299 34.3873 42.2658 34.3902 39.8425C34.3902 39.6587 34.3788 39.4748 34.3559 39.2923C35.3549 38.3244 35.3973 36.7357 34.4512 35.7162C33.5056 34.6963 31.9178 34.6191 30.8779 35.5428C29.2378 35.2079 27.55 35.8348 26.5267 37.1596C25.503 38.4844 25.322 40.2756 26.0599 41.778C26.7978 43.2805 28.326 44.2328 30 44.2328ZM32.5747 36.3579C33.1812 36.3579 33.6723 36.8495 33.6723 37.4554C33.6723 38.0619 33.1812 38.553 32.5747 38.553C31.9688 38.553 31.4772 38.0619 31.4772 37.4554C31.4781 36.8495 31.9688 36.3588 32.5747 36.3579ZM30 36.9157C30.0242 36.9157 30.0476 36.9176 30.0719 36.9181C29.8899 37.7351 30.1214 38.5897 30.6907 39.2028C31.26 39.8163 32.0946 40.1107 32.923 39.9902C32.8425 41.5851 31.4977 42.8213 29.9013 42.7675C28.305 42.7136 27.0464 41.3903 27.0736 39.793C27.1003 38.1962 28.4027 36.9157 30 36.9157Z" fill="#1A73E8"/>
</g>
<defs>
<clipPath id="clip0_133_396">
<rect width="60" height="60" fill="white"/>
</clipPath>
</defs>
</svg>
