<svg width="63" height="62" viewBox="0 0 63 62" fill="none" xmlns="http://www.w3.org/2000/svg">
<path d="M27.8338 35.2264C27.8004 35.4063 27.7829 35.5887 27.7817 35.7716V50.1037H34.621V35.7716C34.6208 35.5887 34.6034 35.4061 34.5689 35.2264C36.2307 34.5606 37.6584 33.418 38.6722 31.9424C39.686 30.4668 40.2406 28.7243 40.2661 26.9342C40.2916 25.1441 39.7869 23.3865 38.8155 21.8826C37.8442 20.3788 36.4496 19.1959 34.8074 18.483V26.8056H27.5913V18.483C25.9493 19.1965 24.5551 20.3799 23.5843 21.8841C22.6135 23.3883 22.1094 25.1461 22.1356 26.9362C22.1617 28.7263 22.7169 30.4687 23.7312 31.9439C24.7456 33.4191 26.1737 34.5612 27.8358 35.2264H27.8338Z" fill="white" stroke="black" stroke-width="1.54746" stroke-miterlimit="10"/>
<path d="M32.2578 50.1037V37.4755C32.2578 36.9804 31.7687 36.5815 31.1633 36.5815C30.558 36.5815 30.0709 36.9824 30.0709 37.4755V50.1037H32.2578Z" fill="white" stroke="black" stroke-width="1.54746" stroke-miterlimit="10"/>
<path d="M37.8823 27.2587C37.8408 29.0194 37.1016 30.6915 35.8272 31.9072C34.5529 33.1229 32.8478 33.7826 31.0871 33.7411" stroke="black" stroke-width="1.54746" stroke-miterlimit="10"/>
<path d="M56.3737 31.3197C56.3737 30.554 56.3336 29.7983 56.2674 29.0506L61.3167 27.7277L59.0617 19.0804L53.9041 20.4274C52.8245 18.1795 51.4182 16.1038 49.7308 14.2676L53.0322 9.98606L45.9544 4.52386L42.6089 8.85954C40.4122 7.73736 38.0616 6.94638 35.6333 6.51231V1H26.6934V6.5103C24.3851 6.9215 22.1461 7.65566 20.0425 8.69118L16.7672 4.30939L9.60923 9.66936L12.8485 14.0131C11.6083 15.3203 10.5123 16.7571 9.57916 18.2986L4.55594 16.4485L1.46704 24.8372L6.39204 26.6413C6.10035 28.183 5.95272 29.7486 5.95106 31.3177C5.95106 31.8689 5.97712 32.4162 6.01119 32.9614L1 34.2683L3.26506 42.9196L8.15398 41.6388C9.20852 43.9835 10.6152 46.1534 12.3253 48.0731L9.2825 52.0119L16.3663 57.4781L19.373 53.5995C21.6704 54.8151 24.1427 55.6665 26.7014 56.1231V61H35.6414V56.1231C38.0773 55.6897 40.435 54.8959 42.637 53.7678L45.5756 57.6906L52.7315 52.3306L49.7529 48.3518C51.0194 46.9696 52.1274 45.4501 53.0563 43.8216L57.7788 45.5595L60.8657 37.1708L56.055 35.3968C56.2709 34.0486 56.3775 32.6851 56.3737 31.3197ZM31.1634 48.1673C27.7677 48.1677 24.4482 47.1612 21.6246 45.2749C18.801 43.3887 16.6002 40.7075 15.3005 37.5704C14.0007 34.4333 13.6604 30.9813 14.3227 27.6508C14.9849 24.3204 16.6198 21.2611 19.0208 18.8599C21.4218 16.4586 24.4809 14.8233 27.8112 14.1607C31.1416 13.4981 34.5937 13.8379 37.7309 15.1373C40.8682 16.4367 43.5496 18.6372 45.4362 21.4606C47.3227 24.2839 48.3297 27.6033 48.3297 30.999C48.3297 35.552 46.5212 39.9185 43.3019 43.1381C40.0827 46.3578 35.7163 48.1668 31.1634 48.1673Z" fill="#1A73E8" stroke="black" stroke-width="1.54746" stroke-miterlimit="10"/>
</svg>
