<svg width="60" height="62" viewBox="0 0 60 62" fill="none" xmlns="http://www.w3.org/2000/svg">
<path d="M16.1523 29.0233H7.0892V52.6002H16.1523V29.0233Z" fill="#1A73E8" stroke="black" stroke-width="1.46314" stroke-miterlimit="10"/>
<path d="M40.3131 24.9276C39.4671 24.1099 38.4249 23.5235 37.2868 23.2248C36.1487 22.9261 34.9529 22.9251 33.8143 23.2219C33.8143 23.2219 27.1032 25.3957 21.8988 30.909H16.1524V50.9552H21.5387L23.9059 53.6862C23.9059 53.6862 25.4221 55.6478 28.0375 55.6345H42.9134V45.0211" fill="white"/>
<path d="M40.3131 24.9276C39.4671 24.1099 38.4249 23.5235 37.2868 23.2248C36.1487 22.9261 34.9529 22.9251 33.8143 23.2219C33.8143 23.2219 27.1032 25.3957 21.8988 30.909H16.1524V50.9552H21.5387L23.9059 53.6862C23.9059 53.6862 25.4221 55.6478 28.0375 55.6345H42.9134V45.0211" stroke="black" stroke-width="1.46314" stroke-miterlimit="10"/>
<path d="M11.6227 50.5761C11.303 50.5765 10.9903 50.482 10.7242 50.3047C10.4582 50.1274 10.2507 49.8751 10.128 49.5799C10.0052 49.2846 9.97287 48.9596 10.0349 48.6459C10.0969 48.3322 10.2505 48.044 10.4764 47.8176C10.7022 47.5913 10.9901 47.437 11.3036 47.3742C11.6171 47.3115 11.9422 47.3431 12.2377 47.4651C12.5333 47.5871 12.786 47.794 12.964 48.0597C13.1419 48.3253 13.2371 48.6378 13.2375 48.9575C13.2377 49.1698 13.1962 49.3801 13.1152 49.5764C13.0341 49.7726 12.9153 49.9509 12.7653 50.1012C12.6154 50.2515 12.4373 50.3708 12.2412 50.4523C12.0452 50.5338 11.835 50.5758 11.6227 50.5761Z" fill="white" stroke="black" stroke-width="1.46314" stroke-miterlimit="10"/>
<path d="M39.8904 33.8259V57.1849" stroke="black" stroke-width="1.46314" stroke-miterlimit="10"/>
<path d="M37.69 33.8429V57.2019" stroke="black" stroke-width="1.46314" stroke-miterlimit="10"/>
<path d="M34.8775 1H43.1123L45.9268 5.21125H48.2276L49.6889 3.5567H52.9108V11.3178H49.3629L48.709 9.70679H46.8593C46.8593 9.70679 43.1123 10.3891 42.3391 15.2599H34.2482L32.8306 10.3322C30.7913 4.74123 25.0089 10.9899 25.0089 10.9899L24.6601 10.7625C26.9174 1.29945 34.8775 1 34.8775 1Z" stroke="black" stroke-width="1.46314" stroke-miterlimit="10"/>
<path d="M42.3448 15.2599H34.2975V20.7561H42.3448V15.2599Z" stroke="black" stroke-width="1.46314" stroke-miterlimit="10"/>
<path d="M40.0534 20.7581H36.5851V27.9638H40.0534V20.7581Z" stroke="black" stroke-width="1.46314" stroke-miterlimit="10"/>
<path d="M32.516 61C32.7851 58.7788 34.2994 58.3732 34.2994 58.3732V30.1813C34.398 28.0301 35.7303 27.9619 35.7303 27.9619H40.9139C40.9139 27.9619 42.2405 28.0301 42.3448 30.1813V58.3675C42.3448 58.3675 43.861 58.7731 44.1263 60.9943L32.516 61Z" fill="#1A73E8" stroke="black" stroke-width="1.46314" stroke-miterlimit="10"/>
<path d="M45.6293 7.71869C45.6293 7.71869 41.1659 8.12996 40.4041 13.2149" stroke="black" stroke-width="1.46314" stroke-miterlimit="10"/>
<path d="M41.4029 36.9871C40.5958 36.9866 39.8218 36.6658 39.2511 36.0951C38.6804 35.5243 38.3596 34.7504 38.3591 33.9433C38.3621 33.138 38.6841 32.3667 39.2546 31.7984C39.8251 31.23 40.5976 30.9109 41.4029 30.9109H47.0886C47.4878 30.9094 47.8834 30.9867 48.2526 31.1385C48.6218 31.2902 48.9574 31.5133 49.2402 31.7951C49.523 32.0768 49.7474 32.4116 49.9005 32.7802C50.0536 33.1489 50.1324 33.5441 50.1324 33.9433C50.1324 34.7506 49.8117 35.5248 49.2409 36.0956C48.6701 36.6664 47.8959 36.9871 47.0886 36.9871H41.4029Z" fill="white" stroke="black" stroke-width="1.46314" stroke-miterlimit="10"/>
<path d="M41.8331 43.4745C41.0278 43.4746 40.2553 43.1554 39.6848 42.5871C39.1143 42.0187 38.7923 41.2474 38.7893 40.4421C38.7923 39.6368 39.1143 38.8656 39.6848 38.2972C40.2553 37.7288 41.0278 37.4097 41.8331 37.4097H48.4248C49.229 37.4097 50.0003 37.7292 50.569 38.2979C51.1377 38.8666 51.4572 39.6379 51.4572 40.4421C51.4572 41.2464 51.1377 42.0177 50.569 42.5864C50.0003 43.1551 49.229 43.4745 48.4248 43.4745H41.8331Z" fill="white" stroke="black" stroke-width="1.46314" stroke-miterlimit="10"/>
<path d="M42.9229 49.5583C42.1174 49.5558 41.3459 49.234 40.7774 48.6634C40.2089 48.0928 39.8899 47.32 39.8904 46.5145C39.8904 45.7103 40.2099 44.939 40.7786 44.3703C41.3473 43.8016 42.1186 43.4821 42.9229 43.4821H47.0924C47.4916 43.4806 47.8871 43.558 48.2564 43.7097C48.6256 43.8614 48.9612 44.0845 49.244 44.3663C49.5268 44.648 49.7512 44.9828 49.9043 45.3515C50.0574 45.7201 50.1362 46.1154 50.1362 46.5145C50.1362 47.3218 49.8155 48.096 49.2447 48.6668C48.6739 49.2377 47.8997 49.5583 47.0924 49.5583H42.9229Z" fill="white" stroke="black" stroke-width="1.46314" stroke-miterlimit="10"/>
<path d="M42.9134 55.6402C42.1092 55.6402 41.3379 55.3207 40.7692 54.752C40.2005 54.1833 39.881 53.412 39.881 52.6078C39.881 51.8035 40.2005 51.0322 40.7692 50.4635C41.3379 49.8949 42.1092 49.5754 42.9134 49.5754H45.7563C46.5606 49.5754 47.3319 49.8949 47.9005 50.4635C48.4692 51.0322 48.7887 51.8035 48.7887 52.6078C48.7887 53.412 48.4692 54.1833 47.9005 54.752C47.3319 55.3207 46.5606 55.6402 45.7563 55.6402H42.9134Z" fill="white" stroke="black" stroke-width="1.46314" stroke-miterlimit="10"/>
<path d="M27.1069 37.1198C36.2648 38.2721 38.3628 30.6323 38.3628 30.6323V39.4661C39.2271 43.4727 44.2533 43.4727 44.2533 43.4727V29.5956L40.3168 24.9276C40.3168 24.9276 37.5687 22.405 33.818 23.2219C33.818 23.2219 27.6471 25.1171 21.9026 30.909" fill="white"/>
<path d="M27.1069 37.1198C36.2648 38.2721 38.3628 30.6323 38.3628 30.6323V39.4661C39.2271 43.4727 44.2533 43.4727 44.2533 43.4727V29.5956L40.3168 24.9276C40.3168 24.9276 37.5687 22.405 33.818 23.2219C33.818 23.2219 27.6471 25.1171 21.9026 30.909" stroke="black" stroke-width="1.46314" stroke-linejoin="round"/>
</svg>
