<svg width="45" height="62" viewBox="0 0 45 62" fill="none" xmlns="http://www.w3.org/2000/svg">
<path d="M31.8181 48.6008V46.3508C32.0834 43.1889 31.8655 41.7584 33.7128 40.8134C37.706 38.3675 40.7909 34.6843 42.4983 30.324C44.2057 25.9637 44.442 21.165 43.1715 16.6581C41.9009 12.1511 39.1928 8.18247 35.4594 5.35602C31.726 2.52958 27.1715 1 22.4888 1C17.8062 1 13.2516 2.52958 9.5182 5.35602C5.78477 8.18247 3.07678 12.1511 1.80619 16.6581C0.535601 21.165 0.771957 25.9637 2.47934 30.324C4.18672 34.6843 7.27167 38.3675 11.2648 40.8134C13.3964 42.4026 12.9061 43.1818 13.1596 46.3508V48.6055L31.8181 48.6008Z" stroke="black" stroke-width="1.51106" stroke-linecap="round" stroke-linejoin="round"/>
<path d="M31.8251 48.6008H13.1808V56.2248H31.8251V48.6008Z" stroke="black" stroke-width="1.51106" stroke-linecap="round" stroke-linejoin="round"/>
<path d="M13.1808 51.2606H31.8251" stroke="black" stroke-width="1.51106" stroke-linecap="round" stroke-linejoin="round"/>
<path d="M13.1808 53.7545H31.8251" stroke="black" stroke-width="1.51106" stroke-linecap="round" stroke-linejoin="round"/>
<path d="M16.9846 56.2248C17.1774 57.5511 17.8414 58.7636 18.855 59.6405C19.8686 60.5174 21.164 61 22.5042 61C23.8445 61 25.1399 60.5174 26.1535 59.6405C27.1671 58.7636 27.8311 57.5511 28.0239 56.2248H16.9846Z" stroke="black" stroke-width="1.51106" stroke-linecap="round" stroke-linejoin="round"/>
<path d="M37.4834 24.772L37.6207 20.6178L35.1007 20.5372C34.9488 19.6848 34.7108 18.85 34.3902 18.0456L36.6994 16.7809L34.7004 13.1335L32.2444 14.4835C31.715 13.8605 31.1273 13.2895 30.4894 12.7782L31.9554 10.3008L28.3791 8.1811L26.8633 10.739C26.1201 10.4668 25.3523 10.2669 24.5706 10.1422V7.14136H20.4164V10.1422C19.8221 10.24 19.2349 10.3777 18.659 10.5543L17.2617 7.92531L13.5906 9.8769L14.9477 12.4348C14.3552 12.8669 13.8005 13.3486 13.2898 13.8748L10.9024 12.3543L8.66897 15.8572L10.919 17.2948C10.5507 18.0703 10.2627 18.8814 10.0592 19.7154L7.50372 19.6301L7.36633 23.7867L9.73477 23.8625C9.80943 24.7728 9.98175 25.6725 10.2487 26.5459L8.2782 27.6236L10.2771 31.2686L12.1079 30.2644C12.6688 31.0455 13.3164 31.7606 14.0382 32.396L13.0245 34.1155L16.6009 36.2305L17.5648 34.6034C18.4776 34.9821 19.4314 35.2532 20.4069 35.411V37.2749H24.5801V35.411C25.3539 35.2866 26.1144 35.09 26.8514 34.8236L27.7372 36.4815L31.4059 34.5299L30.4799 32.7844C31.1657 32.2367 31.7941 31.6209 32.3557 30.9465L34.0894 32.0526L36.3228 28.5473L34.4565 27.363C34.7884 26.5054 35.0266 25.6145 35.167 24.7057L37.4834 24.772Z" fill="#1A73E8" stroke="black" stroke-width="1.51106" stroke-miterlimit="10"/>
<path d="M22.4983 13.1146C20.7005 13.1146 18.9431 13.6478 17.4485 14.6468C15.9538 15.6458 14.789 17.0656 14.1014 18.7267C13.4139 20.3878 13.2345 22.2156 13.5859 23.9787C13.9373 25.7417 14.8038 27.361 16.0757 28.6316C17.3476 29.9021 18.9677 30.7669 20.7312 31.1165C22.4946 31.466 24.3221 31.2847 25.9825 30.5954C27.6429 29.9062 29.0616 28.7399 30.059 27.2442C31.0564 25.7485 31.5878 23.9905 31.5859 22.1928C31.5834 19.7842 30.6249 17.4752 28.9209 15.7729C27.2169 14.0707 24.9068 13.1146 22.4983 13.1146ZM22.4983 28.4241C21.2674 28.4246 20.0641 28.0601 19.0403 27.3768C18.0166 26.6935 17.2185 25.722 16.7468 24.5851C16.2751 23.4482 16.1511 22.197 16.3905 20.9897C16.6298 19.7823 17.2217 18.673 18.0914 17.802C18.961 16.931 20.0694 16.3374 21.2764 16.0963C22.4834 15.8551 23.7348 15.9772 24.8724 16.4472C26.01 16.9171 26.9827 17.7138 27.6676 18.7365C28.3524 19.7591 28.7187 20.9619 28.7201 22.1928C28.7214 23.0106 28.5614 23.8207 28.2493 24.5767C27.9371 25.3327 27.479 26.0197 26.9011 26.5984C26.3233 27.1772 25.637 27.6363 24.8815 27.9496C24.126 28.2629 23.3161 28.4241 22.4983 28.4241Z" fill="white" stroke="black" stroke-width="1.51106" stroke-miterlimit="10"/>
<path d="M40.6144 22.5007C40.6144 27.1634 38.7621 31.6352 35.4651 34.9322C32.168 38.2293 27.6962 40.0816 23.0335 40.0816" stroke="black" stroke-width="1.51106" stroke-miterlimit="10"/>
</svg>
