<svg width="60" height="60" viewBox="0 0 60 60" fill="none" xmlns="http://www.w3.org/2000/svg">
<path d="M57 0H25C23.3439 0.00175781 22.0017 1.34391 22 3C21.9993 3.55195 21.552 3.99926 21 3.99996H2.00004C0.895898 4.00113 0.00105469 4.89586 0 6V15C0.00175781 16.6561 1.34391 17.9982 3 18H9.99996V52H8.00004C6.34395 52.0017 5.0018 53.3439 5.00004 55V58.9999C5.00004 59.5522 5.4477 59.9999 6 59.9999H28C28.5523 59.9999 28.9999 59.5522 28.9999 58.9999V55C28.9982 53.3439 27.656 52.0017 25.9999 52H24V25H31C34.8641 24.9956 37.9956 21.8641 37.9999 18V9.99996H49V22.9999C47.8958 23.001 47.0011 23.8958 46.9999 25V34.9999C47.001 36.1041 47.8958 36.9988 49 37H52V39.1419C49.992 39.6649 48.7191 41.6387 49.0709 43.6836C49.4228 45.7286 51.2822 47.1634 53.3496 46.985C55.417 46.8068 57.0034 45.0749 57 42.9998C57 42.4475 56.5523 41.9999 56 41.9999C55.4477 41.9999 55.0001 42.4475 55.0001 42.9998C55.0001 44.1045 54.1046 44.9999 53 44.9999C51.8954 44.9999 51 44.1045 51 42.9998C51 41.8952 51.8954 40.9998 53 40.9998C53.5523 40.9998 54 40.5521 54 39.9998V36.9998H57C58.1041 36.9988 58.9989 36.1039 59 34.9998V24.9998C58.999 23.8957 58.1041 23.001 57 22.9998V9.99996H59C59.5523 9.99996 60 9.5523 60 9V3C59.9982 1.34391 58.6561 0.00175781 57 0ZM50.6181 8.00004L53 3.2359L55.382 8.00004H50.6181ZM55 9.99996V22.9999H51V9.99996H55ZM35.3818 2.00004L33 6.76371L30.6182 2.00004H35.3818ZM31.3819 8.00004H26.6181L29 3.2359L31.3819 8.00004ZM2.00004 9.99996H10.0001V12H2.00004V9.99996ZM3 16C2.44805 15.9993 2.00074 15.552 2.00004 15V14H10.0001V16.0001L3 16ZM26 54C26.552 54.0007 26.9993 54.448 27 55V58H6.99996V55C7.00066 54.448 7.44797 54.0007 7.99992 54H26ZM21.7079 38.3334L16.9999 44.0875L12.292 38.3334L16.9999 32.5791L21.7079 38.3334ZM12.292 23.6665L16.9999 17.9125L21.7079 23.6665L16.9999 29.4207L12.292 23.6665ZM20.8897 52H13.1104L17 47.246L20.8897 52ZM18.2921 45.6668L22.0001 41.1349V50.1987L18.2921 45.6668ZM18.292 31L22 26.468V35.532L18.292 31ZM18.2921 16.3332L22.0001 11.8014V20.8651L18.2921 16.3332ZM17 14.754L13.1104 9.99996H20.8897L17 14.754ZM15.7079 16.3332L12 20.8651V17V11.8015L15.7079 16.3332ZM15.7079 31L12 35.532V26.468L15.7079 31ZM15.7079 45.6668L12 50.1986V41.1348L15.7079 45.6668ZM2.00004 8.00004V6H21C22.6561 5.99824 23.9982 4.65609 24 3C24.0007 2.44805 24.448 2.00074 25 2.00004H27.3818L24.3818 8.00004H2.00004ZM36 18C35.9967 20.7601 33.7601 22.9968 31 23H24V9.99996H36V18ZM37 8.00004H34.618L37 3.2359L39.3819 8.00004H37ZM38.6182 2.00004H43.3819L41 6.76371L38.6182 2.00004ZM42.618 8.00004L45 3.23578L47.382 7.99992L42.618 8.00004ZM46.6181 2.00004H51.3818L49 6.76371L46.6181 2.00004ZM57.0014 35H49V25.0001H57L57.0014 35ZM58 8.00004H57.6182L54.6182 2.00004H57C57.552 2.00074 57.9993 2.44805 58 3V8.00004Z" fill="#1A73E8"/>
<path d="M20.8897 52H13.1104L17 47.246L20.8897 52Z" fill="#1A73E8"/>
<path d="M21.7079 38.3334L16.9999 44.0875L12.292 38.3334L16.9999 32.5791L21.7079 38.3334Z" fill="#1A73E8"/>
<path d="M12.292 23.6665L16.9999 17.9125L21.7079 23.6665L16.9999 29.4207L12.292 23.6665Z" fill="#1A73E8"/>
<path d="M2.00004 8.00004V6H21C22.6561 5.99824 23.9982 4.65609 24 3C24.0007 2.44805 24.448 2.00074 25 2.00004H27.3818L24.3818 8.00004H2.00004Z" fill="#1A73E8"/>
<path d="M57.0014 35H49V25.0001H57L57.0014 35Z" fill="#1A73E8"/>
<path d="M26 54C26.552 54.0007 26.9993 54.448 27 55V58H6.99996V55C7.00066 54.448 7.44797 54.0007 7.99992 54H26Z" fill="#1A73E8"/>
<path d="M2.00004 9.99996H10.0001V12H2.00004V9.99996Z" fill="#1A73E8"/>
<path d="M57 0H25C23.3439 0.00175781 22.0017 1.34391 22 3C21.9993 3.55195 21.552 3.99926 21 3.99996H2.00004C0.895898 4.00113 0.00105469 4.89586 0 6V15C0.00175781 16.6561 1.34391 17.9982 3 18H9.99996V52H8.00004C6.34395 52.0017 5.0018 53.3439 5.00004 55V58.9999C5.00004 59.5522 5.4477 59.9999 6 59.9999H28C28.5523 59.9999 28.9999 59.5522 28.9999 58.9999V55C28.9982 53.3439 27.656 52.0017 25.9999 52H24V25H31C34.8641 24.9956 37.9956 21.8641 37.9999 18V9.99996H49V22.9999C47.8958 23.001 47.0011 23.8958 46.9999 25V34.9999C47.001 36.1041 47.8958 36.9988 49 37H52V39.1419C49.992 39.6649 48.7191 41.6387 49.0709 43.6836C49.4228 45.7286 51.2822 47.1634 53.3496 46.985C55.417 46.8068 57.0034 45.0749 57 42.9998C57 42.4475 56.5523 41.9999 56 41.9999C55.4477 41.9999 55.0001 42.4475 55.0001 42.9998C55.0001 44.1045 54.1046 44.9999 53 44.9999C51.8954 44.9999 51 44.1045 51 42.9998C51 41.8952 51.8954 40.9998 53 40.9998C53.5523 40.9998 54 40.5521 54 39.9998V36.9998H57C58.1041 36.9988 58.9989 36.1039 59 34.9998V24.9998C58.999 23.8957 58.1041 23.001 57 22.9998V9.99996H59C59.5523 9.99996 60 9.55231 60 9V3C59.9982 1.34391 58.6561 0.00175781 57 0ZM50.6181 8.00004L53 3.2359L55.382 8.00004H50.6181ZM55 9.99996V22.9999H51V9.99996H55ZM35.3818 2.00004L33 6.76371L30.6182 2.00004H35.3818ZM31.3819 8.00004H26.6181L29 3.2359L31.3819 8.00004ZM2.00004 9.99996H10.0001V12H2.00004V9.99996ZM3 16C2.44805 15.9993 2.00074 15.552 2.00004 15V14H10.0001V16.0001H3V16ZM26 54C26.552 54.0007 26.9993 54.448 27 55V58H6.99996V55C7.00066 54.448 7.44797 54.0007 7.99992 54H26ZM21.7079 38.3334L16.9999 44.0875L12.292 38.3334L16.9999 32.5791L21.7079 38.3334ZM12.292 23.6665L16.9999 17.9125L21.7079 23.6665L16.9999 29.4207L12.292 23.6665ZM20.8897 52H13.1104L17 47.246L20.8897 52ZM18.2921 45.6668L22.0001 41.1349V50.1987L18.2921 45.6668ZM18.292 31L22 26.468V35.532L18.292 31ZM18.2921 16.3332L22.0001 11.8014V20.8651L18.2921 16.3332ZM17 14.754L13.1104 9.99996H20.8897L17 14.754ZM15.7079 16.3332L12 20.8651V17V11.8015L15.7079 16.3332ZM15.7079 31L12 35.532V26.468L15.7079 31ZM15.7079 45.6668L12 50.1986V41.1348L15.7079 45.6668ZM2.00004 8.00004V6H21C22.6561 5.99824 23.9982 4.65609 24 3C24.0007 2.44805 24.448 2.00074 25 2.00004H27.3818L24.3818 8.00004H2.00004ZM36 18C35.9967 20.7601 33.7601 22.9968 31 23H24V9.99996H36V18ZM37 8.00004H34.618L37 3.2359L39.3819 8.00004H37ZM38.6182 2.00004H43.3819L41 6.76371L38.6182 2.00004ZM42.618 8.00004L45 3.23578L47.382 7.99992H42.618V8.00004ZM46.6181 2.00004H51.3818L49 6.76371L46.6181 2.00004ZM57.0014 35H49V25.0001H57L57.0014 35ZM58 8.00004H57.6182L54.6182 2.00004H57C57.552 2.00074 57.9993 2.44805 58 3V8.00004Z" fill="black"/>
<path d="M27.0001 18.0001H31C32.6568 18.0001 34 16.6569 34 15.0001C34 13.3433 32.6568 12.0001 31 12.0001H27.0001C26.4478 12.0001 26.0001 12.4478 26.0001 13.0001V17C26.0001 17.5523 26.4478 18.0001 27.0001 18.0001ZM28 14.0002H31C31.552 14.0009 31.9993 14.4482 32 15.0001C31.9993 15.5521 31.552 15.9994 31 16.0001H28V14.0002Z" fill="black"/>
</svg>
