<svg width="61" height="60" viewBox="0 0 61 60" fill="none" xmlns="http://www.w3.org/2000/svg">
<path d="M58.6045 57.6073C58.0191 57.721 57.1218 57.7402 56.0986 56.6013C55.4136 55.8386 54.4437 55.4012 53.4373 55.4012C52.4309 55.4012 51.4609 55.8385 50.7755 56.6018C50.139 57.3112 49.4765 57.6561 48.7498 57.6561C48.0231 57.6561 47.3605 57.3112 46.7236 56.6013C46.0387 55.8386 45.0687 55.4012 44.0623 55.4012C43.0559 55.4012 42.0859 55.8385 41.4005 56.6018C40.7641 57.3112 40.1015 57.6561 39.3748 57.6561C38.6481 57.6561 37.9856 57.3112 37.3487 56.6013C36.6637 55.8386 35.6937 55.4012 34.6873 55.4012C33.6809 55.4012 32.711 55.8385 32.0256 56.6018C31.3891 57.3112 30.7265 57.6561 29.9999 57.6561C29.2732 57.6561 28.6106 57.3112 27.9737 56.6013C27.2887 55.8386 26.3188 55.4012 25.3124 55.4012C24.306 55.4012 23.336 55.8385 22.6506 56.6018C22.1799 57.1265 21.2985 57.6561 20.3905 57.6561C19.31 57.6561 18.5319 56.9187 18.2472 56.6013C17.5622 55.8386 16.5923 55.4012 15.5859 55.4012C14.5795 55.4012 13.6095 55.8385 12.9241 56.6018C12.2876 57.3112 11.6251 57.6561 10.8984 57.6561C9.81781 57.6561 9.0398 56.9187 8.75504 56.6013C8.07008 55.8386 7.07868 55.4012 6.03513 55.4012C4.99158 55.4012 4.00018 55.8385 3.31475 56.6018C3.03046 56.9187 2.25245 57.6561 1.17187 57.6561C0.524763 57.6561 0 58.1808 0 58.8279C0 59.475 0.524763 59.9998 1.17187 59.9998C2.59757 59.9998 4.01447 59.3317 5.05908 58.1671C5.30013 57.8988 5.65591 57.7448 6.03513 57.7448C6.41435 57.7448 6.77013 57.8987 7.01071 58.1667C8.05578 59.3317 9.47269 59.9998 10.8984 59.9998C12.2893 59.9998 13.5931 59.3659 14.6684 58.1671C14.913 57.8949 15.2388 57.7448 15.5859 57.7448C15.933 57.7448 16.2588 57.8948 16.5029 58.1667C17.5479 59.3316 18.9648 59.9998 20.3905 59.9998C21.8466 59.9998 23.3811 59.2974 24.3949 58.1671C24.6395 57.8949 24.9653 57.7448 25.3124 57.7448C25.6595 57.7448 25.9853 57.8948 26.2294 58.1667C27.3051 59.3658 28.609 59.9998 29.9999 59.9998C31.3908 59.9998 32.6946 59.3659 33.7699 58.1671C34.0145 57.8949 34.3402 57.7448 34.6873 57.7448C35.0345 57.7448 35.3602 57.8948 35.6043 58.1667C36.6801 59.3658 37.9839 59.9998 39.3748 59.9998C40.7657 59.9998 42.0695 59.3659 43.1448 58.1671C43.3894 57.8949 43.7152 57.7448 44.0623 57.7448C44.4094 57.7448 44.7352 57.8948 44.9793 58.1667C46.0551 59.3658 47.3589 59.9998 48.7498 59.9998C50.1407 59.9998 51.4445 59.3659 52.5198 58.1671C52.7644 57.8949 53.0902 57.7448 53.4373 57.7448C53.7844 57.7448 54.1101 57.8948 54.3548 58.1672C55.6188 59.5741 57.2252 60.2628 59.0512 59.9079C59.6865 59.7845 60.1016 59.1695 59.9782 58.5342C59.8549 57.8991 59.2398 57.4842 58.6045 57.6073Z" fill="black"/>
<path d="M1.17188 26.4843C1.81909 26.4843 2.34375 25.9596 2.34375 25.3124C2.34375 24.6652 1.81909 24.1405 1.17188 24.1405C0.524667 24.1405 0 24.6652 0 25.3124C0 25.9596 0.524667 26.4843 1.17188 26.4843Z" fill="black"/>
<path d="M58.6167 50.5205C58.0065 50.6344 57.443 50.5286 56.9085 50.1999C56.94 49.9525 56.9569 49.703 56.9569 49.4529C56.9569 46.6233 54.9407 44.2559 52.2694 43.7114V42.4217C52.2694 32.7292 44.3839 24.8436 34.6914 24.8436H33.5195V16.6406C33.5195 15.9933 32.9947 15.4687 32.3476 15.4687H30.0039C28.4761 15.4687 27.1728 16.4482 26.6891 17.8124H16.5602C16.0765 16.4485 14.7739 15.4687 13.2462 15.4687H12.0743V7.03122H15.5899C16.237 7.03122 16.7618 6.50657 16.7618 5.85935V1.17187C16.7618 0.524646 16.237 0 15.5899 0H1.1759C0.528792 0 0.00402832 0.524646 0.00402832 1.17187V20.039C0.00402832 20.6862 0.528792 21.2108 1.1759 21.2108C1.823 21.2108 2.34777 20.6862 2.34777 20.039V7.03122H9.73055V50.2675C9.26321 50.0262 8.92594 49.6971 8.75942 49.5117C8.07446 48.7481 7.08294 48.3103 6.03916 48.3103C4.99537 48.3103 4.00385 48.7483 3.31937 49.5113C3.15249 49.697 2.81558 50.0274 2.34777 50.2688V18.0852C2.34777 17.438 1.823 16.9134 1.1759 16.9134C0.528792 16.9134 0.00402832 17.438 0.00402832 18.0852V51.7369C0.00402832 52.3841 0.528792 52.9087 1.1759 52.9087C2.60066 52.9087 4.01745 52.2413 5.06346 51.0769C5.30463 50.8082 5.66017 50.6541 6.03916 50.6541C6.41814 50.6541 6.7738 50.8082 7.01533 51.0775C8.06087 52.2414 9.47766 52.9087 10.9024 52.9087C12.2925 52.9087 13.5961 52.2755 14.6728 51.0769C14.9175 50.8042 15.2431 50.6541 15.5899 50.6541C15.9367 50.6541 16.2623 50.8042 16.5075 51.0775C17.553 52.2414 18.9698 52.9087 20.3946 52.9087C21.8498 52.9087 23.3841 52.207 24.3993 51.0769C24.644 50.8042 24.9697 50.6541 25.3164 50.6541C25.6632 50.6541 25.9888 50.8042 26.234 51.0775C27.3102 52.2756 28.6138 52.9087 30.0039 52.9087C31.4963 52.9087 32.7791 52.189 33.7743 51.0769C34.019 50.8042 34.3446 50.6541 34.6914 50.6541C35.0381 50.6541 35.3638 50.8042 35.6089 51.0775C36.6852 52.2756 37.9888 52.9087 39.3789 52.9087C40.8841 52.9087 42.1409 52.1944 43.1492 51.0769C43.3939 50.8042 43.7196 50.6541 44.0663 50.6541C44.4131 50.6541 44.7388 50.8042 44.9857 51.0793C45.2086 51.3264 45.4282 51.5386 45.6515 51.7241C45.6615 51.7325 45.6716 51.7407 45.6818 51.7488C46.6095 52.5182 47.6426 52.9087 48.7538 52.9087C50.1439 52.9087 51.4475 52.2755 52.5242 51.0769C52.7689 50.8042 53.0945 50.6541 53.4413 50.6541C53.788 50.6541 54.1137 50.8042 54.3589 51.0773C55.3516 52.1828 56.6377 52.9091 58.1472 52.9091C58.4434 52.9091 58.7439 52.881 59.047 52.8244C59.6833 52.7055 60.1027 52.0936 59.9838 51.4573C59.865 50.8212 59.2533 50.4019 58.6167 50.5205ZM16.7618 20.1562H26.4883V33.3595C26.4883 34.0067 27.013 34.5313 27.6602 34.5313C28.3073 34.5313 28.832 34.0067 28.832 33.3595V18.9843C28.832 18.3381 29.3577 17.8124 30.0039 17.8124H31.1758V34.2186H30.0039C29.3577 34.2186 28.832 33.6929 28.832 33.0467C28.832 32.3995 28.3073 31.8749 27.6602 31.8749H16.7618V20.1562ZM13.2462 17.8124C13.8923 17.8124 14.418 18.3381 14.418 18.9843V33.0467C14.418 33.6929 13.8923 34.2186 13.2462 34.2186H12.0743V17.8124H13.2462ZM2.34777 4.68748V2.34374H14.418V4.68748C13.3836 4.68748 3.81542 4.68748 2.34777 4.68748ZM28.832 47.1092C28.832 48.3722 29.2374 49.575 29.9601 50.5637C29.2509 50.55 28.6018 50.2061 27.9781 49.5117C27.2931 48.7481 26.3231 48.3103 25.3164 48.3103C24.3098 48.3103 23.3397 48.7483 22.6552 49.5113C22.184 50.0358 21.3023 50.5651 20.3946 50.5651C19.3143 50.5651 18.5357 49.8281 18.2516 49.5118C17.5666 48.7483 16.5965 48.3104 15.5899 48.3104C14.5833 48.3104 13.6132 48.7484 12.9287 49.5114C12.6499 49.8218 12.3662 50.0623 12.0743 50.2347V36.5623H13.2462C14.7738 36.5623 16.0765 35.5825 16.5602 34.2186H26.6891C27.1728 35.5828 28.4761 36.5623 30.0039 36.5623H32.3476C32.9947 36.5623 33.5195 36.0377 33.5195 35.3905V34.4202C34.8834 34.9039 35.8632 36.2064 35.8632 37.7342V41.3679C35.4792 41.2898 35.0864 41.2498 34.6914 41.2498C31.4605 41.2498 28.832 43.8783 28.832 47.1092ZM53.4413 48.3103C52.4347 48.3103 51.4646 48.7483 50.7801 49.5113C50.1431 50.2204 49.4803 50.5651 48.7538 50.5651C48.3452 50.5651 47.9591 50.4546 47.5819 50.2306V44.7654C47.5819 44.1182 47.0572 43.5936 46.4101 43.5936C45.763 43.5936 45.2382 44.1182 45.2382 44.7654V48.5136C44.8638 48.3812 44.4682 48.3103 44.0663 48.3103C43.6645 48.3103 43.2688 48.3812 42.8945 48.5135V37.7342C42.8945 37.087 42.3697 36.5623 41.7226 36.5623C41.0755 36.5623 40.5507 37.087 40.5507 37.7342V50.231C40.175 50.4543 39.7883 50.565 39.3789 50.565C38.6524 50.565 37.9896 50.2204 37.353 49.5117C36.6681 48.7481 35.698 48.3103 34.6914 48.3103C33.7083 48.3103 32.7608 48.7289 32.0781 49.4606C31.5032 48.8224 31.1758 47.9898 31.1758 47.1092C31.1758 45.1707 32.7529 43.5936 34.6914 43.5936C35.3095 43.5936 35.9173 43.756 36.4485 44.0631C36.8113 44.2729 37.2581 44.273 37.6207 44.0637C37.9835 43.8544 38.207 43.4675 38.207 43.0486V37.7342C38.207 34.9046 36.1908 32.5372 33.5195 31.9928V27.1874H34.6914C43.0917 27.1874 49.9257 34.0215 49.9257 42.4217V44.7654C49.9257 45.4126 50.4504 45.9373 51.0976 45.9373C52.6938 45.9373 54.044 47.007 54.4715 48.4669C54.1394 48.3648 53.7927 48.3103 53.4413 48.3103Z" fill="#1A73E8"/>
<path d="M2.34777 18.0852V20.039V50.2688C2.81558 50.0274 3.15249 49.697 3.31937 49.5113C4.00385 48.7483 4.99537 48.3103 6.03916 48.3103C7.08294 48.3103 8.07446 48.7481 8.75942 49.5117C8.92594 49.6971 9.26321 50.0262 9.73055 50.2675V7.03122H2.34777V18.0852Z" fill="#1A73E8"/>
<path d="M58.6166 50.5205C58.0064 50.6344 57.4429 50.5286 56.9084 50.1999C56.9399 49.9525 56.9568 49.703 56.9568 49.4529C56.9568 46.6233 54.9406 44.2559 52.2693 43.7114V42.4217C52.2693 32.7292 44.3838 24.8436 34.6912 24.8436H33.5194V16.6406C33.5194 15.9933 32.9946 15.4687 32.3475 15.4687H30.0038C28.476 15.4687 27.1727 16.4482 26.689 17.8124H16.5601C16.0763 16.4485 14.7738 15.4687 13.246 15.4687H12.0742V7.03122H15.5898C16.2369 7.03122 16.7616 6.50657 16.7616 5.85935V1.17187C16.7616 0.524646 16.2369 0 15.5898 0H1.17578C0.52867 0 0.00390625 0.524646 0.00390625 1.17187V20.039C0.00390625 20.6862 0.52867 21.2108 1.17578 21.2108C1.82288 21.2108 2.34765 20.6862 2.34765 20.039V7.03122H9.73043V50.2675C9.26308 50.0262 8.92582 49.6971 8.7593 49.5117C8.07434 48.7481 7.08282 48.3103 6.03904 48.3103C4.99525 48.3103 4.00373 48.7483 3.31924 49.5113C3.15237 49.697 2.81546 50.0274 2.34765 50.2688V18.0852C2.34765 17.438 1.82288 16.9134 1.17578 16.9134C0.52867 16.9134 0.00390625 17.438 0.00390625 18.0852V51.7369C0.00390625 52.3841 0.52867 52.9087 1.17578 52.9087C2.60054 52.9087 4.01733 52.2412 5.06334 51.0769C5.30451 50.8082 5.66005 50.6541 6.03904 50.6541C6.41802 50.6541 6.77368 50.8082 7.0152 51.0775C8.06075 52.2414 9.47754 52.9087 10.9023 52.9087C12.2924 52.9087 13.596 52.2755 14.6727 51.0769C14.9174 50.8042 15.243 50.6541 15.5898 50.6541C15.9365 50.6541 16.2622 50.8042 16.5073 51.0775C17.5529 52.2414 18.9697 52.9087 20.3944 52.9087C21.8497 52.9087 23.384 52.207 24.3992 51.0769C24.6439 50.8042 24.9695 50.6541 25.3163 50.6541C25.663 50.6541 25.9887 50.8042 26.2339 51.0775C27.3101 52.2756 28.6137 52.9087 30.0038 52.9087C31.4961 52.9087 32.779 52.189 33.7741 51.0769C34.0188 50.8042 34.3445 50.6541 34.6912 50.6541C35.038 50.6541 35.3637 50.8042 35.6088 51.0775C36.6851 52.2756 37.9887 52.9087 39.3787 52.9087C40.884 52.9087 42.1408 52.1944 43.1491 51.0769C43.3938 50.8042 43.7195 50.6541 44.0662 50.6541C44.413 50.6541 44.7386 50.8042 44.9855 51.0793C45.2084 51.3264 45.428 51.5386 45.6514 51.7241C45.6614 51.7325 45.6714 51.7407 45.6816 51.7488C46.6094 52.5182 47.6425 52.9087 48.7537 52.9087C50.1438 52.9087 51.4473 52.2755 52.5241 51.0769C52.7687 50.8042 53.0944 50.6541 53.4412 50.6541C53.7879 50.6541 54.1136 50.8042 54.3587 51.0773C55.3514 52.1828 56.6376 52.9091 58.147 52.9091C58.4433 52.9091 58.7438 52.881 59.0469 52.8244C59.6831 52.7055 60.1025 52.0936 59.9837 51.4573C59.8649 50.8212 59.2532 50.4019 58.6166 50.5205ZM16.7616 20.1562H26.4882V33.3595C26.4882 34.0067 27.0129 34.5313 27.66 34.5313C28.3071 34.5313 28.8319 34.0067 28.8319 33.3595V18.9843C28.8319 18.3381 29.3576 17.8124 30.0038 17.8124H31.1756V34.2186H30.0038C29.3576 34.2186 28.8319 33.6929 28.8319 33.0467C28.8319 32.3995 28.3071 31.8749 27.66 31.8749H16.7616V20.1562ZM13.246 17.8124C13.8922 17.8124 14.4179 18.3381 14.4179 18.9843V33.0467C14.4179 33.6929 13.8922 34.2186 13.246 34.2186H12.0742V17.8124H13.246ZM2.34765 4.68748V2.34374H14.4179V4.68748C13.3835 4.68748 3.8153 4.68748 2.34765 4.68748ZM28.8319 47.1092C28.8319 48.3722 29.2373 49.575 29.9599 50.5637C29.2507 50.55 28.6016 50.2061 27.978 49.5117C27.293 48.7481 26.3229 48.3103 25.3163 48.3103C24.3097 48.3103 23.3396 48.7483 22.6551 49.5113C22.1839 50.0358 21.3022 50.5651 20.3944 50.5651C19.3142 50.5651 18.5356 49.8281 18.2514 49.5118C17.5665 48.7483 16.5964 48.3104 15.5898 48.3104C14.5831 48.3104 13.6131 48.7484 12.9286 49.5114C12.6498 49.8218 12.3661 50.0623 12.0742 50.2347V36.5623H13.246C14.7737 36.5623 16.0763 35.5825 16.5601 34.2186H26.689C27.1727 35.5828 28.476 36.5623 30.0038 36.5623H32.3475C32.9946 36.5623 33.5194 36.0377 33.5194 35.3905V34.4202C34.8833 34.9039 35.8631 36.2064 35.8631 37.7342V41.3679C35.4791 41.2898 35.0863 41.2498 34.6912 41.2498C31.4604 41.2498 28.8319 43.8783 28.8319 47.1092ZM53.4412 48.3103C52.4345 48.3103 51.4645 48.7483 50.78 49.5113C50.1429 50.2204 49.4801 50.5651 48.7537 50.5651C48.3451 50.5651 47.9589 50.4546 47.5818 50.2306V44.7654C47.5818 44.1182 47.0571 43.5936 46.41 43.5936C45.7628 43.5936 45.2381 44.1182 45.2381 44.7654V48.5136C44.8637 48.3812 44.468 48.3103 44.0662 48.3103C43.6644 48.3103 43.2686 48.3812 42.8943 48.5135V37.7342C42.8943 37.087 42.3696 36.5623 41.7225 36.5623C41.0754 36.5623 40.5506 37.087 40.5506 37.7342V50.231C40.1749 50.4543 39.7882 50.565 39.3787 50.565C38.6523 50.565 37.9895 50.2204 37.3529 49.5117C36.668 48.7481 35.6979 48.3103 34.6912 48.3103C33.7082 48.3103 32.7607 48.7289 32.078 49.4606C31.5031 48.8224 31.1756 47.9898 31.1756 47.1092C31.1756 45.1707 32.7527 43.5936 34.6912 43.5936C35.3094 43.5936 35.9171 43.756 36.4484 44.0631C36.8112 44.2729 37.258 44.273 37.6206 44.0637C37.9834 43.8544 38.2069 43.4675 38.2069 43.0486V37.7342C38.2069 34.9046 36.1907 32.5372 33.5194 31.9928V27.1874H34.6912C43.0916 27.1874 49.9256 34.0215 49.9256 42.4217V44.7654C49.9256 45.4126 50.4503 45.9373 51.0974 45.9373C52.6936 45.9373 54.0439 47.007 54.4714 48.4669C54.1392 48.3648 53.7926 48.3103 53.4412 48.3103Z" fill="black"/>
</svg>
