<svg width="60" height="60" viewBox="0 0 60 60" fill="none" xmlns="http://www.w3.org/2000/svg">
<path d="M18.6328 33.5054V31.8767H4.94051C4.73434 31.8773 4.53591 31.9547 4.38451 32.0936C4.23311 32.2326 4.13978 32.4229 4.12301 32.6269L2.22926 55.4381C2.22017 55.5497 2.23464 55.662 2.27173 55.7677C2.30882 55.8734 2.36772 55.9703 2.44467 56.0521C2.52162 56.134 2.61492 56.199 2.71862 56.243C2.82231 56.287 2.93411 56.3091 3.04688 56.3078H56.9531C57.0661 56.3092 57.1781 56.2872 57.282 56.2431C57.3859 56.199 57.4793 56.1338 57.5563 56.0518C57.6333 55.9697 57.6922 55.8725 57.7291 55.7665C57.766 55.6605 57.7802 55.548 57.7707 55.4363L55.877 32.6252C55.8601 32.4214 55.7667 32.2313 55.6153 32.0927C55.4639 31.954 55.2655 31.8769 55.0595 31.8767H41.3672V33.5054H54.304L56.0618 54.679H3.9375L5.69602 33.5054H18.6328Z" fill="black"/>
<path d="M24.0597 27.6884H36.0034C36.1107 27.6857 36.2164 27.662 36.3144 27.6186C36.4125 27.5752 36.5009 27.513 36.5746 27.4356C36.6484 27.3582 36.706 27.267 36.7441 27.1674C36.7822 27.0678 36.8002 26.9617 36.7968 26.8552V21.1104C36.9079 21.1583 37.0274 21.1839 37.1484 21.1857C37.2724 21.1859 37.3949 21.1586 37.5069 21.1058C37.619 21.0531 37.7177 20.9761 37.7959 20.8805C37.9323 20.7124 37.9958 20.4974 37.9726 20.2827C37.9494 20.0681 37.8412 19.8714 37.672 19.7359L30.5428 14.0652C30.3974 13.9495 30.2166 13.8865 30.0303 13.8865C29.8439 13.8865 29.6631 13.9495 29.5177 14.0652L22.3879 19.7361C22.216 19.869 22.1042 20.0641 22.077 20.2786C22.0498 20.4932 22.1094 20.7097 22.2427 20.8807C22.3523 21.0222 22.5072 21.1222 22.6818 21.1644C22.8565 21.2065 23.0404 21.1882 23.2031 21.1125V26.8552C23.2105 27.0768 23.3037 27.287 23.4632 27.4422C23.6228 27.5973 23.8364 27.6855 24.0597 27.6884ZM30 15.7441L35.1562 19.841V26.0597H24.8437V19.8411L30 15.7441Z" fill="black"/>
<path fill-rule="evenodd" clip-rule="evenodd" d="M17.9836 8.38212C21.1925 5.06892 25.4713 3.24438 30.0316 3.24438C34.5919 3.24438 38.8711 5.06438 42.0796 8.37758C48.7062 15.2193 48.7062 26.3473 42.0796 33.1891L30.5908 45.0241C30.5134 45.1005 30.421 45.1605 30.3194 45.2003C30.2178 45.24 30.1091 45.2589 30 45.2555H29.9988C29.8895 45.2588 29.7806 45.2398 29.6789 45.1998C29.5773 45.1598 29.4849 45.0996 29.4075 45.0229L17.9824 33.1971C11.3569 26.3564 11.3569 15.2239 17.9836 8.38212ZM23.521 11.105C25.4482 9.82662 27.7139 9.14431 30.0316 9.14431C33.1386 9.1477 36.1173 10.3745 38.3142 12.5555C40.5112 14.7366 41.7469 17.6937 41.7504 20.7781C41.7504 23.0791 41.0631 25.3284 39.7754 27.2416C38.4877 29.1547 36.6575 30.6459 34.5162 31.5264C32.3749 32.4069 30.0186 32.6373 27.7454 32.1884C25.4722 31.7395 23.3841 30.6315 21.7452 29.0045C20.1063 27.3775 18.9902 25.3045 18.538 23.0478C18.0859 20.791 18.3179 18.4519 19.2049 16.3261C20.0919 14.2003 21.5939 12.3833 23.521 11.105Z" fill="#1A73E8"/>
</svg>
