<svg width="60" height="60" viewBox="0 0 60 60" fill="none" xmlns="http://www.w3.org/2000/svg">
<path fill-rule="evenodd" clip-rule="evenodd" d="M22.084 34.4876C22.1727 34.0143 22.6638 33.4167 23.1366 33.2066C23.4098 33.0853 24.1166 33.0543 26.1317 33.0756C28.7066 33.1028 28.7785 33.1102 29.1639 33.3849C29.3808 33.5397 29.6567 33.8825 29.7767 34.1467C29.96 34.5506 29.9953 34.9277 29.9974 36.5131C29.9998 38.2634 29.9804 38.4362 29.7275 38.9156C29.5576 39.2376 29.2817 39.5307 28.9948 39.6939C28.5586 39.942 28.4046 39.9557 26.0322 39.9576C23.2247 39.9597 22.9703 39.9039 22.4033 39.1615C22.0941 38.7567 22.0867 38.7074 22.05 36.8083C22.0294 35.7415 22.0446 34.6972 22.084 34.4876ZM28.0072 37.9672V36.5022V35.0373H26.0145H24.0217V36.5022V37.9672H26.0145H28.0072Z" fill="#1A73E8"/>
<path fill-rule="evenodd" clip-rule="evenodd" d="M3.77167 0.17676C2.87727 0.417598 2.25669 0.766607 1.57223 1.41376C0.854131 2.09268 0.416893 2.85211 0.154667 3.87523C-0.31809 5.72001 0.449832 7.82286 2.01768 8.97677C3.02133 9.71545 3.91246 9.95735 5.63011 9.95735H7.02447V28.4597V46.962L6.65698 47.0354C6.07544 47.1517 5.51301 47.5622 5.2625 48.0532C5.05701 48.4558 5.03169 48.7484 5.03169 50.7224V52.9393L3.65433 52.9931C2.78478 53.0271 2.12259 53.1133 1.85814 53.2272C1.26968 53.4809 0.607965 54.092 0.310924 54.6565C0.102268 55.0529 0.0503391 55.3868 0.0125935 56.5766C-0.0126092 57.3687 0.001223 58.2006 0.0433057 58.425C0.137083 58.9245 0.734213 59.628 1.24565 59.8417C1.56051 59.9732 6.43308 60 30 60C53.5669 60 58.4395 59.9732 58.7544 59.8417C59.2658 59.628 59.8629 58.9245 59.9567 58.425C59.9988 58.2006 60.0126 57.3687 59.9874 56.5766C59.9497 55.3868 59.8977 55.0529 59.6891 54.6565C59.392 54.092 58.7303 53.4809 58.1419 53.2272C57.8774 53.1133 57.2152 53.0271 56.3457 52.9931L54.9683 52.9393V50.7224C54.9683 48.7484 54.943 48.4558 54.7375 48.0532C54.487 47.5622 53.9246 47.1517 53.343 47.0354L52.9755 46.962V28.4597V9.95735H54.3699C55.4289 9.95735 55.9451 9.90144 56.5165 9.72506C57.3535 9.46653 58.4068 8.77085 58.8588 8.17784C59.3752 7.50057 59.769 6.59452 59.9136 5.75189C60.0198 5.13286 60.0213 4.7624 59.9201 4.21814C59.8466 3.82354 59.6549 3.21295 59.4938 2.86125C59.1319 2.071 58.2049 1.07319 57.4518 0.663475C56.1457 -0.0472015 57.9051 -0.00501095 29.9461 0.00342716C8.30782 0.00999013 4.29261 0.0364764 3.77167 0.17676ZM57.7197 3.72991C57.4438 3.18284 56.8721 2.60037 56.3164 2.3L55.8475 2.04662L30.1758 2.02681C16.0564 2.01603 4.37197 2.04756 4.21043 2.09701C3.40277 2.34406 2.66404 2.96895 2.28026 3.72991C2.17089 3.9466 2.05273 4.40261 2.01756 4.74318C1.89436 5.93612 2.55479 7.11687 3.65058 7.66277L4.25721 7.96501H30H55.7428L56.3494 7.66277C57.4452 7.11687 58.1056 5.93612 57.9824 4.74318C57.9473 4.40261 57.8291 3.9466 57.7197 3.72991ZM11.01 46.9913V28.4743V9.95735H10.0136H9.01724V28.4743V46.9913H10.0136H11.01ZM46.9972 46.9635V28.4604V9.95735H30H13.0028V28.4604V46.9635L13.502 47.0891C14.0496 47.2269 14.6698 47.7834 14.8712 48.3173C14.9425 48.5064 14.9956 49.5696 14.9956 50.8077V52.9682H16.5195H18.0433V42.2291C18.0433 34.337 18.0799 31.368 18.1812 31.03C18.3622 30.4261 19.0911 29.6102 19.7228 29.3045C20.2131 29.0672 20.39 29.0603 25.9718 29.0603H31.7162L32.3519 29.3826C33.0602 29.7418 33.6714 30.454 33.8629 31.1434C33.9296 31.3836 33.9845 32.5689 33.9848 33.7774L33.9856 35.9748H34.6089C34.9519 35.9748 35.5189 36.0589 35.8691 36.1616C36.353 36.3037 36.6472 36.4935 37.0944 36.9527C37.4542 37.322 37.739 37.7445 37.827 38.0394C37.9262 38.3713 37.9711 39.5522 37.9711 41.8248C37.9711 45.4717 38.008 45.6866 38.6742 45.9188C39.0838 46.0617 39.3251 46.0018 39.7001 45.6642L39.9639 45.4268V38.064C39.9639 31.0523 39.9536 30.6907 39.7467 30.4839C39.6272 30.3644 38.5516 29.6792 37.3565 28.9611C36.1613 28.2431 35.1513 27.5718 35.1121 27.4693C35.0727 27.3669 35.0406 27.1269 35.0406 26.9359C35.0406 26.4824 35.5049 26.0132 35.9535 26.0132C36.3674 26.0132 40.524 28.4561 41.1143 29.0463C41.3347 29.2665 41.6131 29.663 41.7332 29.9274C41.9388 30.38 41.9516 30.847 41.9541 37.9536C41.956 43.4505 41.9188 45.6253 41.8173 45.9641C41.6316 46.5839 40.787 47.5039 40.1813 47.7461C39.9131 47.8535 39.3937 47.9426 39.0269 47.9444C37.8599 47.95 36.9547 47.4174 36.3856 46.39L36.0369 45.7607L36 42.1609L35.9631 38.5612L35.61 38.2641C35.3272 38.0262 35.1307 37.9672 34.6213 37.9672H33.9856V45.4677V52.9682H39.495H45.0044V50.8077C45.0044 49.5696 45.0575 48.5064 45.1288 48.3173C45.3302 47.7834 45.9504 47.2269 46.498 47.0891L46.9972 46.9635ZM50.9828 46.9913V28.4743V9.95735H49.9864H48.99V28.4743V46.9913H49.9864H50.9828ZM31.9928 31.6517L31.7099 31.3229L31.4272 30.994L26.2298 30.976C23.3713 30.9661 20.927 30.9845 20.7981 31.017C20.6691 31.0494 20.445 31.1854 20.2999 31.3191L20.0361 31.5623V39.8041V48.046H26.0145H31.9928V39.8489V31.6517ZM13.0028 52.9682V50.9759V48.9836H10.0136H7.02447V50.9759V52.9682H10.0136H13.0028ZM52.9755 52.9682V50.9759V48.9836H49.9864H46.9972V50.9759V52.9682H49.9864H52.9755ZM31.9928 52.9682V51.5033V50.0383H26.0145H20.0361V51.5033V52.9682H26.0145H31.9928ZM58.0161 56.8423C58.0161 55.7792 57.9912 55.6479 57.7332 55.348L57.4503 55.0192L30.1567 54.9969C14.9359 54.9845 2.75196 55.0196 2.61188 55.0764C2.10993 55.2797 1.98392 55.6378 1.98392 56.8618V58.0077H30H58.0161V56.8423Z" fill="#1A73E8"/>
<path d="M56.3164 2.3C56.8721 2.60037 57.4438 3.18284 57.7197 3.72991C57.8291 3.9466 57.9473 4.40261 57.9824 4.74318C58.1056 5.93612 57.4452 7.11687 56.3494 7.66277L55.7428 7.96501H30H4.25721L3.65058 7.66277C2.55479 7.11687 1.89436 5.93612 2.01756 4.74318C2.05273 4.40261 2.17089 3.9466 2.28026 3.72991C2.66404 2.96895 3.40277 2.34406 4.21043 2.09701C4.37197 2.04756 16.0564 2.01603 30.1758 2.02681L55.8475 2.04662L56.3164 2.3Z" fill="#1A73E8"/>
<path fill-rule="evenodd" clip-rule="evenodd" d="M31.7099 31.3229L31.9928 31.6517V39.8489V48.046H26.0145H20.0361V39.8041V31.5623L20.2999 31.3191C20.445 31.1854 20.6691 31.0494 20.7981 31.017C20.927 30.9845 23.3713 30.9661 26.2298 30.976L31.4272 30.994L31.7099 31.3229ZM22.084 34.4876C22.1727 34.0143 22.6638 33.4167 23.1366 33.2066C23.4098 33.0853 24.1166 33.0543 26.1317 33.0756C28.7066 33.1028 28.7785 33.1102 29.1639 33.3849C29.3808 33.5397 29.6567 33.8825 29.7767 34.1467C29.96 34.5506 29.9953 34.9277 29.9974 36.5131C29.9998 38.2634 29.9804 38.4362 29.7275 38.9156C29.5576 39.2376 29.2817 39.5307 28.9948 39.6939C28.5586 39.942 28.4046 39.9557 26.0322 39.9576C23.2247 39.9597 22.9703 39.9039 22.4033 39.1615C22.0941 38.7567 22.0867 38.7074 22.05 36.8083C22.0294 35.7415 22.0446 34.6972 22.084 34.4876Z" fill="#1A73E8"/>
<path d="M57.7332 55.348C57.9912 55.6479 58.0161 55.7792 58.0161 56.8423V58.0077H30H1.98392V56.8618C1.98392 55.6378 2.10993 55.2797 2.61188 55.0764C2.75196 55.0196 14.9359 54.9845 30.1567 54.9969L57.4503 55.0192L57.7332 55.348Z" fill="#1A73E8"/>
<path fill-rule="evenodd" clip-rule="evenodd" d="M3.77167 0.17676C2.87727 0.417598 2.25669 0.766607 1.57223 1.41376C0.854131 2.09268 0.416893 2.85211 0.154667 3.87523C-0.31809 5.72001 0.449832 7.82286 2.01768 8.97677C3.02133 9.71545 3.91246 9.95735 5.63011 9.95735H7.02447V28.4597V46.962L6.65698 47.0354C6.07544 47.1517 5.51301 47.5622 5.2625 48.0532C5.05701 48.4559 5.03169 48.7484 5.03169 50.7224V52.9393L3.65433 52.9931C2.78478 53.0271 2.12259 53.1133 1.85814 53.2272C1.26968 53.4809 0.607965 54.092 0.310924 54.6565C0.102268 55.0529 0.0503391 55.3868 0.0125935 56.5766C-0.0126092 57.3687 0.001223 58.2006 0.0433057 58.425C0.137083 58.9245 0.734213 59.628 1.24565 59.8417C1.56051 59.9732 6.43308 60 30 60C53.5669 60 58.4395 59.9732 58.7544 59.8417C59.2658 59.628 59.8629 58.9245 59.9567 58.425C59.9988 58.2006 60.0126 57.3687 59.9874 56.5766C59.9497 55.3868 59.8977 55.0529 59.6891 54.6565C59.392 54.092 58.7303 53.4809 58.1419 53.2272C57.8774 53.1133 57.2152 53.0271 56.3457 52.9931L54.9683 52.9393V50.7224C54.9683 48.7484 54.943 48.4559 54.7375 48.0532C54.487 47.5622 53.9246 47.1517 53.343 47.0354L52.9755 46.962V28.4597V9.95735H54.3699C55.4289 9.95735 55.9451 9.90144 56.5165 9.72506C57.3535 9.46653 58.4068 8.77085 58.8588 8.17784C59.3752 7.50057 59.769 6.59453 59.9136 5.75189C60.0198 5.13286 60.0213 4.7624 59.9201 4.21814C59.8466 3.82354 59.6549 3.21295 59.4938 2.86125C59.1319 2.071 58.2049 1.07319 57.4518 0.663475C56.1457 -0.0472015 57.9051 -0.00501095 29.9461 0.00342716C8.30782 0.00999013 4.29261 0.0364764 3.77167 0.17676ZM56.3164 2.3C56.8721 2.60037 57.4438 3.18284 57.7197 3.72991C57.8291 3.9466 57.9473 4.40261 57.9824 4.74318C58.1056 5.93612 57.4452 7.11687 56.3494 7.66277L55.7428 7.96501H30H4.25721L3.65058 7.66277C2.55479 7.11687 1.89436 5.93612 2.01756 4.74318C2.05273 4.40261 2.17089 3.9466 2.28026 3.72991C2.66404 2.96895 3.40277 2.34406 4.21043 2.09701C4.37197 2.04756 16.0564 2.01603 30.1758 2.02681L55.8475 2.04662L56.3164 2.3ZM11.01 28.4743V46.9913H10.0136H9.01724V28.4743V9.95735H10.0136H11.01V28.4743ZM46.9972 28.4604V46.9635L46.498 47.0891C45.9504 47.2269 45.3302 47.7834 45.1288 48.3173C45.0575 48.5064 45.0044 49.5696 45.0044 50.8077V52.9682H39.495H33.9856V45.4677V37.9672H34.6213C35.1307 37.9672 35.3272 38.0262 35.61 38.2641L35.9631 38.5612L36 42.1609L36.0369 45.7607L36.3856 46.39C36.9547 47.4174 37.8599 47.95 39.0269 47.9444C39.3937 47.9426 39.9131 47.8535 40.1813 47.7461C40.787 47.5039 41.6316 46.5839 41.8173 45.9641C41.9188 45.6253 41.956 43.4505 41.9541 37.9536C41.9516 30.847 41.9388 30.38 41.7332 29.9274C41.6131 29.663 41.3347 29.2665 41.1143 29.0463C40.524 28.4561 36.3674 26.0132 35.9535 26.0132C35.5049 26.0132 35.0406 26.4824 35.0406 26.9359C35.0406 27.1269 35.0727 27.3669 35.1121 27.4693C35.1513 27.5718 36.1613 28.2431 37.3565 28.9611C38.5516 29.6792 39.6272 30.3644 39.7467 30.4839C39.9536 30.6907 39.9639 31.0523 39.9639 38.064V45.4268L39.7001 45.6642C39.3251 46.0018 39.0838 46.0617 38.6742 45.9188C38.008 45.6866 37.9711 45.4717 37.9711 41.8248C37.9711 39.5522 37.9262 38.3713 37.827 38.0394C37.739 37.7445 37.4542 37.322 37.0944 36.9527C36.6472 36.4935 36.353 36.3037 35.8691 36.1616C35.5189 36.0589 34.9519 35.9748 34.6089 35.9748H33.9856L33.9848 33.7774C33.9845 32.5689 33.9296 31.3836 33.8629 31.1434C33.6714 30.454 33.0602 29.7418 32.3519 29.3826L31.7162 29.0603H25.9718C20.39 29.0603 20.2131 29.0672 19.7228 29.3045C19.0911 29.6102 18.3622 30.4261 18.1812 31.03C18.0799 31.368 18.0433 34.337 18.0433 42.2291V52.9682H16.5195H14.9956V50.8077C14.9956 49.5696 14.9425 48.5064 14.8712 48.3173C14.6698 47.7834 14.0496 47.2269 13.502 47.0891L13.0028 46.9635V28.4604V9.95735H30H46.9972V28.4604ZM50.9828 28.4743V46.9913H49.9864H48.99V28.4743V9.95735H49.9864H50.9828V28.4743ZM31.7099 31.3229L31.9928 31.6517V39.8489V48.046H26.0145H20.0361V39.8041V31.5623L20.2999 31.3191C20.445 31.1854 20.6691 31.0494 20.7981 31.017C20.927 30.9845 23.3713 30.9661 26.2298 30.976L31.4272 30.994L31.7099 31.3229ZM23.1366 33.2066C22.6638 33.4167 22.1727 34.0143 22.084 34.4876C22.0446 34.6972 22.0294 35.7415 22.05 36.8083C22.0867 38.7074 22.0941 38.7567 22.4033 39.1615C22.9703 39.9039 23.2247 39.9597 26.0322 39.9576C28.4046 39.9557 28.5586 39.942 28.9948 39.6939C29.2817 39.5307 29.5576 39.2376 29.7275 38.9156C29.9804 38.4362 29.9998 38.2634 29.9974 36.5131C29.9953 34.9277 29.96 34.5506 29.7767 34.1467C29.6567 33.8825 29.3808 33.5397 29.1639 33.3849C28.7785 33.1102 28.7066 33.1028 26.1317 33.0756C24.1166 33.0543 23.4098 33.0853 23.1366 33.2066ZM28.0072 36.5022V37.9672H26.0145H24.0217V36.5022V35.0373H26.0145H28.0072V36.5022ZM13.0028 50.9759V52.9682H10.0136H7.02447V50.9759V48.9836H10.0136H13.0028V50.9759ZM52.9755 50.9759V52.9682H49.9864H46.9972V50.9759V48.9836H49.9864H52.9755V50.9759ZM31.9928 51.5033V52.9682H26.0145H20.0361V51.5033V50.0383H26.0145H31.9928V51.5033ZM57.7332 55.348C57.9912 55.6479 58.0161 55.7792 58.0161 56.8423V58.0077H30H1.98392V56.8618C1.98392 55.6379 2.10993 55.2797 2.61188 55.0764C2.75196 55.0196 14.9359 54.9845 30.1567 54.9969L57.4503 55.0192L57.7332 55.348Z" fill="black"/>
</svg>
