<svg width="60" height="60" viewBox="0 0 60 60" fill="none" xmlns="http://www.w3.org/2000/svg">
<path d="M10 54.75V5.25C10 5.11193 10.1119 5 10.25 5H39.75C39.8881 5 40 5.11193 40 5.25V39.75C40 39.8881 39.8881 40 39.75 40H25.25C25.1119 40 25 40.1119 25 40.25V47.25C25 47.3881 25.1119 47.5 25.25 47.5H39.75C39.8881 47.5 40 47.6119 40 47.75V54.75C40 54.8881 39.8881 55 39.75 55H10.25C10.1119 55 10 54.8881 10 54.75Z" stroke="black" stroke-width="2.5"/>
<path d="M25.25 40C25.1119 40 25 40.1119 25 40.25V47.25C25 47.3881 25.1119 47.5 25.25 47.5H52.25C52.3881 47.5 52.5 47.3881 52.5 47.25V40.25C52.5 40.1119 52.3881 40 52.25 40H25.25Z" fill="#1A73E8"/>
<path d="M15.25 10C15.1119 10 15 10.1119 15 10.25V17.25C15 17.3881 15.1119 17.5 15.25 17.5H34.75C34.8881 17.5 35 17.3881 35 17.25V10.25C35 10.1119 34.8881 10 34.75 10H15.25Z" fill="#1A73E8"/>
<path d="M25 47.25V40.25C25 40.1119 25.1119 40 25.25 40H52.25C52.3881 40 52.5 40.1119 52.5 40.25V47.25C52.5 47.3881 52.3881 47.5 52.25 47.5H25.25C25.1119 47.5 25 47.3881 25 47.25Z" stroke="black" stroke-width="2.5"/>
<path d="M15 17.25V10.25C15 10.1119 15.1119 10 15.25 10H34.75C34.8881 10 35 10.1119 35 10.25V17.25C35 17.3881 34.8881 17.5 34.75 17.5H15.25C15.1119 17.5 15 17.3881 15 17.25Z" stroke="black" stroke-width="2.5"/>
<circle cx="18.75" cy="23.75" r="1.25" fill="black"/>
<circle cx="18.75" cy="28.75" r="1.25" fill="black"/>
<circle cx="18.75" cy="33.75" r="1.25" fill="black"/>
<circle cx="25" cy="23.75" r="1.25" fill="black"/>
<circle cx="25" cy="28.75" r="1.25" fill="black"/>
<circle cx="25" cy="33.75" r="1.25" fill="black"/>
<circle cx="31.25" cy="23.75" r="1.25" fill="black"/>
<circle cx="31.25" cy="28.75" r="1.25" fill="black"/>
<circle cx="31.25" cy="33.75" r="1.25" fill="black"/>
<rect x="20" y="41.25" width="5" height="2.5" rx="0.25" transform="rotate(90 20 41.25)" fill="black"/>
</svg>
