<svg width="59" height="60" viewBox="0 0 59 60" fill="none" xmlns="http://www.w3.org/2000/svg">
<path fill-rule="evenodd" clip-rule="evenodd" d="M53.0038 49.9737H48.0064V41.9742C54.2747 37.6768 58.0011 30.6279 58.0011 23.0038C58.0011 10.3194 47.6817 0 34.9973 0C22.313 0 11.9939 10.3194 11.9939 23.0038C11.9939 30.628 15.7204 37.6768 21.9885 41.9742V45.9957C20.3505 45.8224 16.8895 45.0839 13.6509 41.9859C11.4257 39.8575 9.65684 36.9686 8.39402 33.3998C6.89894 29.1751 6.1077 23.9688 6.03562 17.9171C8.31129 17.4437 10.0264 15.423 10.0264 13.009C10.0264 10.2448 7.77762 7.99582 5.01328 7.99582C2.24894 7.99582 0 10.2446 0 13.0089C0 15.4277 1.72195 17.4519 4.0043 17.9201C4.13965 29.7964 6.92637 38.4004 12.2952 43.4991C16.0951 47.1078 20.117 47.8835 21.9884 48.0411V49.9737H16.9911V57.9694H12.0095V60H57.9853V57.9694H53.0037L53.0038 49.9737ZM34.9973 2.03062C23.4329 2.03062 14.0244 11.4391 14.0244 23.0038C14.0244 30.1242 17.5889 36.6964 23.5583 40.5837C26.9623 42.8037 30.9177 43.977 34.9973 43.977C39.0771 43.977 43.0327 42.8036 46.4366 40.5837C52.4067 36.6961 55.9705 30.1243 55.9705 23.0038C55.9705 11.4391 46.562 2.03062 34.9973 2.03062Z" fill="#1A73E8"/>
<path d="M53.0038 49.9737H48.0064V41.9742C54.2747 37.6768 58.0011 30.6279 58.0011 23.0038C58.0011 10.3194 47.6817 0 34.9973 0C22.313 0 11.9939 10.3194 11.9939 23.0038C11.9939 30.628 15.7204 37.6768 21.9885 41.9742V45.9957C20.3505 45.8224 16.8895 45.0839 13.6509 41.9859C11.4257 39.8575 9.65684 36.9686 8.39402 33.3998C6.89894 29.1751 6.1077 23.9688 6.03562 17.9171C8.31129 17.4437 10.0264 15.423 10.0264 13.009C10.0264 10.2448 7.77762 7.99582 5.01328 7.99582C2.24894 7.99582 0 10.2446 0 13.0089C0 15.4277 1.72195 17.4519 4.0043 17.9201C4.13965 29.7964 6.92637 38.4003 12.2952 43.4991C16.0951 47.1078 20.117 47.8835 21.9884 48.0411V49.9737H16.9911V57.9694H12.0095V60H57.9853V57.9694H53.0037V49.9737H53.0038ZM2.03062 13.009C2.03062 11.3645 3.36867 10.0264 5.01316 10.0264C6.65766 10.0264 7.9957 11.3645 7.9957 13.009C7.9957 14.6535 6.65766 15.9915 5.01316 15.9915C3.36867 15.9915 2.03062 14.6536 2.03062 13.009ZM14.0244 23.0038C14.0244 11.4391 23.4329 2.03062 34.9973 2.03062C46.562 2.03062 55.9705 11.4391 55.9705 23.0038C55.9705 30.1243 52.4067 36.6961 46.4366 40.5837C43.0327 42.8036 39.0771 43.977 34.9973 43.977C30.9177 43.977 26.9623 42.8037 23.5583 40.5837L23.5577 40.5833C17.5883 36.6961 14.0244 30.1242 14.0244 23.0038ZM45.9759 43.2191V49.9737H24.0191V43.2191C27.3772 45.0468 31.1365 46.0076 34.9975 46.0076C38.8586 46.0073 42.6182 45.0466 45.9759 43.2191ZM50.9732 57.9694H19.0218V52.0043H50.9732V57.9694Z" fill="black"/>
<path d="M43.9932 53.9721H26.0021V56.0027H43.9932V53.9721Z" fill="#1A73E8"/>
<path d="M47.9905 53.9721H45.9914V56.0027H47.9905V53.9721Z" fill="#1A73E8"/>
<path d="M24.0035 53.9721H22.0046V56.0027H24.0035V53.9721Z" fill="#1A73E8"/>
<path d="M34.9975 14.9921C30.5799 14.9921 26.986 18.5861 26.986 23.0037C26.986 27.4213 30.5799 31.0153 34.9975 31.0153C39.4151 31.0153 43.0091 27.4213 43.0091 23.0037C43.0092 18.5861 39.4151 14.9921 34.9975 14.9921ZM34.9974 28.9848C31.6996 28.9848 29.0165 26.3017 29.0165 23.0037C29.0165 19.7057 31.6995 17.0227 34.9974 17.0227C38.2955 17.0227 40.9785 19.7058 40.9785 23.0038C40.9785 26.3017 38.2955 28.9848 34.9974 28.9848Z" fill="#1A73E8"/>
<path d="M36.9804 23.0037C36.9804 24.0973 36.0908 24.9868 34.9973 24.9868C33.9038 24.9868 33.0144 24.0971 33.0144 23.0037C33.0144 21.9101 33.904 21.0207 34.9973 21.0207V18.9901C32.7841 18.9901 30.9838 20.7905 30.9838 23.0037C30.9838 25.2169 32.7842 27.0174 34.9973 27.0174C37.2104 27.0174 39.011 25.2168 39.011 23.0037H36.9804Z" fill="#1A73E8"/>
<path d="M18.99 23.0038H21.0206C21.0206 15.297 27.2907 9.02696 34.9975 9.02696V6.99634C26.1709 6.99634 18.99 14.1772 18.99 23.0038Z" fill="#1A73E8"/>
<path d="M48.9742 23.0037C48.9742 30.7106 42.7042 36.9806 34.9975 36.9806V39.0112C43.8239 39.0112 51.0048 31.8303 51.0048 23.0038H48.9742V23.0037Z" fill="#1A73E8"/>
<path d="M21.0051 24.9873H19.006V27.0179H21.0051V24.9873Z" fill="#1A73E8"/>
<path d="M50.9891 18.9902H48.99V21.0209H50.9891V18.9902Z" fill="#1A73E8"/>
<path d="M6.01253 11.9941H4.01343V14.0248H6.01253V11.9941Z" fill="#1A73E8"/>
</svg>
