<svg width="60" height="60" viewBox="0 0 60 60" fill="none" xmlns="http://www.w3.org/2000/svg">
<g clip-path="url(#clip0_133_681)">
<path d="M47.6403 31.1234C47.641 31.7177 47.5245 32.3064 47.2975 32.8557C47.0705 33.405 46.7374 33.9041 46.3174 34.3246C45.8973 34.7451 45.3985 35.0787 44.8495 35.3063C44.3004 35.5339 43.7119 35.651 43.1176 35.651H41.5044V22.0778H43.1176C44.3171 22.0778 45.4675 22.5543 46.3156 23.4025C47.1638 24.2507 47.6403 25.4011 47.6403 26.6006V31.1234Z" fill="white" stroke="black" stroke-width="2" stroke-linecap="round" stroke-linejoin="round"/>
<path d="M19.5484 35.8898H14.3433V42.4352H17.5307C17.796 42.4352 18.0588 42.3829 18.3039 42.2812C18.549 42.1794 18.7717 42.0304 18.9591 41.8425C19.1465 41.6546 19.2951 41.4316 19.3962 41.1863C19.4973 40.9409 19.549 40.678 19.5484 40.4126V35.8898Z" fill="white" stroke="black" stroke-width="2" stroke-linecap="round" stroke-linejoin="round"/>
<path d="M0.731055 30.4459C0.730412 30.6899 0.777998 30.9317 0.871087 31.1573C0.964176 31.3828 1.10093 31.5878 1.27349 31.7603C1.44604 31.9329 1.65099 32.0697 1.87657 32.1627C2.10215 32.2558 2.3439 32.3034 2.58793 32.3028H3.78199V25.2505H2.58793C2.09546 25.2505 1.62314 25.4462 1.27491 25.7944C0.926681 26.1426 0.731055 26.6149 0.731055 27.1074V30.4459Z" fill="white" stroke="black" stroke-width="2" stroke-linecap="round" stroke-linejoin="round"/>
<path d="M15.937 47.0798C15.9331 47.7503 15.6637 48.3919 15.1878 48.8641C14.7119 49.3364 14.0682 49.6008 13.3978 49.5995H11.3557C11.0235 49.5982 10.6949 49.5315 10.3885 49.4033C10.0821 49.275 9.80395 49.0876 9.56997 48.8518C9.336 48.616 9.15075 48.3364 9.02482 48.029C8.89889 47.7217 8.83473 47.3925 8.83602 47.0603L8.90912 28.36H16.0101L15.937 47.0798Z" stroke="black" stroke-width="2" stroke-linecap="round" stroke-linejoin="round"/>
<path d="M38.97 12.0234L22.3069 20.1137C21.5472 20.4824 20.7144 20.6756 19.87 20.679H7.6322C6.60234 20.679 5.6143 21.0865 4.8838 21.8124C4.1533 22.5383 3.73968 23.5238 3.73325 24.5536V33.1167C3.73323 33.6271 3.83431 34.1325 4.03067 34.6036C4.22702 35.0748 4.51475 35.5024 4.87726 35.8617C5.23976 36.221 5.66986 36.505 6.14271 36.6972C6.61556 36.8894 7.1218 36.9861 7.6322 36.9815L19.8554 36.9474C20.6996 36.9474 21.5329 37.139 22.2923 37.5079L38.9505 45.5982L38.97 12.0234Z" stroke="black" stroke-width="2" stroke-linecap="round" stroke-linejoin="round"/>
<path d="M19.7726 20.679H7.6322C6.60234 20.679 5.6143 21.0864 4.8838 21.8124C4.1533 22.5383 3.73968 23.5238 3.73325 24.5536V33.1167C3.73323 33.6271 3.83431 34.1325 4.03067 34.6036C4.22702 35.0748 4.51475 35.5023 4.87726 35.8617C5.23976 36.221 5.66986 36.505 6.14271 36.6972C6.61556 36.8894 7.1218 36.986 7.6322 36.9815L19.7726 36.9474V20.679Z" fill="#1A73E8" stroke="black" stroke-width="2" stroke-linecap="round" stroke-linejoin="round"/>
<path d="M40.5345 10.4053H42.2598C42.6864 10.4092 43.0942 10.5814 43.3945 10.8844C43.6948 11.1874 43.8632 11.5968 43.8632 12.0234V45.6762C43.8632 45.8881 43.8215 46.0979 43.7404 46.2936C43.6594 46.4893 43.5405 46.6671 43.3907 46.8169C43.2409 46.9667 43.0631 47.0856 42.8674 47.1666C42.6716 47.2477 42.4619 47.2894 42.25 47.2894H40.5345C40.3226 47.2894 40.1129 47.2477 39.9171 47.1666C39.7214 47.0856 39.5436 46.9667 39.3938 46.8169C39.244 46.6671 39.1252 46.4893 39.0441 46.2936C38.963 46.0979 38.9213 45.8881 38.9213 45.6762V12.0234C38.9213 11.5951 39.0911 11.1843 39.3935 10.881C39.6959 10.5777 40.1062 10.4066 40.5345 10.4053Z" fill="#1A73E8" stroke="black" stroke-width="2" stroke-linecap="round" stroke-linejoin="round"/>
<path d="M51.3053 28.5891H59.2689" stroke="black" stroke-width="2" stroke-linecap="round" stroke-linejoin="round"/>
<path d="M50.4817 32.9413L56.1108 38.5753" stroke="black" stroke-width="2" stroke-linecap="round" stroke-linejoin="round"/>
<path d="M50.4817 24.2368L56.1108 18.6077" stroke="black" stroke-width="2" stroke-linecap="round" stroke-linejoin="round"/>
</g>
<defs>
<clipPath id="clip0_133_681">
<rect width="60" height="40.6515" fill="white" transform="translate(0 9.67426)"/>
</clipPath>
</defs>
</svg>
