<svg width="60" height="60" viewBox="0 0 60 60" fill="none" xmlns="http://www.w3.org/2000/svg">
<path d="M59.6572 0.343325C59.4393 0.125428 59.1367 0 58.8286 0C58.5205 0 58.218 0.125428 58.0001 0.343325C57.7822 0.561222 57.6567 0.863807 57.6567 1.17188C57.6567 1.47996 57.7822 1.78255 58.0001 2.00044C58.218 2.21834 58.5205 2.34377 58.8286 2.34377C59.1367 2.34377 59.4393 2.21834 59.6572 2.00044C59.8751 1.78255 60.0005 1.47996 60.0005 1.17188C60.0005 0.863807 59.8751 0.561222 59.6572 0.343325Z" fill="black"/>
<path d="M54.141 0H1.17188C0.524601 0 0 0.524601 0 1.17188C0 1.81917 0.524601 2.34377 1.17188 2.34377H25.0783V5.85942C25.0783 6.5067 25.6029 7.0313 26.2502 7.0313H33.7503C34.3975 7.0313 34.9221 6.5067 34.9221 5.85942V2.34377H54.141C54.7883 2.34377 55.3129 1.81917 55.3129 1.17188C55.3129 0.524601 54.7883 0 54.141 0ZM32.5784 4.68754H27.4221V2.34377H32.5784V4.68754Z" fill="black"/>
<path d="M18.3995 49.535C18.1537 48.9367 17.4693 48.6505 16.8706 48.8959C16.2718 49.1417 15.9852 49.8266 16.2311 50.4249L16.2475 50.4642C16.4334 50.9174 16.8706 51.1916 17.332 51.1916C17.4803 51.1916 17.6309 51.1632 17.7765 51.1033C18.3752 50.8579 18.6613 50.1731 18.4155 49.5743L18.3995 49.535Z" fill="black"/>
<path d="M38.3389 27.692C37.8551 27.9282 37.5946 28.4638 37.7072 28.9902C38.1077 30.8616 38.0322 32.733 37.4847 34.5732C37.4554 34.3136 37.4188 34.0495 37.3739 33.7803C36.8187 30.4826 34.821 25.877 28.458 22.6648C28.0332 22.4501 27.5196 22.5142 27.1602 22.8273C26.8009 23.14 26.6668 23.6394 26.821 24.0903C28.805 29.8916 26.821 31.6641 25.5086 32.8373C24.4352 33.7963 23.6849 34.8254 23.1612 35.8188C22.2901 33.8449 20.7726 31.7533 18.1294 30.4698C17.766 30.2931 17.3375 30.3159 16.9955 30.5302C16.6531 30.7444 16.4458 31.1198 16.4458 31.5235C16.4458 36.4198 16.0443 38.0362 15.6909 39.4626C15.3828 40.7045 15.0917 41.8773 15.0917 44.6015C15.0917 44.8551 15.0981 45.1101 15.11 45.3595C15.1416 46.0059 15.6895 46.5021 16.3377 46.4728C16.9841 46.4417 17.4826 45.8919 17.451 45.2456C17.4409 45.0336 17.4354 44.8171 17.4354 44.601C17.4354 42.1639 17.6813 41.1733 17.9655 40.027C18.2928 38.7077 18.6568 37.2392 18.7607 33.6668C21.4647 36.0055 21.9087 39.7047 21.9797 40.6738C21.9843 40.8711 21.9962 40.992 21.9989 41.0195C22.0635 41.6425 22.6036 42.1034 23.2317 42.0687C23.857 42.0325 24.3436 41.5111 24.3363 40.8849C24.3358 40.8492 24.3335 40.7178 24.3193 40.509C24.3129 39.6471 24.5079 36.8744 27.0701 34.5846C29.0064 32.8547 30.6104 30.6162 29.8029 26.1883C32.7235 28.2477 34.4832 30.8904 35.0457 34.0724C35.5781 37.084 34.799 39.501 34.7921 39.5216C34.6164 40.044 34.8278 40.618 35.3007 40.9009C35.7731 41.1838 36.3792 41.1 36.7564 40.6986C36.9098 40.5356 39.7626 37.4406 40.2377 32.6959C42.4121 36.3218 43.546 40.3749 43.546 44.601C43.546 49.4282 40.9125 53.6515 37.0068 55.9106C37.4692 54.958 37.7287 53.89 37.7287 52.7621C37.7287 51.782 37.5355 50.8299 37.1542 49.9331C37.1519 49.9276 37.1496 49.9217 37.1469 49.9162C36.9684 49.4987 36.7477 49.0949 36.4914 48.7159C36.2744 48.3433 36.0483 47.9702 35.8285 47.6086C34.5518 45.5056 33.3465 43.5189 33.8185 41.4859C33.9169 41.0625 33.7722 40.6189 33.4436 40.3346C33.1144 40.0499 32.6548 39.9712 32.2497 40.1296C30.431 40.8414 28.9817 42.4156 28.2035 44.0256C27.0408 43.0442 25.8483 42.9 25.7714 42.8922C25.3566 42.8469 24.9479 43.0226 24.7007 43.3586C24.453 43.6942 24.4013 44.1332 24.5675 44.5159C24.6036 44.6024 25.4354 46.6514 24.3546 48.9246C24.2081 49.1586 24.0758 49.3989 23.96 49.6406C23.9476 49.6648 23.9357 49.69 23.9248 49.7152C23.4789 50.6747 23.2527 51.6992 23.2527 52.7621C23.2527 53.8905 23.5128 54.9589 23.9751 55.912C22.7639 55.2144 21.6597 54.3208 20.714 53.2528C20.2846 52.7685 19.5439 52.7236 19.0596 53.1526C18.5748 53.582 18.53 54.3226 18.9593 54.8069C21.8822 58.107 26.085 59.9999 30.4905 59.9999C38.9816 59.9999 45.8898 53.0921 45.8898 44.601C45.8898 38.5251 43.7671 32.7815 39.7511 27.9914C39.4055 27.5794 38.8228 27.4554 38.3389 27.692ZM30.4905 57.6565C27.792 57.6565 25.5965 55.4611 25.5965 52.7626C25.5965 52.0342 25.7535 51.3325 26.0625 50.6774C26.0634 50.6756 26.0644 50.6738 26.0648 50.6719C26.1513 50.4888 26.2534 50.3057 26.3679 50.1272C26.3921 50.0892 26.4141 50.0498 26.4342 50.0091C27.0623 48.7228 27.2513 47.4804 27.2459 46.4371C27.4166 46.6848 27.5754 46.9823 27.7073 47.3394C27.9247 47.929 28.5688 48.2421 29.1671 48.0485C29.7654 47.8553 30.1041 47.2245 29.9357 46.6189C29.802 46.14 30.3037 44.5983 31.4472 43.4314C31.7439 45.3966 32.8315 47.1883 33.8249 48.8248C34.046 49.1883 34.274 49.5646 34.4859 49.9294C34.5005 49.9542 34.5157 49.9789 34.5321 50.0027C34.7148 50.2696 34.8713 50.5543 34.9963 50.8482C34.9968 50.8495 34.9977 50.8514 34.9981 50.8528C35.2545 51.457 35.385 52.0997 35.385 52.7626C35.385 55.4611 33.1895 57.6565 30.4905 57.6565Z" fill="#1A73E8"/>
<path d="M15.0225 25.8409C14.5648 25.3832 13.8227 25.3832 13.365 25.8409L12.0077 27.1987C11.5499 27.656 11.5499 28.398 12.0077 28.8558C12.2361 29.0847 12.5364 29.1991 12.8363 29.1991C13.1361 29.1991 13.4359 29.0847 13.6648 28.8558L15.0225 27.4981C15.4803 27.0403 15.4803 26.2987 15.0225 25.8409Z" fill="black"/>
<path d="M7.90058 28.6631C8.12947 28.892 8.4293 29.0064 8.72914 29.0064C9.02898 29.0064 9.32882 28.892 9.5577 28.6631C10.0155 28.2058 10.0155 27.4638 9.5577 27.006L8.36018 25.8085C7.90241 25.3507 7.16083 25.3507 6.70306 25.8085C6.2453 26.2658 6.2453 27.0078 6.70261 27.4656L7.90058 28.6631Z" fill="black"/>
<path d="M7.93541 31.2711L6.67151 32.535C6.21374 32.9923 6.21374 33.7343 6.67151 34.1921C6.90039 34.421 7.20023 34.5354 7.50007 34.5354C7.79991 34.5354 8.09975 34.421 8.32863 34.1921L9.59252 32.9282C10.0503 32.4704 10.0503 31.7284 9.59252 31.2711C9.13476 30.8133 8.39317 30.8133 7.93541 31.2711Z" fill="black"/>
<path d="M46.635 25.8409C46.1777 25.3832 45.4361 25.3832 44.9779 25.8409C44.5201 26.2987 44.5201 27.0408 44.9779 27.4981L46.3356 28.8558C46.5645 29.0847 46.8644 29.1991 47.1642 29.1991C47.464 29.1991 47.7639 29.0847 47.9928 28.8558C48.4505 28.398 48.4505 27.656 47.9928 27.1987L46.635 25.8409Z" fill="black"/>
<path d="M51.2713 29.0064C51.5711 29.0064 51.8714 28.892 52.0999 28.6636L53.2974 27.4656C53.7552 27.0083 53.7552 26.2662 53.2974 25.8085C52.8401 25.3507 52.0976 25.3507 51.6403 25.8085L50.4428 27.006C49.985 27.4638 49.985 28.2058 50.4428 28.6636C50.6716 28.892 50.9715 29.0064 51.2713 29.0064Z" fill="black"/>
<path d="M52.0651 31.2711C51.6073 30.8133 50.8657 30.8133 50.4075 31.2711C49.9502 31.7284 49.9502 32.4704 50.4075 32.9282L51.6718 34.1921C51.9007 34.421 52.2006 34.5354 52.5004 34.5354C52.8002 34.5354 53.1001 34.421 53.329 34.1921C53.7867 33.7348 53.7867 32.9927 53.329 32.535L52.0651 31.2711Z" fill="black"/>
<path d="M22.1262 15.2157C21.6048 14.8326 20.871 14.9447 20.4878 15.4666L20.1408 15.9385C19.7577 16.4604 19.8698 17.1937 20.3917 17.5769C20.6004 17.7302 20.8435 17.8044 21.0848 17.8044C21.4446 17.8044 21.8003 17.6387 22.03 17.326L22.3766 16.8536C22.7597 16.3322 22.6476 15.5989 22.1262 15.2157Z" fill="black"/>
<path d="M24.5542 11.9102C24.0328 11.5271 23.299 11.6392 22.9158 12.1606L22.5688 12.633C22.1857 13.1549 22.2978 13.8882 22.8197 14.2714C23.0289 14.4247 23.2715 14.4989 23.5127 14.4989C23.873 14.4989 24.2282 14.3332 24.458 14.0205L24.8046 13.5481C25.1882 13.0267 25.0756 12.2929 24.5542 11.9102Z" fill="black"/>
<path d="M25.2477 10.9653C25.4564 11.1191 25.6995 11.1928 25.9403 11.1928C26.3005 11.1928 26.6562 11.0271 26.886 10.7145L27.2325 10.2425C27.6157 9.72066 27.5035 8.98731 26.9817 8.60416C26.4607 8.22101 25.7269 8.33316 25.3438 8.85502L24.9968 9.32743C24.6137 9.84883 24.7258 10.5822 25.2477 10.9653Z" fill="black"/>
<path d="M19.6982 18.5213C19.1768 18.1381 18.443 18.2507 18.0599 18.7721L17.7129 19.2445C17.3297 19.7659 17.4419 20.4997 17.9637 20.8824C18.1725 21.0362 18.4155 21.1099 18.6563 21.1099C19.0166 21.1099 19.3723 20.9447 19.6021 20.632L19.9486 20.1596C20.3318 19.6378 20.2196 18.9044 19.6982 18.5213Z" fill="black"/>
<path d="M34.6598 8.85904C34.2789 8.33581 33.5461 8.22046 33.0228 8.60086C32.4991 8.98172 32.3838 9.71461 32.7646 10.2383L33.1093 10.7121C33.3387 11.027 33.6957 11.1946 34.0578 11.1946C34.2968 11.1946 34.538 11.1213 34.7463 10.9703C35.2695 10.5894 35.3854 9.85652 35.0045 9.33283L34.6598 8.85904Z" fill="black"/>
<path d="M40.349 20.6618C40.5783 20.9772 40.9354 21.1442 41.2975 21.1442C41.5369 21.1442 41.7781 21.071 41.9864 20.9199C42.5097 20.5391 42.625 19.8062 42.2441 19.2825L41.8995 18.8087C41.5186 18.2855 40.7852 18.1701 40.262 18.551C39.7388 18.9318 39.6234 19.6647 40.0043 20.188L40.349 20.6618Z" fill="black"/>
<path d="M37.0732 12.1757C36.6923 11.6525 35.9594 11.5371 35.4362 11.9175C34.9125 12.2984 34.7972 13.0313 35.178 13.5549L35.5223 14.0287C35.7516 14.3437 36.1091 14.5112 36.4712 14.5112C36.7102 14.5112 36.9514 14.438 37.1597 14.2869C37.6829 13.9061 37.7988 13.1732 37.4179 12.6495L37.0732 12.1757Z" fill="black"/>
<path d="M39.4861 15.4922C39.1053 14.969 38.3724 14.8536 37.8487 15.2345C37.3255 15.6153 37.2101 16.3482 37.591 16.8714L37.9357 17.3452C38.165 17.6602 38.5221 17.8277 38.8842 17.8277C39.1236 17.8277 39.3648 17.7545 39.5731 17.6034C40.0963 17.2225 40.2117 16.4897 39.8308 15.966L39.4861 15.4922Z" fill="black"/>
<path d="M28.8284 18.7937C28.8284 19.4409 29.353 19.9655 30.0003 19.9655C30.6475 19.9655 31.1721 19.4409 31.1721 18.7937V18.2077C31.1721 17.5604 30.6475 17.0358 30.0003 17.0358C29.353 17.0358 28.8284 17.5604 28.8284 18.2077V18.7937Z" fill="black"/>
<path d="M30.0003 11.7622C30.6475 11.7622 31.1721 11.2376 31.1721 10.5903V10.0044C31.1721 9.35712 30.6475 8.83252 30.0003 8.83252C29.353 8.83252 28.8284 9.35712 28.8284 10.0044V10.5903C28.8284 11.2376 29.353 11.7622 30.0003 11.7622Z" fill="black"/>
<path d="M28.8284 14.6919C28.8284 15.3392 29.353 15.8638 30.0003 15.8638C30.6475 15.8638 31.1721 15.3392 31.1721 14.6919V14.106C31.1721 13.4587 30.6475 12.9341 30.0003 12.9341C29.353 12.9341 28.8284 13.4587 28.8284 14.106V14.6919Z" fill="black"/>
</svg>
