<svg width="124" height="153" viewBox="0 0 124 153" fill="none" xmlns="http://www.w3.org/2000/svg">
<path fill-rule="evenodd" clip-rule="evenodd" d="M21.4448 38.1398H25.5789V66.3035H35.9142V38.1398H40.0484V90.8498H35.9142V69.1457H25.5789V90.8498H21.4448V38.1398Z" fill="black"/>
<path d="M27.1294 70.4375H28.1629V90.8497H27.1294V70.4375Z" fill="black"/>
<path d="M27.1294 98.343H28.1629V108.678H27.1294V98.343Z" fill="black"/>
<path d="M32.0386 70.4375H33.0721V90.8497H32.0386V70.4375Z" fill="black"/>
<path d="M32.0386 98.343H33.0721V108.678H32.0386V98.343Z" fill="black"/>
<path d="M35.9146 26.5125H36.9481V35.5559H35.9146V26.5125Z" fill="black"/>
<path d="M21.4448 26.5125H22.4784V35.5559H21.4448V26.5125Z" fill="black"/>
<path d="M22.9966 26.5125H24.0301V35.5559H22.9966V26.5125Z" fill="black"/>
<path d="M28.4219 70.4375H29.4554V90.8497H28.4219V70.4375Z" fill="black"/>
<path d="M28.4219 98.343H29.4554V108.678H28.4219V98.343Z" fill="black"/>
<path d="M33.3315 70.4375H34.3651V90.8497H33.3315V70.4375Z" fill="black"/>
<path d="M33.3315 98.343H34.3651V108.678H33.3315V98.343Z" fill="black"/>
<path d="M37.4663 26.5125H38.4998V35.5559H37.4663V26.5125Z" fill="black"/>
<path d="M22.9966 20.5696H24.0301V24.7037H22.9966V20.5696Z" fill="black"/>
<path d="M37.4663 20.5696H38.4998V24.7037H37.4663V20.5696Z" fill="black"/>
<path d="M39.0161 26.5125H40.0496V35.5559H39.0161V26.5125Z" fill="black"/>
<path d="M24.5459 26.5125H25.5794V35.5559H24.5459V26.5125Z" fill="black"/>
<path fill-rule="evenodd" clip-rule="evenodd" d="M35.6417 24.7037H36.6899V20.5696H32.8431C34.4002 21.3373 35.5034 22.8857 35.6417 24.7037ZM28.3926 20.5696H24.5459V24.7037H25.5941C25.7324 22.8857 26.8356 21.3373 28.3926 20.5696ZM33.3309 29.3377C33.7139 29.0925 34.0615 28.7969 34.3644 28.4603V65.2698H33.3309V29.3377ZM27.1297 28.7271V65.2698H28.1633V29.4924C27.7862 29.2817 27.4391 29.0239 27.1297 28.7271ZM28.4216 29.6272C28.748 29.7855 29.0941 29.9096 29.4552 29.9949V65.2698H28.4216V29.6272ZM32.039 29.9266C32.4022 29.82 32.7484 29.6736 33.0725 29.4924V65.2698H32.039V29.9266Z" fill="black"/>
<path d="M35.1395 24.9621C35.1395 27.388 33.1729 29.3546 30.747 29.3546C28.3211 29.3546 26.3545 27.388 26.3545 24.9621C26.3545 22.5362 28.3211 20.5696 30.747 20.5696C33.1729 20.5696 35.1395 22.5362 35.1395 24.9621Z" fill="black"/>
<path d="M31.264 24.9621C31.264 25.2475 31.0326 25.4789 30.7472 25.4789C30.4618 25.4789 30.2305 25.2475 30.2305 24.9621C30.2305 24.6767 30.4618 24.4454 30.7472 24.4454C31.0326 24.4454 31.264 24.6767 31.264 24.9621Z" fill="black"/>
<path d="M30.3593 23.7995V24.3163H29.8426L28.1631 21.8617L30.3593 23.7995Z" fill="black"/>
<path d="M29.7468 25.4918L30.2634 25.4789L30.2763 25.9956L28.7139 26.9001L29.7468 25.4918Z" fill="black"/>
<path fill-rule="evenodd" clip-rule="evenodd" d="M24.8057 14.3685H23.5138V19.0194H24.8057V14.3685ZM23.2554 14.1101V19.2778H25.064V14.1101H23.2554Z" fill="black"/>
<path fill-rule="evenodd" clip-rule="evenodd" d="M38.5007 13.335H22.7393V14.1102H38.5007V13.335ZM22.481 13.0767V14.3686H38.759V13.0767H22.481Z" fill="black"/>
<path fill-rule="evenodd" clip-rule="evenodd" d="M39.532 12.2434L30.747 9.98441L21.962 12.2434V13.0766H39.532V12.2434ZM30.747 9.71762L39.7904 12.0431V13.335H21.7036V12.0431L30.747 9.71762Z" fill="black"/>
<path fill-rule="evenodd" clip-rule="evenodd" d="M30.1626 3.0603C29.7001 4.98867 29.1924 7.1051 29.0655 7.80294C28.9852 8.24476 28.9531 8.78524 28.9575 9.24817C28.9597 9.47929 28.9709 9.68878 28.9892 9.85495C28.9999 9.95189 29.0124 10.0282 29.025 10.0838L30.7481 9.71454L32.3489 10.0839C32.4562 9.77178 32.5738 8.99226 32.3007 7.80888C32.017 6.57952 31.208 2.80996 30.7423 0.625829C30.5889 1.2831 30.3808 2.15078 30.1626 3.0603ZM29.9162 2.97944C30.2041 1.77898 30.4735 0.655915 30.6211 0L30.8735 0.00147337C31.3042 2.02603 32.2427 6.40855 32.5525 7.75078C32.8664 9.11125 32.6895 9.99748 32.5421 10.2922L32.4966 10.3832L30.7461 9.97924L28.8676 10.3818L28.8229 10.2922C28.7789 10.2043 28.7511 10.0532 28.7324 9.88324C28.7129 9.70625 28.7014 9.48778 28.6991 9.2506C28.6947 8.77688 28.7272 8.21924 28.8113 7.75672C28.9392 7.05322 29.4519 4.91567 29.9162 2.97944Z" fill="black"/>
<path fill-rule="evenodd" clip-rule="evenodd" d="M21.4451 19.1487H39.9195V24.3163H40.6946V25.2207H42.2449V35.556H43.0201V92.17L51.8051 94.3663V95.5007H9.68872V94.3663L18.4737 92.17V35.556H19.3781V25.2207H20.67V24.3163H21.4451V19.1487ZM21.7035 19.4071V24.5747H20.9284V25.4791H19.6364V35.8143H18.7321V92.3718L9.9471 94.568V95.2423H51.5467V94.568L42.7617 92.3718V35.8143H41.9865V25.4791H40.4362V24.5747H39.6611V19.4071H21.7035Z" fill="black"/>
<path fill-rule="evenodd" clip-rule="evenodd" d="M28.4216 14.8853H26.6129V19.0194H28.4216V14.8853ZM26.3545 14.6269V19.2778H28.6799V14.6269H26.3545Z" fill="black"/>
<path fill-rule="evenodd" clip-rule="evenodd" d="M31.781 14.8853H29.7139V19.0194H31.781V14.8853ZM29.4556 14.6269V19.2778H32.0394V14.6269H29.4556Z" fill="black"/>
<path fill-rule="evenodd" clip-rule="evenodd" d="M34.8805 14.8853H33.0719V19.0194H34.8805V14.8853ZM32.8135 14.6269V19.2778H35.1389V14.6269H32.8135Z" fill="black"/>
<path fill-rule="evenodd" clip-rule="evenodd" d="M37.9829 14.3685H36.691V19.0194H37.9829V14.3685ZM36.4326 14.1101V19.2778H38.2413V14.1101H36.4326Z" fill="black"/>
<path fill-rule="evenodd" clip-rule="evenodd" d="M50.1256 95.5007H11.3682V96.2758H50.1256V95.5007ZM11.1099 95.2423V96.5342H50.384V95.2423H11.1099Z" fill="black"/>
<path fill-rule="evenodd" clip-rule="evenodd" d="M50.1256 96.5341H11.3682V97.5676H50.1256V96.5341ZM11.1099 96.2757V97.826H50.384V96.2757H11.1099Z" fill="black"/>
<path fill-rule="evenodd" clip-rule="evenodd" d="M51.6773 109.97H10.0777V110.487H51.6773V109.97ZM9.81934 109.712V110.745H51.9357V109.712H9.81934Z" fill="black"/>
<path fill-rule="evenodd" clip-rule="evenodd" d="M53.2261 111.003H8.52596V112.037H53.2261V111.003ZM8.26758 110.745V112.295H53.4845V110.745H8.26758Z" fill="black"/>
<path fill-rule="evenodd" clip-rule="evenodd" d="M54.7767 112.554H6.71761V113.587H54.7767V112.554ZM6.45923 112.296V113.846H55.0351V112.296H6.45923Z" fill="black"/>
<path fill-rule="evenodd" clip-rule="evenodd" d="M16.5365 99.6348H15.503V102.735H16.5365V99.6348ZM15.2446 99.3764V102.994H16.7949V99.3764H15.2446Z" fill="black"/>
<path fill-rule="evenodd" clip-rule="evenodd" d="M11.627 98.0844H14.986V99.1465L14.983 99.1467C14.8499 99.1558 14.7195 99.1522 14.6393 99.1286C14.5564 99.1041 14.5067 99.0572 14.4171 98.9561L14.4023 98.9394C14.3171 98.8427 14.191 98.6995 13.9808 98.6185C13.7651 98.5354 13.5566 98.4803 13.3394 98.4766C13.1193 98.4729 12.9068 98.5222 12.6825 98.6245C12.487 98.7138 12.3779 98.8581 12.306 98.9531L12.2956 98.967C12.22 99.0664 12.1811 99.1092 12.1131 99.1362C12.0209 99.1728 11.8635 99.179 11.6969 99.1643C11.6727 99.1622 11.6493 99.1597 11.627 99.1571V98.0844ZM15.2444 98.0844V99.3764C15.2444 99.3764 15.0571 99.4095 14.8568 99.4097V109.453V109.582H14.7276H11.8854H11.7562V109.453V99.4275C11.5469 99.4167 11.3687 99.3764 11.3687 99.3764V98.0844V97.8261H11.627H14.986H15.2444V98.0844ZM12.0146 99.4217V109.324H14.5984V99.3849C14.5874 99.3823 14.5766 99.3795 14.5661 99.3764C14.4008 99.3275 14.3081 99.2229 14.2141 99.1166C14.1265 99.0177 14.0377 98.9174 13.8879 98.8596C13.4877 98.7053 13.1799 98.6815 12.7898 98.8596C12.6546 98.9213 12.5802 99.0194 12.5063 99.1167C12.4291 99.2183 12.3527 99.3191 12.2084 99.3764C12.1504 99.3994 12.084 99.4137 12.0146 99.4217Z" fill="black"/>
<path fill-rule="evenodd" clip-rule="evenodd" d="M35.6573 98.0844H39.0163V99.1465L39.0133 99.1467C38.8802 99.1558 38.7498 99.1522 38.6696 99.1286C38.5867 99.1041 38.537 99.0572 38.4474 98.9561L38.4326 98.9394C38.3474 98.8427 38.2213 98.6995 38.0111 98.6185C37.7954 98.5354 37.5869 98.4803 37.3697 98.4766C37.1496 98.4729 36.9371 98.5222 36.7128 98.6245C36.5173 98.7138 36.4082 98.8581 36.3363 98.9531L36.3258 98.967C36.2503 99.0664 36.2114 99.1092 36.1433 99.1362C36.0511 99.1728 35.8938 99.179 35.7271 99.1643C35.703 99.1622 35.6796 99.1597 35.6573 99.1571V98.0844ZM39.2747 98.0844V99.3764C39.2747 99.3764 39.0873 99.4095 38.8871 99.4097V109.453V109.582H38.7579H35.9157H35.7865V109.453V99.4275C35.5772 99.4167 35.3989 99.3764 35.3989 99.3764V98.0844V97.8261H35.6573H39.0163H39.2747V98.0844ZM36.0449 99.4217V109.324H38.6287V99.3849C38.6177 99.3823 38.6069 99.3795 38.5964 99.3764C38.4311 99.3275 38.3384 99.2229 38.2444 99.1166C38.1568 99.0177 38.068 98.9174 37.9182 98.8596C37.518 98.7053 37.2102 98.6815 36.82 98.8596C36.6849 98.9213 36.6104 99.0194 36.5366 99.1167C36.4594 99.2183 36.3829 99.3191 36.2387 99.3764C36.1807 99.3994 36.1143 99.4137 36.0449 99.4217Z" fill="black"/>
<path fill-rule="evenodd" clip-rule="evenodd" d="M17.0523 98.0844H20.4113V99.1465L20.4083 99.1467C20.2752 99.1558 20.1448 99.1522 20.0646 99.1286C19.9817 99.1041 19.932 99.0572 19.8424 98.9561L19.8276 98.9394C19.7424 98.8427 19.6163 98.6995 19.4061 98.6185C19.1904 98.5354 18.9819 98.4803 18.7647 98.4766C18.5446 98.4729 18.3321 98.5222 18.1078 98.6245C17.9123 98.7138 17.8032 98.8581 17.7313 98.9531L17.7208 98.967C17.6453 99.0664 17.6064 99.1092 17.5384 99.1362C17.4462 99.1728 17.2888 99.179 17.1222 99.1643C17.098 99.1622 17.0746 99.1597 17.0523 99.1571V98.0844ZM20.6697 98.0844V99.3764C20.6697 99.3764 20.4823 99.4095 20.2821 99.4097V109.453V109.582H20.1529H17.3107H17.1815V109.453V99.4275C16.9722 99.4167 16.7939 99.3764 16.7939 99.3764V98.0844V97.8261H17.0523H20.4113H20.6697V98.0844ZM17.4399 99.4217V109.324H20.0237V99.3849C20.0127 99.3823 20.0019 99.3795 19.9914 99.3764C19.8261 99.3275 19.7334 99.2229 19.6394 99.1166C19.5518 99.0177 19.463 98.9174 19.3132 98.8596C18.913 98.7053 18.6052 98.6815 18.215 98.8596C18.0799 98.9213 18.0054 99.0194 17.9316 99.1167C17.8544 99.2183 17.778 99.3191 17.6337 99.3764C17.5757 99.3994 17.5093 99.4137 17.4399 99.4217Z" fill="black"/>
<path fill-rule="evenodd" clip-rule="evenodd" d="M41.0826 98.0844H44.4416V99.1465L44.4386 99.1467C44.3055 99.1558 44.175 99.1522 44.0949 99.1286C44.012 99.1041 43.9623 99.0572 43.8727 98.9561L43.8579 98.9394C43.7727 98.8427 43.6466 98.6995 43.4364 98.6185C43.2207 98.5354 43.0122 98.4803 42.795 98.4766C42.5749 98.4729 42.3624 98.5222 42.138 98.6245C41.9426 98.7138 41.8335 98.8581 41.7616 98.9531L41.7511 98.967C41.6756 99.0664 41.6367 99.1092 41.5686 99.1362C41.4764 99.1728 41.319 99.179 41.1524 99.1643C41.1283 99.1622 41.1049 99.1597 41.0826 99.1571V98.0844ZM44.7 98.0844V99.3764C44.7 99.3764 44.5126 99.4095 44.3124 99.4097V109.453V109.582H44.1832H41.341H41.2118V109.453V99.4275C41.0025 99.4167 40.8242 99.3764 40.8242 99.3764V98.0844V97.8261H41.0826H44.4416H44.7V98.0844ZM41.4702 99.4217V109.324H44.054V99.3849C44.043 99.3823 44.0322 99.3795 44.0217 99.3764C43.8564 99.3275 43.7637 99.2229 43.6697 99.1166C43.5821 99.0177 43.4933 98.9174 43.3434 98.8596C42.9433 98.7053 42.6355 98.6815 42.2453 98.8596C42.1102 98.9213 42.0357 99.0194 41.9619 99.1167C41.8847 99.2183 41.8082 99.3191 41.664 99.3764C41.6059 99.3994 41.5396 99.4137 41.4702 99.4217Z" fill="black"/>
<path fill-rule="evenodd" clip-rule="evenodd" d="M22.4801 98.0844H25.839V99.1465L25.836 99.1467C25.7029 99.1558 25.5725 99.1522 25.4923 99.1286C25.4094 99.1041 25.3597 99.0572 25.2701 98.9561L25.2554 98.9394C25.1701 98.8427 25.044 98.6995 24.8339 98.6185C24.6182 98.5354 24.4096 98.4803 24.1925 98.4766C23.9723 98.4729 23.7598 98.5222 23.5355 98.6245C23.34 98.7138 23.2309 98.8581 23.1591 98.9531L23.1486 98.967C23.073 99.0664 23.0342 99.1092 22.9661 99.1362C22.8739 99.1728 22.7165 99.179 22.5499 99.1643C22.5257 99.1622 22.5023 99.1597 22.4801 99.1571V98.0844ZM26.0974 98.0844V99.3764C26.0974 99.3764 25.9101 99.4095 25.7098 99.4097V109.453V109.582H25.5807H22.7384H22.6093V109.453V99.4275C22.3999 99.4167 22.2217 99.3764 22.2217 99.3764V98.0844V97.8261H22.4801H25.839H26.0974V98.0844ZM22.8676 99.4217V109.324H25.4515V99.3849C25.4404 99.3823 25.4297 99.3795 25.4192 99.3764C25.2538 99.3275 25.1612 99.2229 25.0671 99.1166C24.9795 99.0177 24.8907 98.9174 24.7409 98.8596C24.3408 98.7053 24.0329 98.6815 23.6428 98.8596C23.5077 98.9213 23.4332 99.0194 23.3593 99.1167C23.2822 99.2183 23.2057 99.3191 23.0614 99.3764C23.0034 99.3994 22.9371 99.4137 22.8676 99.4217Z" fill="black"/>
<path fill-rule="evenodd" clip-rule="evenodd" d="M46.5079 98.0844H49.8669V99.1465L49.8638 99.1467C49.7308 99.1558 49.6003 99.1522 49.5202 99.1286C49.4373 99.1041 49.3876 99.0572 49.298 98.9561L49.2832 98.9394C49.1979 98.8427 49.0718 98.6995 48.8617 98.6185C48.646 98.5354 48.4375 98.4803 48.2203 98.4766C48.0002 98.4729 47.7876 98.5222 47.5633 98.6245C47.3678 98.7138 47.2588 98.8581 47.1869 98.9531L47.1764 98.967C47.1009 99.0664 47.062 99.1092 46.9939 99.1362C46.9017 99.1728 46.7443 99.179 46.5777 99.1643C46.5536 99.1622 46.5302 99.1597 46.5079 99.1571V98.0844ZM50.1252 98.0844V99.3764C50.1252 99.3764 49.9379 99.4095 49.7377 99.4097V109.453V109.582H49.6085H46.7663H46.6371V109.453V99.4275C46.4278 99.4167 46.2495 99.3764 46.2495 99.3764V98.0844V97.8261H46.5079H49.8669H50.1252V98.0844ZM46.8955 99.4217V109.324H49.4793V99.3849C49.4683 99.3823 49.4575 99.3795 49.447 99.3764C49.2816 99.3275 49.189 99.2229 49.095 99.1166C49.0074 99.0177 48.9186 98.9174 48.7687 98.8596C48.3686 98.7053 48.0608 98.6815 47.6706 98.8596C47.5355 98.9213 47.461 99.0194 47.3872 99.1167C47.31 99.2183 47.2335 99.3191 47.0893 99.3764C47.0312 99.3994 46.9649 99.4137 46.8955 99.4217Z" fill="black"/>
<path fill-rule="evenodd" clip-rule="evenodd" d="M40.5644 99.6348H39.5308V102.735H40.5644V99.6348ZM39.2725 99.3764V102.994H40.8228V99.3764H39.2725Z" fill="black"/>
<path fill-rule="evenodd" clip-rule="evenodd" d="M21.9618 99.6348H20.9283V102.735H21.9618V99.6348ZM20.6699 99.3764V102.994H22.2202V99.3764H20.6699Z" fill="black"/>
<path fill-rule="evenodd" clip-rule="evenodd" d="M45.9921 99.6348H44.9586V102.735H45.9921V99.6348ZM44.7002 99.3764V102.994H46.2505V99.3764H44.7002Z" fill="black"/>
<path fill-rule="evenodd" clip-rule="evenodd" d="M16.5365 104.544H15.503V107.645H16.5365V104.544ZM15.2446 104.286V107.903H16.7949V104.286H15.2446Z" fill="black"/>
<path fill-rule="evenodd" clip-rule="evenodd" d="M40.5644 104.544H39.5308V107.645H40.5644V104.544ZM39.2725 104.286V107.903H40.8228V104.286H39.2725Z" fill="black"/>
<path fill-rule="evenodd" clip-rule="evenodd" d="M21.9618 104.544H20.9283V107.645H21.9618V104.544ZM20.6699 104.286V107.903H22.2202V104.286H20.6699Z" fill="black"/>
<path fill-rule="evenodd" clip-rule="evenodd" d="M45.9921 104.544H44.9586V107.645H45.9921V104.544ZM44.7002 104.286V107.903H46.2505V104.286H44.7002Z" fill="black"/>
<path fill-rule="evenodd" clip-rule="evenodd" d="M34.8811 98.0844H26.6129V109.195H34.8811V98.0844ZM26.3545 97.8261V109.453H35.1395V97.8261H26.3545Z" fill="black"/>
<path d="M0 117.721H123.507V118.497H0V117.721Z" fill="black"/>
<path d="M12.1159 125.404L11.2085 126.1C10.7079 125.448 10.1056 124.955 9.40161 124.622C8.70284 124.283 7.93366 124.113 7.09409 124.113C6.17629 124.113 5.32629 124.335 4.54407 124.778C3.76186 125.216 3.15434 125.808 2.72152 126.554C2.29391 127.294 2.0801 128.129 2.0801 129.057C2.0801 130.46 2.55986 131.63 3.51938 132.569C4.4841 133.508 5.69914 133.977 7.16449 133.977C8.77584 133.977 10.1239 133.346 11.2085 132.084L12.1159 132.772C11.5423 133.502 10.8252 134.068 9.96481 134.47C9.10959 134.866 8.15268 135.064 7.09409 135.064C5.08119 135.064 3.4933 134.394 2.33041 133.054C1.35525 131.922 0.867676 130.556 0.867676 128.955C0.867676 127.271 1.45694 125.855 2.63548 124.708C3.81922 123.555 5.30021 122.979 7.07844 122.979C8.15268 122.979 9.12262 123.193 9.98827 123.62C10.8539 124.043 11.5631 124.637 12.1159 125.404Z" fill="black"/>
<path d="M13.2892 124.387V123.268H19.6017V124.387H17.036V134.775H15.8627V124.387H13.2892Z" fill="black"/>
<path d="M21.2443 123.268H23.5362C24.8503 123.268 25.7368 123.326 26.1957 123.441C26.8528 123.602 27.3899 123.936 27.8071 124.442C28.2243 124.942 28.4328 125.573 28.4328 126.335C28.4328 127.101 28.2295 127.735 27.8227 128.236C27.416 128.731 26.8554 129.065 26.141 129.237C25.6195 129.362 24.6443 129.424 23.2155 129.424H22.3942V134.775H21.2443V123.268ZM22.3942 124.387V128.298L24.3419 128.322C25.1293 128.322 25.7055 128.251 26.0706 128.11C26.4356 127.964 26.7224 127.732 26.931 127.414C27.1396 127.091 27.2439 126.731 27.2439 126.335C27.2439 125.949 27.1396 125.597 26.931 125.279C26.7224 124.955 26.446 124.726 26.1018 124.59C25.7629 124.455 25.2049 124.387 24.4279 124.387H22.3942Z" fill="black"/>
<path d="M36.2159 122.979C37.9576 122.979 39.4151 123.561 40.5884 124.723C41.7617 125.886 42.3484 127.318 42.3484 129.018C42.3484 130.702 41.7617 132.131 40.5884 133.304C39.4203 134.478 37.9941 135.064 36.3097 135.064C34.6045 135.064 33.1652 134.48 31.9919 133.312C30.8186 132.144 30.2319 130.731 30.2319 129.072C30.2319 127.967 30.4979 126.942 31.0298 125.998C31.5669 125.055 32.297 124.317 33.22 123.785C34.143 123.248 35.1416 122.979 36.2159 122.979ZM36.2706 124.105C35.4206 124.105 34.6149 124.327 33.8536 124.77C33.0922 125.214 32.4977 125.811 32.0701 126.562C31.6425 127.313 31.4287 128.149 31.4287 129.072C31.4287 130.439 31.9006 131.594 32.8445 132.538C33.7936 133.476 34.9356 133.946 36.2706 133.946C37.1623 133.946 37.9863 133.729 38.7424 133.296C39.5038 132.864 40.0956 132.272 40.518 131.521C40.9456 130.77 41.1594 129.936 41.1594 129.018C41.1594 128.105 40.9456 127.281 40.518 126.546C40.0956 125.805 39.4985 125.214 38.7268 124.77C37.955 124.327 37.1363 124.105 36.2706 124.105Z" fill="black"/>
<path d="M53.6983 134.775H52.5015V125.959L44.9219 134.775H44.6637V123.268H45.8136V132.24L53.4402 123.268H53.6983V134.775Z" fill="black"/>
<path d="M55.3722 124.387V123.268H61.6847V124.387H59.119V134.775H57.9457V124.387H55.3722Z" fill="black"/>
<path d="M63.343 123.268H69.937V124.403H64.4928V128.001H69.8901V129.127H64.4928V133.641H69.8901V134.775H63.343V123.268Z" fill="black"/>
<path d="M81.24 134.775H79.9885L76.1791 125.881L72.2993 134.775H71.0478L76.0539 123.268H76.3042L81.24 134.775Z" fill="black"/>
<path d="M83.1642 123.268H84.3141V128.204H85.1432C86.6503 128.204 87.7324 128.277 88.3894 128.423C89.0465 128.569 89.5758 128.906 89.9773 129.432C90.3788 129.954 90.5796 130.629 90.5796 131.458C90.5796 132.272 90.3841 132.947 89.993 133.484C89.6018 134.016 89.1038 134.365 88.4989 134.532C87.894 134.694 86.8797 134.775 85.4561 134.775H83.1642V123.268ZM84.3141 133.664H85.5422C86.8354 133.664 87.6776 133.604 88.0687 133.484C88.465 133.359 88.7779 133.13 89.0074 132.796C89.242 132.462 89.3594 132.034 89.3594 131.513C89.3594 130.939 89.2133 130.473 88.9213 130.113C88.6293 129.753 88.2564 129.534 87.8028 129.456C87.3543 129.372 86.5147 129.331 85.284 129.331H84.3141V133.664Z" fill="black"/>
<path d="M92.8715 123.268H94.0292V128.095H99.8801V123.268H101.038V134.775H99.8801V129.221H94.0292V134.775H92.8715V123.268Z" fill="black"/>
<path d="M108.539 123.268L113.905 134.775H112.669L110.862 130.989H105.903L104.104 134.775H102.821L108.258 123.268H108.539ZM108.398 125.709L106.419 129.878H110.354L108.398 125.709Z" fill="black"/>
<path d="M122.22 123.268H119.928C118.651 123.268 117.785 123.321 117.331 123.425C116.648 123.581 116.093 123.918 115.665 124.434C115.238 124.945 115.024 125.576 115.024 126.327C115.024 126.953 115.17 127.503 115.462 127.977C115.759 128.452 116.181 128.812 116.729 129.057C117.277 129.297 118.033 129.419 118.997 129.424L114.859 134.775H116.283L120.413 129.424H121.07V134.775H122.22V123.268ZM121.07 124.395V128.306L119.091 128.322C118.325 128.322 117.756 128.249 117.386 128.103C117.021 127.957 116.734 127.724 116.526 127.406C116.322 127.083 116.221 126.723 116.221 126.327C116.221 125.941 116.325 125.592 116.533 125.279C116.742 124.961 117.016 124.734 117.355 124.598C117.694 124.463 118.257 124.395 119.044 124.395H121.07Z" fill="black"/>
<path d="M1.66235 136.828H3.27094V142.748L9.56585 136.828H11.6999L4.11812 143.906L12.2897 152.603H10.1986L3.27094 145.247V152.603H1.66235V136.828Z" fill="black"/>
<path d="M21.7164 136.432C24.1043 136.432 26.1025 137.229 27.7111 138.823C29.3197 140.417 30.124 142.38 30.124 144.71C30.124 147.02 29.3197 148.979 27.7111 150.587C26.1097 152.196 24.1543 153 21.8451 153C19.5073 153 17.5341 152.199 15.9255 150.598C14.317 148.996 13.5127 147.059 13.5127 144.786C13.5127 143.27 13.8773 141.865 14.6065 140.571C15.3429 139.277 16.3438 138.265 17.6092 137.536C18.8746 136.8 20.2437 136.432 21.7164 136.432ZM21.7915 137.976C20.6262 137.976 19.5216 138.28 18.4778 138.887C17.434 139.495 16.619 140.314 16.0328 141.343C15.4465 142.373 15.1534 143.52 15.1534 144.786C15.1534 146.659 15.8004 148.242 17.0944 149.536C18.3956 150.823 19.9613 151.466 21.7915 151.466C23.014 151.466 24.1436 151.17 25.1803 150.576C26.224 149.983 27.0355 149.172 27.6146 148.142C28.2008 147.113 28.4939 145.969 28.4939 144.71C28.4939 143.459 28.2008 142.33 27.6146 141.322C27.0355 140.307 26.2169 139.495 25.1588 138.887C24.1007 138.28 22.9783 137.976 21.7915 137.976Z" fill="black"/>
<path d="M32.1298 152.603L34.3711 136.828H34.6284L41.0413 149.772L47.3898 136.828H47.6472L49.91 152.603H48.355L46.8108 141.322L41.2343 152.603H40.8376L35.1861 141.236L33.6526 152.603H32.1298Z" fill="black"/>
<path d="M52.5699 136.828H63.7656V152.603H62.1785V138.33H54.157V152.603H52.5699V136.828Z" fill="black"/>
<path d="M73.6106 136.828L80.9672 152.603H79.2728L76.7956 147.413H69.9967L67.5302 152.603H65.7714L73.2245 136.828H73.6106ZM73.4176 140.174L70.7044 145.89H76.0985L73.4176 140.174Z" fill="black"/>
<path d="M82.9622 136.828H84.5494V143.445H92.5708V136.828H94.158V152.603H92.5708V144.989H84.5494V152.603H82.9622V136.828Z" fill="black"/>
<path d="M109.955 152.603H108.314V140.517L97.9225 152.603H97.5686V136.828H99.145V149.129L109.601 136.828H109.955V152.603Z" fill="black"/>
<path d="M122.32 136.828H119.178C117.426 136.828 116.239 136.9 115.617 137.043C114.681 137.257 113.919 137.718 113.333 138.426C112.747 139.127 112.454 139.992 112.454 141.021C112.454 141.879 112.654 142.634 113.054 143.284C113.462 143.935 114.041 144.428 114.792 144.764C115.542 145.093 116.579 145.261 117.902 145.268L112.229 152.603H114.18L119.843 145.268H120.743V152.603H122.32V136.828ZM120.743 138.373V143.735L118.03 143.756C116.979 143.756 116.2 143.656 115.692 143.456C115.192 143.256 114.799 142.937 114.513 142.501C114.234 142.058 114.095 141.565 114.095 141.021C114.095 140.492 114.238 140.013 114.523 139.584C114.809 139.148 115.185 138.837 115.649 138.651C116.114 138.466 116.886 138.373 117.966 138.373H120.743Z" fill="black"/>
<path d="M51.1595 67.7245H45.4751V82.4523C45.4751 83.0121 45.5526 84.4418 45.8627 85.6821C46.2502 87.2324 47.8005 90.333 53.0974 90.8497C57.3349 91.2631 61.0642 89.041 62.3991 87.8783V90.333H67.8252V67.7245H62.3991V79.9977C62.0977 80.4714 61.2364 81.6255 60.2029 82.4523C58.911 83.4858 56.4564 84.9069 54.1309 85.1653C52.2706 85.372 51.3748 84.1318 51.1595 83.4858V67.7245Z" fill="black"/>
<path d="M69.8926 90.3329V67.7245H75.3186V76.2511H78.29L87.3334 67.7245H95.3432L83.716 79.2225L95.3432 90.3329H87.3334L78.29 81.9355H75.3186V90.3329H69.8926Z" fill="black"/>
<path fill-rule="evenodd" clip-rule="evenodd" d="M96.2469 67.7234L96.3772 67.7245L111.879 67.8537C111.879 67.8537 111.879 67.8537 111.88 67.8537C112.486 67.8538 113.3 68.0615 114.13 68.4745C114.961 68.8884 115.816 69.513 116.501 70.3561C117.191 71.2056 117.595 72.3481 117.822 73.421C118.049 74.4941 118.102 75.5111 118.08 76.1242V90.333V90.4622H117.951H101.673C99.8361 90.4622 98.2164 89.8711 97.0568 88.6286C95.8979 87.387 95.2134 85.5108 95.2134 82.9691C95.2134 80.349 96.0978 78.597 97.4578 77.5035C98.813 76.4139 100.622 75.9928 102.448 75.9928H112.243C112.235 75.9253 112.229 75.8513 112.223 75.7752L112.221 75.7566C112.209 75.6131 112.196 75.4532 112.171 75.2851C112.119 74.9333 112.016 74.5616 111.778 74.2648C111.63 74.0795 111.361 73.9488 111.049 73.854C110.783 73.7732 110.506 73.7239 110.28 73.6837C110.248 73.6781 110.217 73.6727 110.188 73.6673H96.3761H96.2469V73.5381V67.8537V67.7234ZM96.5053 67.984V73.4089H110.2H110.211L110.223 73.411C110.254 73.4168 110.288 73.4227 110.323 73.4289C110.548 73.4689 110.842 73.5211 111.124 73.6068C111.447 73.7048 111.78 73.8541 111.98 74.1034C112.259 74.4526 112.372 74.8775 112.427 75.247C112.453 75.4237 112.467 75.5913 112.478 75.7335L112.48 75.7541C112.493 75.9055 112.503 76.0171 112.521 76.0906L112.561 76.2512H112.396H102.448C100.657 76.2512 98.913 76.6651 97.6198 77.7049C96.3314 78.7407 95.4718 80.4123 95.4718 82.9691C95.4718 85.4658 96.1437 87.2716 97.2457 88.4523C98.3469 89.6322 99.8924 90.2038 101.673 90.2038H117.822V76.122V76.1197L117.822 76.1173C117.843 75.5244 117.792 74.5273 117.569 73.4744C117.346 72.4199 116.954 71.3231 116.3 70.519C115.642 69.7085 114.818 69.1057 114.014 68.7058C113.21 68.3049 112.435 68.1121 111.879 68.1121H111.878L96.5053 67.984ZM101.496 82.1393C101.313 82.2874 101.156 82.5401 101.156 82.9691C101.156 83.809 101.764 84.3439 102.092 84.5194H112.267V81.9356H102.06C101.912 81.9356 101.684 81.9868 101.496 82.1393ZM101.333 81.9385C101.576 81.7422 101.864 81.6772 102.06 81.6772H112.396H112.525V81.8064V84.6486V84.7778H112.396H102.06H102.03L102.003 84.7641C101.634 84.5796 100.898 83.9665 100.898 82.9691C100.898 82.468 101.085 82.1392 101.333 81.9385Z" fill="black"/>
<path fill-rule="evenodd" clip-rule="evenodd" d="M96.5053 73.4089V67.984L111.878 68.1121H111.879C112.435 68.1121 113.21 68.3049 114.014 68.7058C114.818 69.1057 115.642 69.7085 116.3 70.519C116.954 71.3231 117.346 72.4199 117.569 73.4744C117.792 74.5273 117.843 75.5244 117.822 76.1173L117.822 76.1197V76.122V90.2038H101.673C99.8924 90.2038 98.3469 89.6322 97.2457 88.4523C96.1437 87.2716 95.4718 85.4658 95.4718 82.9691C95.4718 80.4123 96.3314 78.7407 97.6198 77.7049C98.913 76.6651 100.657 76.2512 102.448 76.2512H112.396H112.561L112.521 76.0906C112.503 76.0171 112.493 75.9055 112.48 75.7541L112.478 75.7335C112.467 75.5913 112.453 75.4237 112.427 75.247C112.372 74.8775 112.259 74.4526 111.98 74.1034C111.78 73.8541 111.447 73.7048 111.124 73.6068C110.842 73.5211 110.548 73.4689 110.323 73.4289C110.288 73.4227 110.254 73.4168 110.223 73.411L110.211 73.4089H110.2H96.5053ZM101.333 81.9385C101.576 81.7422 101.864 81.6772 102.06 81.6772H112.396H112.525V81.8064V84.6486V84.7778H112.396H102.06H102.03L102.003 84.7641C101.634 84.5796 100.898 83.9665 100.898 82.9691C100.898 82.468 101.085 82.1392 101.333 81.9385Z" fill="black"/>
</svg>
