<svg width="746" height="325" viewBox="0 0 746 325" fill="none" xmlns="http://www.w3.org/2000/svg">
    <path d="M81.14 75.73H0.890015V324.61H81.14V75.73Z" fill="#E0E0E0"/>
    <path d="M16.5 324.71V123.42H59.79C59.79 123.42 89.45 121.51 89.45 151.48V324.71H16.5Z" fill="#1A73E8"/>
    <path d="M89.48 324.73H16.48V123.39H59.79C62.358 123.309 64.9271 123.514 67.45 124C69.8964 124.452 72.2846 125.177 74.57 126.16C77.1953 127.292 79.6095 128.861 81.71 130.8C86.86 135.64 89.48 142.59 89.48 151.48V324.73ZM16.48 324.68H89.39V151.48C89.39 142.61 86.78 135.66 81.63 130.84C79.5388 128.901 77.1306 127.335 74.51 126.21C72.2297 125.222 69.8443 124.498 67.4 124.05C64.8805 123.564 62.3147 123.359 59.75 123.44H16.52L16.48 324.68Z" fill="#263238"/>
    <path d="M41.01 91.04C57.8713 91.04 71.54 77.3712 71.54 60.51C71.54 43.6487 57.8713 29.98 41.01 29.98C24.1488 29.98 10.48 43.6487 10.48 60.51C10.48 77.3712 24.1488 91.04 41.01 91.04Z" fill="#F56D45"/>
    <path d="M71.54 60.51C71.531 60.3468 71.531 60.1832 71.54 60.02C71.54 59.67 71.48 59.19 71.44 58.57C71.44 58.25 71.44 57.9 71.37 57.5C71.3 57.1 71.25 56.69 71.18 56.23C71.0399 55.1664 70.826 54.1139 70.54 53.08C69.8227 50.2315 68.6799 47.5075 67.15 45C65.1458 41.6635 62.522 38.741 59.42 36.39C55.6675 33.534 51.2969 31.5988 46.66 30.74C45.3923 30.5013 44.1089 30.3542 42.82 30.3C42.17 30.3 41.51 30.21 40.82 30.22L38.82 30.33C38.49 30.33 38.15 30.33 37.82 30.39L36.82 30.55C36.15 30.66 35.46 30.74 34.82 30.88C33.4622 31.1892 32.126 31.5867 30.82 32.07C29.4228 32.562 28.0627 33.1535 26.75 33.84C26.11 34.19 25.49 34.59 24.86 34.97C24.2202 35.3449 23.6085 35.766 23.03 36.23C21.8225 37.1253 20.6766 38.1009 19.6 39.15C18.523 40.2519 17.5208 41.4245 16.6 42.66C14.7203 45.1761 13.2582 47.9787 12.27 50.96C11.272 54.0469 10.7427 57.266 10.7 60.51C10.7484 63.7534 11.2775 66.9718 12.27 70.06C13.2567 73.0573 14.7187 75.8766 16.6 78.41C17.5233 79.6434 18.5254 80.8159 19.6 81.92C20.6796 82.9658 21.8253 83.9412 23.03 84.84C23.6085 85.304 24.2202 85.7251 24.86 86.1C25.49 86.47 26.11 86.88 26.74 87.22C28.032 87.8907 29.3685 88.472 30.74 88.96C32.0475 89.4388 33.3834 89.8363 34.74 90.15C35.42 90.29 36.11 90.37 36.74 90.48L37.74 90.64C38.08 90.64 38.42 90.64 38.74 90.7L40.74 90.81C41.4 90.81 42.06 90.75 42.74 90.73C44.0252 90.6702 45.3048 90.5232 46.57 90.29C50.7973 89.4909 54.808 87.8075 58.3391 85.35C61.8703 82.8925 64.8422 79.7164 67.06 76.03C68.5917 73.5198 69.7347 70.7923 70.45 67.94C70.7359 66.9094 70.9498 65.8602 71.09 64.8C71.16 64.34 71.24 63.91 71.28 63.52C71.32 63.13 71.28 62.78 71.35 62.46C71.35 61.84 71.42 61.36 71.45 61.01C71.4416 60.8434 71.4416 60.6765 71.45 60.51C71.45 60.51 71.45 60.68 71.45 61.01V62.46C71.45 62.78 71.45 63.14 71.45 63.53C71.45 63.92 71.34 64.35 71.28 64.82C71.1592 65.8901 70.9586 66.9497 70.68 67.99C69.9968 70.8747 68.8737 73.637 67.35 76.18C65.1374 79.9315 62.1501 83.1681 58.5874 85.6737C55.0248 88.1792 50.9688 89.8962 46.69 90.71C45.4059 90.9554 44.106 91.1091 42.8 91.17C42.14 91.17 41.47 91.27 40.8 91.26L38.8 91.16C38.46 91.16 38.11 91.16 37.8 91.09L36.8 90.94C36.11 90.83 35.42 90.75 34.73 90.61C31.9023 89.9637 29.1698 88.9554 26.6 87.61C25.95 87.26 25.33 86.85 24.68 86.47C24.0351 86.0894 23.417 85.6651 22.83 85.2C21.5963 84.2809 20.4269 83.2786 19.33 82.2C18.2484 81.0846 17.246 79.895 16.33 78.64C14.4126 76.0695 12.9234 73.2059 11.92 70.16C9.79969 63.8569 9.79969 57.0331 11.92 50.73C12.9137 47.7132 14.3821 44.8742 16.27 42.32C17.1914 41.0661 18.1935 39.8735 19.27 38.75C20.3693 37.674 21.5385 36.6718 22.77 35.75C23.3586 35.2793 23.9802 34.8515 24.63 34.47C25.27 34.09 25.89 33.68 26.54 33.33C27.8322 32.6568 29.1686 32.0721 30.54 31.58C31.8822 31.0902 33.2552 30.6893 34.65 30.38C35.33 30.24 36.03 30.16 36.72 30.05L37.72 29.89C38.06 29.89 38.41 29.89 38.72 29.83L40.72 29.73C41.39 29.73 42.06 29.79 42.72 29.81C44.0255 29.8758 45.3252 30.0295 46.61 30.27C50.9041 31.0845 54.9752 32.8054 58.5516 35.3179C62.128 37.8303 65.1275 41.0766 67.35 44.84C68.8712 47.3806 69.9942 50.1393 70.68 53.02C70.9587 54.0636 71.1593 55.1266 71.28 56.2C71.34 56.66 71.42 57.09 71.45 57.48C71.48 57.87 71.45 58.23 71.45 58.55V60.01C71.55 60.35 71.54 60.51 71.54 60.51Z" fill="#263238"/>
    <path d="M33.74 46.48H48.12H48.25C48.849 46.5869 49.3909 46.9022 49.78 47.37C50.2068 47.9008 50.4238 48.5698 50.39 49.25C50.39 54.47 50.39 59.68 50.39 64.89V65.27H51.53V64.88C51.53 61.88 51.53 58.88 51.53 55.88C51.5209 55.5986 51.5938 55.3206 51.74 55.08C52.49 54.08 53.27 53.08 54.05 52.08C54.1177 51.9867 54.204 51.9083 54.3033 51.8497C54.4026 51.7911 54.5129 51.7536 54.6274 51.7396C54.7418 51.7255 54.858 51.7352 54.9685 51.7679C55.0791 51.8007 55.1817 51.8558 55.27 51.93C55.357 52.0007 55.4291 52.0879 55.4823 52.1866C55.5354 52.2853 55.5685 52.3935 55.5797 52.505C55.5908 52.6166 55.5798 52.7292 55.5473 52.8364C55.5147 52.9437 55.4613 53.0435 55.39 53.13C55.22 53.38 55.03 53.62 54.83 53.86C54.7031 54.0109 54.6355 54.2029 54.64 54.4C54.64 55.4 54.64 56.48 54.64 57.52C54.65 57.6425 54.6339 57.7658 54.5927 57.8817C54.5516 57.9976 54.4863 58.1035 54.4013 58.1923C54.3163 58.2811 54.2134 58.3509 54.0994 58.397C53.9854 58.4432 53.8629 58.4646 53.74 58.46H53.27V66.02C53.27 66.72 52.95 67.02 52.27 67.02C51.75 67.02 51.27 67.02 50.7 67.02C50.48 67.02 50.42 67.08 50.42 67.3C50.42 68.3 50.42 69.36 50.42 70.39C50.4159 70.4666 50.4159 70.5434 50.42 70.62H51.07C51.8 70.62 52.07 70.94 52.07 71.67C52.07 72.67 52.07 73.67 52.07 74.67C52.07 75.48 51.78 75.77 50.97 75.77H30.93C30.14 75.77 29.93 75.65 29.74 74.91V71.47C29.97 70.74 30.14 70.61 30.93 70.61H31.48V63.36C31.48 58.66 31.48 53.96 31.48 49.25C31.4399 48.8163 31.5106 48.3796 31.6855 47.9808C31.8604 47.582 32.1338 47.2342 32.48 46.97C32.8819 46.7635 33.3042 46.5993 33.74 46.48V46.48Z" fill="white"/>
    <path d="M40.94 57.8399H35.94C35.804 57.8602 35.6652 57.8483 35.5346 57.8052C35.404 57.7621 35.2854 57.689 35.1882 57.5918C35.0909 57.4946 35.0179 57.3759 34.9748 57.2453C34.9317 57.1148 34.9198 56.9759 34.94 56.8399V50.9399C34.94 50.2299 35.26 49.9399 35.94 49.9399H45.94C46.65 49.9399 46.94 50.2599 46.94 50.9399V56.8399C46.94 57.5699 46.62 57.8399 45.89 57.8399H40.94Z" fill="#F56D45"/>
    <path d="M36.89 61.37H35.81C35.6955 61.3755 35.5811 61.3575 35.4739 61.3171C35.3666 61.2767 35.2688 61.2148 35.1864 61.1352C35.1039 61.0555 35.0387 60.9599 34.9946 60.8541C34.9505 60.7483 34.9285 60.6346 34.93 60.52C34.9286 60.4059 34.9503 60.2926 34.9936 60.187C35.037 60.0813 35.1012 59.9856 35.1824 59.9053C35.2636 59.825 35.3601 59.7619 35.4662 59.7198C35.5723 59.6777 35.6859 59.6573 35.8 59.66H38C38.12 59.647 38.2415 59.6594 38.3564 59.6965C38.4713 59.7335 38.5772 59.7944 38.667 59.875C38.7569 59.9557 38.8288 60.0543 38.878 60.1646C38.9272 60.2749 38.9526 60.3943 38.9526 60.515C38.9526 60.6358 38.9272 60.7552 38.878 60.8654C38.8288 60.9757 38.7569 61.0744 38.667 61.155C38.5772 61.2357 38.4713 61.2965 38.3564 61.3336C38.2415 61.3706 38.12 61.383 38 61.37H36.89Z" fill="#F56D45"/>
    <path d="M50.77 70.5099C47.5235 70.7674 44.2656 70.8542 41.01 70.7699C37.7544 70.8542 34.4965 70.7674 31.25 70.5099C34.4962 70.2463 37.7544 70.1596 41.01 70.2499C44.2656 70.1596 47.5238 70.2463 50.77 70.5099V70.5099Z" fill="#F56D45"/>
    <path d="M56.63 164.09C56.63 164.24 50.4 164.35 42.71 164.35C35.02 164.35 28.79 164.24 28.79 164.09C28.79 163.94 35.02 163.83 42.71 163.83C50.4 163.83 56.63 163.95 56.63 164.09Z" fill="white"/>
    <path d="M76.45 164.03C74.6488 164.287 72.8275 164.374 71.01 164.29C69.1925 164.374 67.3712 164.287 65.57 164.03C67.3712 163.773 69.1925 163.686 71.01 163.77C72.8275 163.686 74.6488 163.773 76.45 164.03Z" fill="white"/>
    <path d="M56.63 174.05C56.63 174.2 50.4 174.31 42.71 174.31C35.02 174.31 28.79 174.2 28.79 174.05C28.79 173.9 35.02 173.79 42.71 173.79C50.4 173.79 56.63 173.91 56.63 174.05Z" fill="white"/>
    <path d="M76.45 173.99C74.6488 174.247 72.8275 174.334 71.01 174.25C69.1925 174.334 67.3712 174.247 65.57 173.99C67.3712 173.733 69.1925 173.646 71.01 173.73C72.8275 173.646 74.6488 173.733 76.45 173.99Z" fill="white"/>
    <path d="M56.63 184.01C56.63 184.16 50.4 184.27 42.71 184.27C35.02 184.27 28.79 184.16 28.79 184.01C28.79 183.86 35.02 183.75 42.71 183.75C50.4 183.75 56.63 183.84 56.63 184.01Z" fill="white"/>
    <path d="M76.45 183.95C74.6488 184.207 72.8275 184.294 71.01 184.21C69.1925 184.294 67.3712 184.207 65.57 183.95C67.3706 183.687 69.1925 183.6 71.01 183.69C72.8275 183.6 74.6494 183.687 76.45 183.95V183.95Z" fill="white"/>
    <path d="M56.63 193.97C56.63 194.11 50.4 194.23 42.71 194.23C35.02 194.23 28.79 194.11 28.79 193.97C28.79 193.83 35.02 193.71 42.71 193.71C50.4 193.71 56.63 193.84 56.63 193.97Z" fill="white"/>
    <path d="M76.45 193.91C74.6488 194.167 72.8275 194.254 71.01 194.17C69.1925 194.254 67.3712 194.167 65.57 193.91C67.3706 193.647 69.1925 193.56 71.01 193.65C72.8275 193.56 74.6494 193.647 76.45 193.91V193.91Z" fill="white"/>
    <path d="M56.63 203.93C56.63 204.07 50.4 204.19 42.71 204.19C35.02 204.19 28.79 204.07 28.79 203.93C28.79 203.79 35.02 203.67 42.71 203.67C50.4 203.67 56.63 203.84 56.63 203.93Z" fill="white"/>
    <path d="M76.45 203.84C74.6488 204.097 72.8275 204.184 71.01 204.1C69.1925 204.184 67.3712 204.097 65.57 203.84C67.3706 203.577 69.1925 203.49 71.01 203.58C72.8275 203.49 74.6494 203.577 76.45 203.84V203.84Z" fill="white"/>
    <path d="M56.63 213.89C56.63 214.03 50.4 214.15 42.71 214.15C35.02 214.15 28.79 214.03 28.79 213.89C28.79 213.75 35.02 213.63 42.71 213.63C50.4 213.63 56.63 213.75 56.63 213.89Z" fill="white"/>
    <path d="M76.45 213.84C74.6488 214.097 72.8275 214.184 71.01 214.1C69.1925 214.184 67.3712 214.097 65.57 213.84C67.3706 213.577 69.1925 213.49 71.01 213.58C72.8275 213.49 74.6494 213.577 76.45 213.84V213.84Z" fill="white"/>
    <path d="M56.63 223.84C56.63 223.98 50.4 224.1 42.71 224.1C35.02 224.1 28.79 223.98 28.79 223.84C28.79 223.7 35.02 223.58 42.71 223.58C50.4 223.58 56.63 223.7 56.63 223.84Z" fill="white"/>
    <path d="M76.45 223.78C74.6501 224.05 72.8278 224.14 71.01 224.05C69.1922 224.14 67.37 224.049 65.57 223.78C67.3712 223.523 69.1925 223.436 71.01 223.52C72.8275 223.436 74.6488 223.523 76.45 223.78V223.78Z" fill="white"/>
    <path d="M56.63 233.84C56.63 233.98 50.4 234.1 42.71 234.1C35.02 234.1 28.79 233.98 28.79 233.84C28.79 233.7 35.02 233.58 42.71 233.58C50.4 233.58 56.63 233.66 56.63 233.84Z" fill="white"/>
    <path d="M76.45 233.74C74.6494 234.003 72.8275 234.09 71.01 234C69.1925 234.09 67.3706 234.003 65.57 233.74C67.3712 233.483 69.1925 233.396 71.01 233.48C72.8275 233.396 74.6488 233.483 76.45 233.74V233.74Z" fill="white"/>
    <path d="M56.63 243.77C56.63 243.91 50.4 244.03 42.71 244.03C35.02 244.03 28.79 243.91 28.79 243.77C28.79 243.63 35.02 243.51 42.71 243.51C50.4 243.51 56.63 243.62 56.63 243.77Z" fill="white"/>
    <path d="M76.45 243.7C74.6494 243.963 72.8275 244.05 71.01 243.96C69.1925 244.05 67.3706 243.963 65.57 243.7C67.3712 243.443 69.1925 243.356 71.01 243.44C72.8275 243.356 74.6488 243.443 76.45 243.7V243.7Z" fill="white"/>
    <path d="M56.63 253.73C56.63 253.87 50.4 253.99 42.71 253.99C35.02 253.99 28.79 253.87 28.79 253.73C28.79 253.59 35.02 253.47 42.71 253.47C50.4 253.47 56.63 253.58 56.63 253.73Z" fill="white"/>
    <path d="M76.45 253.66C74.6494 253.923 72.8275 254.01 71.01 253.92C69.1925 254.01 67.3706 253.923 65.57 253.66C67.3712 253.403 69.1925 253.316 71.01 253.4C72.8275 253.316 74.6488 253.403 76.45 253.66V253.66Z" fill="white"/>
    <path d="M56.63 263.69C56.63 263.83 50.4 263.95 42.71 263.95C35.02 263.95 28.79 263.83 28.79 263.69C28.79 263.55 35.02 263.42 42.71 263.42C50.4 263.42 56.63 263.54 56.63 263.69Z" fill="white"/>
    <path d="M76.45 263.62C74.6494 263.883 72.8275 263.97 71.01 263.88C69.1925 263.97 67.3706 263.883 65.57 263.62C67.3712 263.363 69.1925 263.276 71.01 263.36C72.8275 263.276 74.6488 263.363 76.45 263.62V263.62Z" fill="white"/>
    <path d="M56.63 273.64C56.63 273.79 50.4 273.9 42.71 273.9C35.02 273.9 28.79 273.79 28.79 273.64C28.79 273.49 35.02 273.38 42.71 273.38C50.4 273.38 56.63 273.5 56.63 273.64Z" fill="white"/>
    <path d="M76.45 273.58C74.6488 273.837 72.8275 273.924 71.01 273.84C69.1925 273.924 67.3712 273.837 65.57 273.58C67.3712 273.323 69.1925 273.236 71.01 273.32C72.8275 273.236 74.6488 273.323 76.45 273.58V273.58Z" fill="white"/>
    <path d="M707.7 28.8101H179V80.4501H707.7V28.8101Z" fill="#1A73E8"/>
    <g opacity="0.3">
        <path opacity="0.3" d="M284.72 28.8101L234.09 80.4601H271.41L320.92 28.8101H284.72Z" fill="white"/>
    </g>
    <g opacity="0.3">
        <path opacity="0.3" d="M288.54 80.4601L335.04 28.8101H346.61L299.86 80.4601H288.54Z" fill="white"/>
    </g>
    <g opacity="0.3">
        <path opacity="0.3" d="M595.93 28.8101L545.29 80.4601H582.62L632.13 28.8101H595.93Z" fill="white"/>
    </g>
    <g opacity="0.3">
        <path opacity="0.3" d="M599.75 80.4601L646.25 28.8101H657.81L611.06 80.4601H599.75Z" fill="white"/>
    </g>
    <path d="M441.25 58.63C457.382 58.63 470.46 45.5522 470.46 29.42C470.46 13.2877 457.382 0.209961 441.25 0.209961C425.118 0.209961 412.04 13.2877 412.04 29.42C412.04 45.5522 425.118 58.63 441.25 58.63Z" fill="#F56D45"/>
    <path d="M470.46 29.42C470.452 29.2635 470.452 29.1066 470.46 28.95C470.46 28.61 470.4 28.1501 470.36 27.5601C470.36 27.2601 470.34 26.9267 470.3 26.5601C470.3 26.1901 470.17 25.79 470.11 25.35C469.978 24.3361 469.77 23.3334 469.49 22.35C468.813 19.6192 467.72 17.0088 466.25 14.61C464.132 11.0814 461.291 8.04206 457.912 5.69257C454.533 3.34307 450.695 1.7369 446.65 0.980042C445.441 0.755063 444.218 0.611415 442.99 0.550049C442.36 0.550049 441.73 0.470042 441.1 0.480042L439.18 0.580017C438.529 0.600474 437.88 0.670701 437.24 0.790039C436.6 0.900039 435.94 0.980046 435.3 1.11005C433.986 1.4041 432.693 1.78495 431.43 2.25006C430.136 2.71392 428.876 3.26861 427.66 3.91003C427.05 4.24003 426.46 4.63005 425.85 4.99005C425.242 5.34734 424.66 5.74841 424.11 6.19006C422.954 7.04789 421.855 7.97983 420.82 8.98004C419.805 10.0379 418.86 11.1602 417.99 12.34C416.185 14.7643 414.787 17.4663 413.85 20.34C412.899 23.2952 412.397 26.376 412.36 29.48C412.391 32.5813 412.894 35.6597 413.85 38.61C414.785 41.4842 416.184 44.1865 417.99 46.61C418.857 47.7923 419.802 48.9148 420.82 49.97C421.855 50.9702 422.954 51.9022 424.11 52.76C424.662 53.2016 425.244 53.6058 425.85 53.97C426.46 54.33 427.05 54.71 427.66 55.04C428.876 55.6847 430.136 56.2427 431.43 56.71C432.695 57.1673 433.988 57.5447 435.3 57.84C435.95 57.98 436.6 58.05 437.3 58.16C437.937 58.2799 438.582 58.3501 439.23 58.3701L441.15 58.47C441.78 58.47 442.41 58.42 443.04 58.4C444.268 58.342 445.491 58.2017 446.7 57.98C450.745 57.219 454.583 55.6101 457.961 53.2591C461.339 50.9081 464.181 47.8684 466.3 44.34C467.768 41.9439 468.861 39.337 469.54 36.61C469.819 35.6265 470.027 34.6238 470.16 33.61C470.22 33.17 470.31 32.76 470.35 32.39C470.39 32.02 470.35 31.68 470.41 31.39C470.41 30.8 470.48 30.3901 470.51 30.0001C470.502 29.8435 470.502 29.6866 470.51 29.53C470.51 29.53 470.51 29.6901 470.51 30.0001C470.51 30.3101 470.51 30.8 470.51 31.4C470.51 31.7 470.51 32.05 470.51 32.4C470.51 32.75 470.4 33.19 470.34 33.63C470.229 34.6434 470.039 35.6465 469.77 36.63C469.115 39.3882 468.039 42.0291 466.58 44.46C464.459 48.0478 461.6 51.1435 458.191 53.5417C454.783 55.9399 450.903 57.5858 446.81 58.3701C445.582 58.6045 444.339 58.7515 443.09 58.8101C442.46 58.8101 441.82 58.9 441.17 58.89L439.23 58.8C438.559 58.7811 437.89 58.7109 437.23 58.59C436.58 58.48 435.91 58.41 435.23 58.27C433.897 57.9761 432.584 57.5953 431.3 57.13C429.983 56.6596 428.7 56.0983 427.46 55.45C426.83 55.11 426.24 54.72 425.62 54.35C424.998 53.9862 424.404 53.5784 423.84 53.13C421.437 51.3967 419.329 49.2861 417.6 46.88C415.769 44.4214 414.347 41.6827 413.39 38.77C411.363 32.7356 411.363 26.2044 413.39 20.17C414.35 17.2569 415.775 14.5182 417.61 12.0601C418.489 10.8545 419.455 9.71474 420.5 8.65002C421.547 7.62811 422.663 6.67926 423.84 5.81006C424.404 5.36163 424.998 4.95389 425.62 4.59003C426.24 4.22003 426.83 3.83006 427.46 3.50006C428.7 2.8518 429.983 2.2904 431.3 1.82001C432.582 1.34693 433.895 0.962722 435.23 0.670044C435.89 0.540044 436.56 0.460046 437.23 0.360046C437.89 0.23421 438.559 0.163942 439.23 0.150024L441.17 0.0500488C441.82 0.0500488 442.46 0.110005 443.09 0.130005C444.339 0.189169 445.582 0.336202 446.81 0.570007C450.903 1.35428 454.783 3.00017 458.191 5.39838C461.6 7.79658 464.459 10.8923 466.58 14.48C468.039 16.9144 469.115 19.5586 469.77 22.32C470.038 23.3036 470.229 24.3066 470.34 25.32C470.4 25.77 470.47 26.17 470.51 26.55V27.55C470.51 28.14 470.51 28.6001 470.51 28.9401C470.51 29.2801 470.46 29.42 470.46 29.42Z" fill="#263238"/>
    <path d="M434.3 15.99H448.05H448.18C448.749 16.0927 449.265 16.3895 449.64 16.83C450.047 17.3426 450.253 17.9861 450.22 18.64V33.96H451.31V33.66C451.31 30.78 451.31 27.91 451.31 25.03C451.301 24.758 451.374 24.4896 451.52 24.2599C452.23 23.2599 452.97 22.34 453.72 21.39C453.786 21.3013 453.869 21.2269 453.964 21.1715C454.06 21.1161 454.165 21.0807 454.275 21.0676C454.384 21.0545 454.495 21.0639 454.601 21.0953C454.707 21.1266 454.805 21.1793 454.89 21.25C455.056 21.3884 455.161 21.586 455.183 21.8007C455.206 22.0154 455.143 22.2303 455.01 22.4C454.843 22.64 454.663 22.87 454.47 23.09C454.348 23.2352 454.284 23.4204 454.29 23.61C454.29 24.61 454.29 25.61 454.29 26.61C454.302 26.7263 454.288 26.8438 454.25 26.9544C454.212 27.065 454.151 27.166 454.07 27.2506C453.989 27.3352 453.891 27.4012 453.782 27.4443C453.674 27.4873 453.557 27.5064 453.44 27.5C453.29 27.5 453.13 27.5 452.95 27.5V34.74C452.95 35.41 452.64 35.74 451.95 35.74C451.45 35.74 450.95 35.74 450.45 35.74C450.24 35.74 450.18 35.8099 450.18 36.0099C450.18 37.0099 450.18 38.0099 450.18 39.0099C450.176 39.0832 450.176 39.1567 450.18 39.23H450.8C451.5 39.23 451.8 39.53 451.8 40.23V43.11C451.8 43.88 451.52 44.17 450.75 44.17H431.55C430.79 44.17 430.63 44.05 430.4 43.34V40.06C430.63 39.35 430.79 39.23 431.55 39.23H432.07V32.3C432.07 27.8 432.07 23.3 432.07 18.8C432.035 18.3799 432.109 17.9578 432.284 17.5743C432.459 17.1908 432.73 16.8587 433.07 16.61C433.456 16.3595 433.869 16.1516 434.3 15.99Z" fill="white"/>
    <path d="M441.19 26.85H436.39C435.73 26.85 435.39 26.54 435.39 25.85V20.26C435.39 19.58 435.7 19.26 436.39 19.26H445.92C446.59 19.26 446.92 19.57 446.92 20.26V25.85C446.92 26.55 446.62 26.85 445.92 26.85H441.19Z" fill="#F56D45"/>
    <path d="M437.31 30.2401H436.31C436.201 30.2456 436.092 30.2286 435.989 30.1902C435.887 30.1519 435.793 30.0929 435.715 30.017C435.636 29.9411 435.574 29.8498 435.532 29.7489C435.489 29.648 435.469 29.5395 435.47 29.4301C435.469 29.3199 435.49 29.2105 435.531 29.1085C435.573 29.0065 435.635 28.914 435.714 28.8365C435.792 28.7591 435.885 28.6982 435.988 28.6576C436.09 28.617 436.2 28.5974 436.31 28.6001C436.977 28.6001 437.677 28.6001 438.41 28.6001C438.521 28.5988 438.631 28.6196 438.733 28.6613C438.836 28.7031 438.929 28.7649 439.007 28.8431C439.085 28.9214 439.147 29.0145 439.189 29.1171C439.231 29.2196 439.251 29.3294 439.25 29.4401C439.248 29.5496 439.223 29.6574 439.178 29.7572C439.133 29.8571 439.069 29.9469 438.989 30.0215C438.909 30.096 438.814 30.1538 438.712 30.1913C438.609 30.2289 438.499 30.2455 438.39 30.2401H437.31Z" fill="#F56D45"/>
    <path d="M450.59 38.98C444.368 39.3266 438.132 39.3266 431.91 38.98C438.132 38.6333 444.368 38.6333 450.59 38.98Z" fill="#E0E0E0"/>
    <path d="M406.77 123.93H337.45V151.47H406.77V123.93Z" fill="#F9F9F9"/>
    <path d="M406.77 123.93H337.45V135.67H406.77V123.93Z" fill="#263238"/>
    <path d="M369.31 135.67H337.45V151.47H369.31V135.67Z" fill="#EBEBEB"/>
    <path d="M364.22 145.89C364.22 146.03 359.37 146.15 353.38 146.15C347.39 146.15 342.54 146.03 342.54 145.89C342.54 145.75 347.39 145.63 353.38 145.63C359.37 145.63 364.22 145.74 364.22 145.89Z" fill="#263238"/>
    <path d="M364.22 142.21C364.22 142.36 359.37 142.48 353.38 142.48C347.39 142.48 342.54 142.36 342.54 142.21C342.54 142.06 347.39 141.95 353.38 141.95C359.37 141.95 364.22 142.07 364.22 142.21Z" fill="#263238"/>
    <path d="M397.96 145.89C397.96 146.03 392.54 146.15 385.85 146.15C379.16 146.15 373.75 146.03 373.75 145.89C373.75 145.75 379.17 145.63 385.85 145.63C392.53 145.63 397.96 145.74 397.96 145.89Z" fill="#263238"/>
    <path d="M397.96 142.21C397.96 142.36 392.54 142.48 385.85 142.48C379.16 142.48 373.75 142.36 373.75 142.21C373.75 142.06 379.17 141.95 385.85 141.95C392.53 141.95 397.96 142.07 397.96 142.21Z" fill="#263238"/>
    <path d="M401.54 129.8C401.54 129.94 388.33 130.06 372.04 130.06C355.75 130.06 342.54 129.94 342.54 129.8C342.54 129.66 355.75 129.54 372.04 129.54C388.33 129.54 401.54 129.66 401.54 129.8Z" fill="white"/>
    <path d="M309.68 218.1H304.53V225.48H309.68V218.1Z" fill="#263238"/>
    <path d="M313.71 238.76H279.58V265.27H313.71V238.76Z" fill="#F5F5F5"/>
    <path d="M320.58 101.82H233.75V181.28H320.58V101.82Z" fill="#1A73E8"/>
    <path d="M273.78 213.74V323.82H319.02V213.74H273.78ZM312.78 264.59H280.08V218.1H312.75L312.78 264.59Z" fill="#E0E0E0"/>
    <path d="M290.97 264.4H279.89V286.62H290.97V264.4Z" fill="#F56D45"/>
    <path d="M237.22 323.82L218.89 323.72V97H237.22V323.82Z" fill="#E0E0E0"/>
    <path d="M237.22 323.82C237.22 323.82 237.22 323.42 237.22 322.65C237.22 321.88 237.22 320.74 237.22 319.25C237.22 316.25 237.22 311.85 237.22 306.17C237.22 294.81 237.17 278.36 237.14 257.93C237.14 217.12 237.07 160.45 237.03 96.9999L237.29 97.2599H218.89L219.15 96.9999C219.08 199.6 219.02 287.44 218.99 323.72L218.89 323.62L232.49 323.75H236.01H237.22H232.54H218.88H218.78V323.65C218.78 287.37 218.69 199.53 218.62 96.9299V96.6699H237.47V96.9299C237.42 160.46 237.38 217.19 237.36 258.05C237.36 278.45 237.3 294.88 237.28 306.23C237.28 311.88 237.28 316.23 237.28 319.23C237.28 320.7 237.28 321.83 237.28 322.59C237.28 323.35 237.22 323.82 237.22 323.82Z" fill="#263238"/>
    <path d="M337.26 93.24H318.99V323.82H337.26V93.24Z" fill="#E0E0E0"/>
    <path d="M337.26 323.82C337.26 323.82 337.26 323.41 337.26 322.63C337.26 321.85 337.26 320.63 337.26 319.17C337.26 316.17 337.26 311.65 337.26 305.88C337.26 294.33 337.26 277.6 337.18 256.83C337.18 215.34 337.12 157.73 337.08 93.2399L337.33 93.4999H318.99L319.25 93.2399C319.18 197.83 319.12 287.32 319.09 323.82L318.99 323.72L332.57 323.78H336.07H337.26H336.1H332.62L318.99 323.84H318.9V323.74C318.9 287.24 318.81 197.74 318.73 93.1599V92.8999H337.54V93.1599C337.54 157.73 337.46 215.4 337.43 256.94C337.43 277.68 337.38 294.39 337.36 305.94C337.36 311.68 337.36 316.14 337.36 319.17C337.36 320.67 337.36 321.81 337.36 322.6C337.36 323.39 337.26 323.82 337.26 323.82Z" fill="#263238"/>
    <path d="M289.11 218.1H283.96V225.48H289.11V218.1Z" fill="#263238"/>
    <path d="M299.22 218.1H294.07V225.48H299.22V218.1Z" fill="#263238"/>
    <path d="M273.76 283.97H237.22V323.82H273.76V283.97Z" fill="#1A73E8"/>
    <path d="M273.76 213.74H246.57V283.97H273.76V213.74Z" fill="#E0E0E0"/>
    <path d="M288.1 267.99H282.7V286.62H288.1V267.99Z" fill="#263238"/>
    <path d="M286.24 276.29H284.61V270.48C284.61 270.265 284.695 270.059 284.847 269.907C284.999 269.755 285.205 269.67 285.42 269.67C285.527 269.669 285.634 269.689 285.733 269.729C285.832 269.769 285.923 269.828 285.999 269.904C286.075 269.979 286.136 270.069 286.177 270.168C286.219 270.267 286.24 270.373 286.24 270.48V276.29Z" fill="#E0E0E0"/>
    <path d="M280.54 319.53C279.331 319.605 278.141 319.205 277.224 318.414C276.307 317.624 275.735 316.506 275.63 315.3C275.53 311.77 275.56 306.13 275.58 301.15C275.58 298.87 275.58 296.71 275.58 294.92C275.58 289.29 279.17 270.98 281.79 257.61C282.79 252.8 283.55 248.61 284.04 245.9C284.53 243.19 285.23 237.38 285.97 224.21C286.02 223.3 286.03 223.06 286.51 223.06V223.56L287 223.61C287 223.61 287 223.89 287 224.27C286.26 237.48 285.54 243.42 285.07 246.08C284.6 248.74 283.76 252.99 282.82 257.8C280.19 271.13 276.61 289.38 276.62 294.92C276.62 296.71 276.62 298.92 276.62 301.15C276.62 306.15 276.57 311.76 276.67 315.27C276.781 316.211 277.248 317.073 277.975 317.679C278.703 318.286 279.635 318.59 280.58 318.53C281.133 318.541 281.683 318.443 282.198 318.24C282.713 318.038 283.183 317.735 283.58 317.35C283.874 317.064 284.107 316.722 284.267 316.344C284.427 315.966 284.509 315.56 284.51 315.15L284.59 285.41H285.59L285.51 315.13C285.511 315.672 285.403 316.208 285.193 316.708C284.984 317.208 284.677 317.661 284.29 318.04C283.796 318.526 283.21 318.909 282.566 319.164C281.922 319.42 281.233 319.545 280.54 319.53Z" fill="#263238"/>
    <path d="M270.19 223.56H250.14V238.51H270.19V223.56Z" fill="#F56D45"/>
    <path d="M268.11 225.25H252.22V236.82H268.11V225.25Z" fill="#263238"/>
    <path d="M260.18 246.32C260.082 245.447 260.028 244.569 260.02 243.69L260.18 243.85C258.02 243.91 254.62 243.95 250.8 243.95L251.06 243.69V246.3L250.81 246.04C253.44 246.04 255.74 246.11 257.43 246.16C258.352 246.156 259.273 246.202 260.19 246.3C259.33 246.393 258.465 246.437 257.6 246.43C255.93 246.48 253.55 246.54 250.81 246.55H250.54V243.69L250.81 243.43C254.63 243.43 258.03 243.43 260.19 243.52H260.36V243.66C260.367 244.55 260.307 245.439 260.18 246.32Z" fill="#263238"/>
    <path d="M286.95 276.29H283.9V288.44H286.95V276.29Z" fill="#1A73E8"/>
    <path d="M301.39 264.4H290.31V286.62H301.39V264.4Z" fill="#F56D45"/>
    <path d="M298.53 267.99H293.13V286.62H298.53V267.99Z" fill="#263238"/>
    <path d="M296.67 276.29H295.03V270.48C295.033 270.264 295.12 270.058 295.274 269.907C295.427 269.755 295.634 269.67 295.85 269.67C296.066 269.67 296.273 269.755 296.426 269.907C296.58 270.058 296.667 270.264 296.67 270.48V276.29Z" fill="#E0E0E0"/>
    <path d="M290.98 319.53C288.42 319.53 287.49 319.1 287.43 316.65C287.33 313.13 287.35 307.48 287.37 302.5C287.37 300.23 287.37 298.07 287.37 296.28C287.37 290.64 290.96 272.28 293.59 258.95C294.53 254.15 295.35 250.01 295.84 247.26C296.52 243.45 296.74 235.21 296.45 224.04C296.45 223.36 296.45 223.36 296.59 223.21L296.94 223.56H297.44C297.44 223.56 297.44 223.75 297.44 224.01C297.61 230.51 297.74 242.2 296.81 247.42C296.32 250.18 295.51 254.33 294.56 259.14C291.94 272.47 288.35 290.73 288.36 296.27C288.36 298.06 288.36 300.27 288.36 302.5C288.36 307.5 288.36 313.1 288.42 316.61C288.42 318.33 288.73 318.52 290.97 318.52C291.523 318.53 292.073 318.431 292.587 318.229C293.102 318.026 293.572 317.724 293.97 317.34C294.262 317.053 294.494 316.711 294.652 316.333C294.81 315.955 294.891 315.549 294.89 315.14L294.97 285.4H295.97L295.89 315.12C295.896 315.662 295.792 316.199 295.584 316.699C295.376 317.199 295.068 317.652 294.68 318.03C294.192 318.511 293.614 318.891 292.979 319.148C292.344 319.406 291.665 319.535 290.98 319.53Z" fill="#263238"/>
    <path d="M297.38 276.29H294.33V288.44H297.38V276.29Z" fill="#F56D45"/>
    <path d="M311.82 264.4H300.74V286.62H311.82V264.4Z" fill="#F56D45"/>
    <path d="M308.95 267.99H303.55V286.62H308.95V267.99Z" fill="#263238"/>
    <path d="M307.1 276.29H305.46V270.48C305.463 270.264 305.55 270.058 305.704 269.907C305.857 269.755 306.064 269.67 306.28 269.67C306.496 269.67 306.703 269.755 306.856 269.907C307.01 270.058 307.097 270.264 307.1 270.48V276.29Z" fill="#E0E0E0"/>
    <path d="M310.31 242.45H301.87V250.89H310.31V242.45Z" fill="#F56D45"/>
    <path d="M298.01 244.8C295.543 245.063 293.06 245.15 290.58 245.06C288.1 245.15 285.617 245.063 283.15 244.8C285.618 244.543 288.1 244.456 290.58 244.54C293.06 244.456 295.542 244.543 298.01 244.8Z" fill="#263238"/>
    <path d="M298.01 246.73C295.543 246.993 293.06 247.08 290.58 246.99C288.1 247.08 285.617 246.993 283.15 246.73C285.618 246.473 288.1 246.386 290.58 246.47C293.06 246.386 295.542 246.473 298.01 246.73Z" fill="#263238"/>
    <path d="M298.01 248.66C295.542 248.917 293.06 249.004 290.58 248.92C288.1 249.004 285.618 248.917 283.15 248.66C285.617 248.397 288.1 248.31 290.58 248.4C293.06 248.31 295.543 248.397 298.01 248.66Z" fill="#263238"/>
    <path d="M302.39 319.53H301.39V319.45C300.358 319.317 299.404 318.83 298.69 318.074C297.975 317.318 297.544 316.338 297.47 315.3C297.37 311.77 297.4 306.13 297.42 301.15C297.42 298.87 297.42 296.71 297.42 294.92C297.42 289.29 301.01 270.98 303.63 257.61C304.58 252.8 305.39 248.61 305.88 245.9C306.56 242.11 306.88 234.35 306.88 224.04C306.88 223.35 306.88 223.35 307.03 223.21L307.38 223.56H307.88V224.02C307.88 234.38 307.58 242.21 306.88 246.02C306.39 248.78 305.57 252.93 304.63 257.74C302 271.07 298.42 289.32 298.43 294.86C298.43 296.65 298.43 298.86 298.43 301.09C298.43 306.09 298.38 311.7 298.48 315.21C298.572 316.069 298.966 316.866 299.593 317.46C300.22 318.054 301.038 318.405 301.9 318.45C302.837 318.353 303.713 317.945 304.39 317.29C304.976 316.707 305.307 315.916 305.31 315.09L305.39 285.35H306.39L306.31 315.07C306.316 315.612 306.212 316.149 306.004 316.649C305.796 317.149 305.488 317.602 305.1 317.98C304.361 318.712 303.415 319.201 302.39 319.38V319.53Z" fill="#263238"/>
    <path d="M273.78 213.32C273.92 213.32 274.04 237.81 274.04 268.01C274.04 298.21 273.92 322.7 273.78 322.7C273.64 322.7 273.52 298.22 273.52 268.01C273.52 237.8 273.64 213.32 273.78 213.32Z" fill="#263238"/>
    <path d="M252.36 225.35C252.27 225.47 251.7 225.15 251.08 224.66C250.46 224.17 250.08 223.66 250.14 223.56C250.2 223.46 250.8 223.76 251.41 224.25C252.02 224.74 252.45 225.24 252.36 225.35Z" fill="#263238"/>
    <path d="M270.29 223.56C270.39 223.67 269.9 224.24 269.2 224.84C268.5 225.44 267.87 225.84 267.78 225.72C267.69 225.6 268.17 225.04 268.87 224.44C269.57 223.84 270.2 223.45 270.29 223.56Z" fill="#263238"/>
    <path d="M268.04 236.71C268.13 236.6 268.7 236.91 269.31 237.41C269.92 237.91 270.31 238.41 270.31 238.51C270.31 238.61 269.65 238.31 269.03 237.81C268.41 237.31 267.95 236.82 268.04 236.71Z" fill="#263238"/>
    <path d="M250.1 238.51C250.01 238.4 250.5 237.83 251.19 237.23C251.88 236.63 252.53 236.23 252.62 236.35C252.71 236.47 252.23 237.03 251.53 237.63C250.83 238.23 250.2 238.66 250.1 238.51Z" fill="#263238"/>
    <path d="M273.19 115.45H284.19H284.29C284.748 115.526 285.163 115.764 285.46 116.12C285.789 116.529 285.957 117.045 285.93 117.57V129.88H286.81V129.66C286.81 127.347 286.81 125.037 286.81 122.73C286.8 122.512 286.856 122.296 286.97 122.11C287.54 121.33 288.14 120.57 288.74 119.81C288.792 119.738 288.858 119.678 288.935 119.632C289.011 119.587 289.096 119.558 289.184 119.547C289.272 119.535 289.362 119.542 289.447 119.567C289.532 119.592 289.611 119.633 289.68 119.69C289.815 119.801 289.9 119.961 289.919 120.135C289.938 120.308 289.888 120.483 289.78 120.62C289.64 120.81 289.5 121 289.35 121.18C289.299 121.235 289.259 121.299 289.233 121.37C289.208 121.44 289.196 121.515 289.2 121.59C289.2 122.39 289.2 123.19 289.2 123.99C289.209 124.084 289.197 124.179 289.166 124.268C289.135 124.358 289.085 124.439 289.019 124.507C288.954 124.576 288.875 124.629 288.787 124.664C288.699 124.699 288.604 124.715 288.51 124.71H288.12V130.52C288.137 130.626 288.129 130.735 288.096 130.838C288.063 130.94 288.006 131.033 287.93 131.11C287.853 131.186 287.76 131.243 287.658 131.276C287.555 131.309 287.446 131.317 287.34 131.3C286.93 131.3 286.53 131.3 286.13 131.3C285.96 131.3 285.92 131.3 285.92 131.52C285.92 132.31 285.92 133.1 285.92 133.89C285.916 133.95 285.916 134.01 285.92 134.07H286.42C286.98 134.07 287.22 134.31 287.22 134.87V137.18C287.22 137.81 286.99 138.03 286.38 138.03H271.03C270.42 138.03 270.29 137.94 270.11 137.37V134.66C270.29 134.1 270.42 134 271.03 134H271.45V117.66C271.427 117.324 271.489 116.987 271.63 116.681C271.772 116.375 271.988 116.11 272.26 115.91C272.553 115.724 272.864 115.57 273.19 115.45Z" fill="white"/>
    <path d="M278.72 124.17H274.87C274.34 124.17 274.09 123.92 274.09 123.38V118.88C274.09 118.33 274.34 118.09 274.89 118.09H282.54C282.648 118.073 282.758 118.082 282.861 118.115C282.965 118.149 283.059 118.207 283.136 118.284C283.214 118.361 283.271 118.455 283.305 118.559C283.339 118.662 283.347 118.772 283.33 118.88V123.37C283.33 123.93 283.09 124.17 282.52 124.17H278.72Z" fill="#1A73E8"/>
    <path d="M275.61 126.89H274.77C274.683 126.894 274.595 126.88 274.513 126.85C274.432 126.819 274.357 126.771 274.294 126.71C274.231 126.649 274.182 126.576 274.148 126.495C274.115 126.415 274.098 126.328 274.1 126.24C274.099 126.152 274.115 126.065 274.148 125.984C274.182 125.902 274.231 125.829 274.294 125.767C274.356 125.705 274.431 125.657 274.513 125.625C274.595 125.593 274.682 125.577 274.77 125.58H276.46C276.553 125.569 276.647 125.577 276.736 125.605C276.826 125.632 276.908 125.679 276.978 125.741C277.048 125.803 277.104 125.879 277.143 125.964C277.181 126.049 277.201 126.142 277.201 126.235C277.201 126.329 277.181 126.421 277.143 126.506C277.104 126.592 277.048 126.668 276.978 126.73C276.908 126.792 276.826 126.838 276.736 126.866C276.647 126.893 276.553 126.902 276.46 126.89H275.61Z" fill="#1A73E8"/>
    <path d="M286.27 133.91C283.779 134.167 281.273 134.254 278.77 134.17C276.267 134.254 273.761 134.167 271.27 133.91C273.761 133.647 276.267 133.56 278.77 133.65C281.273 133.56 283.779 133.647 286.27 133.91Z" fill="#1A73E8"/>
    <path d="M302 153.5C302 153.769 291.251 154 278 154C264.749 154 254 153.769 254 153.5C254 153.231 264.749 153 278 153C291.251 153 302 153.212 302 153.5Z" fill="white"/>
    <path d="M367.99 323.73C367.99 323.87 329.45 323.99 281.92 323.99C234.39 323.99 195.84 323.87 195.84 323.73C195.84 323.59 234.37 323.47 281.92 323.47C329.47 323.47 367.99 323.58 367.99 323.73Z" fill="#263238"/>
    <path d="M307.81 276.29H304.76V288.44H307.81V276.29Z" fill="#F5F5F5"/>
    <path d="M357.45 80.46H197.15V91.87H357.45V80.46Z" fill="#E0E0E0"/>
    <path d="M197.15 80.46C197.15 80.46 197.41 80.46 197.94 80.46H200.32H209.52L243.59 80.38L357.44 80.28H357.7V91.9301V92.1901H357.44L197.15 92.02H197.05V91.9301C197.05 88.1501 197.05 85.3001 197.11 83.3701V81.23C197.11 80.76 197.11 80.53 197.11 80.53C197.11 80.53 197.11 80.78 197.11 81.26V83.42C197.11 85.34 197.11 88.1801 197.17 91.9301L197.08 91.84L357.37 91.67L357.11 91.9301V80.46L357.37 80.72L243.78 80.66L209.65 80.58H200.39H197.98L197.15 80.46Z" fill="#263238"/>
    <path d="M217.18 102.13L197.14 91.8601H357.44L337.4 102.13H217.18Z" fill="#E0E0E0"/>
    <path d="M217.18 102.13H217.77H219.51H226.22L251.28 102.05L337.4 101.96H337.29L357.29 91.6799L357.41 92.1699H337.41L197.15 92.0399V91.7899L211.98 99.4699L215.83 101.47L216.83 101.99L217.15 102.18L216.82 102.03L215.82 101.54L211.95 99.5999L197.05 92.0299L196.56 91.7799H197.11L337.37 91.6499H358.54L357.54 92.1399L337.54 102.4H337.48H337.42L251.25 102.31L226.2 102.23H219.51H217.78L217.18 102.13Z" fill="#263238"/>
    <path d="M302 164.5C302 164.788 291.251 165 278 165C264.749 165 254 164.788 254 164.5C254 164.212 264.749 164 278 164C291.251 164 302 164.231 302 164.5Z" fill="white"/>
    <path d="M745.65 123.93H676.33V151.47H745.65V123.93Z" fill="#F9F9F9"/>
    <path d="M745.65 123.93H676.33V135.67H745.65V123.93Z" fill="#263238"/>
    <path d="M708.19 135.67H676.33V151.47H708.19V135.67Z" fill="#EBEBEB"/>
    <path d="M703.1 145.89C703.1 146.03 698.25 146.15 692.26 146.15C686.27 146.15 681.42 146.03 681.42 145.89C681.42 145.75 686.28 145.63 692.26 145.63C698.24 145.63 703.1 145.74 703.1 145.89Z" fill="#263238"/>
    <path d="M703.1 142.21C703.1 142.36 698.25 142.48 692.26 142.48C686.27 142.48 681.42 142.36 681.42 142.21C681.42 142.06 686.28 141.95 692.26 141.95C698.24 141.95 703.1 142.07 703.1 142.21Z" fill="#263238"/>
    <path d="M736.84 145.89C736.84 146.03 731.42 146.15 724.73 146.15C718.04 146.15 712.63 146.03 712.63 145.89C712.63 145.75 718.05 145.63 724.73 145.63C731.41 145.63 736.84 145.74 736.84 145.89Z" fill="#263238"/>
    <path d="M736.84 142.21C736.84 142.36 731.42 142.48 724.73 142.48C718.04 142.48 712.63 142.36 712.63 142.21C712.63 142.06 718.05 141.95 724.73 141.95C731.41 141.95 736.84 142.07 736.84 142.21Z" fill="#263238"/>
    <path d="M740.42 129.8C740.42 129.94 727.21 130.06 710.92 130.06C694.63 130.06 681.42 129.94 681.42 129.8C681.42 129.66 694.63 129.54 710.92 129.54C727.21 129.54 740.42 129.66 740.42 129.8Z" fill="white"/>
    <path d="M648.56 218.1H643.41V225.48H648.56V218.1Z" fill="#263238"/>
    <path d="M652.59 238.76H618.46V265.27H652.59V238.76Z" fill="#F5F5F5"/>
    <path d="M659.47 101.82H572.64V181.28H659.47V101.82Z" fill="#1A73E8"/>
    <path d="M612.66 213.74V323.82H657.9V213.74H612.66ZM651.66 264.59H618.97V218.1H651.65L651.66 264.59Z" fill="#E0E0E0"/>
    <path d="M629.85 264.4H618.77V286.62H629.85V264.4Z" fill="#F56D45"/>
    <path d="M576.1 323.82L557.77 323.72V97H576.1V323.82Z" fill="#E0E0E0"/>
    <path d="M576.1 323.82C576.1 323.82 576.1 323.42 576.1 322.65C576.1 321.88 576.1 320.74 576.1 319.25C576.1 316.25 576.1 311.85 576.1 306.17C576.1 294.81 576.1 278.36 576.02 257.93C576.02 217.12 575.95 160.45 575.91 96.9999L576.17 97.2599H557.77L558.03 96.9999C557.96 199.6 557.9 287.44 557.87 323.72L557.77 323.62L571.37 323.75H574.89H576.1H571.43H557.77H557.68V323.65C557.68 287.37 557.59 199.53 557.51 96.9299V96.6699H576.36V96.9299C576.36 160.46 576.28 217.19 576.25 258.05C576.25 278.45 576.19 294.88 576.17 306.23C576.17 311.88 576.17 316.23 576.17 319.23C576.17 320.7 576.17 321.83 576.17 322.59C576.17 323.35 576.1 323.82 576.1 323.82Z" fill="#263238"/>
    <path d="M676.15 93.24H657.88V323.82H676.15V93.24Z" fill="#E0E0E0"/>
    <path d="M676.15 323.82C676.15 323.82 676.15 323.41 676.15 322.63C676.15 321.85 676.15 320.63 676.15 319.17C676.15 316.17 676.15 311.65 676.15 305.88C676.15 294.33 676.15 277.6 676.08 256.83C676.08 215.34 676.01 157.73 675.97 93.2399L676.23 93.4999H657.88L658.14 93.2399C658.06 197.83 658 287.32 657.97 323.82L657.88 323.72L671.45 323.78H674.95H676.15H674.98H671.51L657.88 323.84H657.78V323.74C657.78 287.24 657.69 197.74 657.62 93.1599V92.8999H676.41V93.1599C676.41 157.73 676.32 215.4 676.3 256.94C676.3 277.68 676.24 294.39 676.22 305.94C676.22 311.68 676.22 316.14 676.22 319.17C676.22 320.67 676.22 321.81 676.22 322.6C676.22 323.39 676.15 323.82 676.15 323.82Z" fill="#263238"/>
    <path d="M627.99 218.1H622.84V225.48H627.99V218.1Z" fill="#263238"/>
    <path d="M638.1 218.1H632.95V225.48H638.1V218.1Z" fill="#263238"/>
    <path d="M612.64 283.97H576.1V323.82H612.64V283.97Z" fill="#1A73E8"/>
    <path d="M612.64 213.74H585.45V283.97H612.64V213.74Z" fill="#E0E0E0"/>
    <path d="M626.98 267.99H621.58V286.62H626.98V267.99Z" fill="#263238"/>
    <path d="M625.13 276.29H623.54V270.48C623.54 270.373 623.561 270.267 623.603 270.168C623.644 270.069 623.705 269.979 623.781 269.904C623.857 269.828 623.948 269.769 624.047 269.729C624.146 269.689 624.253 269.669 624.36 269.67C624.576 269.67 624.783 269.755 624.936 269.907C625.09 270.058 625.177 270.264 625.18 270.48L625.13 276.29Z" fill="#E0E0E0"/>
    <path d="M619.43 319.53C618.222 319.602 617.033 319.201 616.117 318.411C615.2 317.621 614.627 316.505 614.52 315.3C614.43 311.77 614.45 306.13 614.47 301.16C614.47 298.88 614.47 296.71 614.47 294.92C614.47 289.29 618.06 270.92 620.69 257.58C621.63 252.79 622.45 248.65 622.94 245.9C623.43 243.15 624.12 237.39 624.86 224.23C624.86 223.31 624.92 223.06 625.4 223.06V223.56L625.89 223.61C625.89 223.61 625.89 223.89 625.89 224.28C625.14 237.5 624.42 243.43 623.95 246.08C623.48 248.73 622.65 252.98 621.7 257.78C619.08 271.12 615.49 289.38 615.5 294.92C615.5 296.71 615.5 298.92 615.5 301.16C615.5 306.16 615.5 311.76 615.55 315.27C615.663 316.21 616.131 317.07 616.858 317.676C617.584 318.282 618.515 318.588 619.46 318.53C620.013 318.541 620.563 318.443 621.078 318.24C621.593 318.038 622.063 317.735 622.46 317.35C622.754 317.064 622.987 316.722 623.147 316.344C623.307 315.966 623.389 315.56 623.39 315.15L623.47 285.41H624.47L624.39 315.13C624.39 315.671 624.283 316.206 624.076 316.706C623.868 317.205 623.564 317.659 623.18 318.04C622.685 318.524 622.098 318.905 621.454 319.161C620.811 319.417 620.123 319.542 619.43 319.53Z" fill="#263238"/>
    <path d="M609.07 223.56H589.02V238.51H609.07V223.56Z" fill="#F56D45"/>
    <path d="M606.99 225.25H591.1V236.82H606.99V225.25Z" fill="#263238"/>
    <path d="M599.06 246.32C599.06 246.32 598.96 245.32 598.9 243.69L599.06 243.85C596.9 243.91 593.5 243.95 589.68 243.95L589.94 243.69V245C589.94 245.44 589.94 245.87 589.94 246.3L589.69 246.04C592.32 246.04 594.63 246.11 596.31 246.16C597.232 246.155 598.153 246.202 599.07 246.3C598.21 246.394 597.345 246.437 596.48 246.43C594.82 246.48 592.48 246.54 589.69 246.55H589.43V243.69L589.69 243.43C593.51 243.43 596.91 243.43 599.07 243.52H599.24V243.66C599.247 244.55 599.187 245.439 599.06 246.32Z" fill="#263238"/>
    <path d="M625.83 276.29H622.78V288.44H625.83V276.29Z" fill="#1A73E8"/>
    <path d="M640.28 264.4H629.2V286.62H640.28V264.4Z" fill="#F56D45"/>
    <path d="M637.41 267.99H632.01V286.62H637.41V267.99Z" fill="#263238"/>
    <path d="M635.54 276.29H633.91V270.48C633.91 270.265 633.995 270.059 634.147 269.907C634.299 269.755 634.505 269.67 634.72 269.67C634.827 269.669 634.934 269.689 635.033 269.729C635.133 269.769 635.223 269.828 635.299 269.904C635.376 269.979 635.436 270.069 635.477 270.168C635.519 270.267 635.54 270.373 635.54 270.48V276.29Z" fill="#E0E0E0"/>
    <path d="M629.86 319.53C627.3 319.53 626.38 319.1 626.31 316.65C626.21 313.12 626.23 307.48 626.31 302.5C626.31 300.22 626.31 298.06 626.31 296.28C626.31 290.64 629.9 272.28 632.53 258.96C633.47 254.16 634.29 250.01 634.78 247.26C635.7 242.11 635.56 230.5 635.4 224.03C635.4 223.37 635.4 223.36 635.53 223.21L635.89 223.56H636.39C636.39 223.56 636.39 223.74 636.39 224C636.55 230.5 636.69 242.19 635.76 247.42C635.26 250.19 634.45 254.34 633.5 259.15C630.88 272.48 627.29 290.73 627.3 296.27C627.3 298.05 627.3 300.21 627.3 302.49C627.3 307.49 627.25 313.1 627.3 316.61C627.35 318.33 627.61 318.52 629.85 318.52C630.403 318.531 630.953 318.433 631.468 318.23C631.983 318.028 632.453 317.725 632.85 317.34C633.144 317.054 633.377 316.712 633.537 316.334C633.697 315.956 633.779 315.55 633.78 315.14L633.86 285.4H634.86L634.78 315.12C634.781 315.662 634.673 316.198 634.463 316.698C634.254 317.198 633.947 317.651 633.56 318.03C633.072 318.511 632.494 318.891 631.859 319.148C631.224 319.406 630.545 319.535 629.86 319.53Z" fill="#263238"/>
    <path d="M636.26 276.29H633.21V288.44H636.26V276.29Z" fill="#F56D45"/>
    <path d="M650.7 264.4H639.62V286.62H650.7V264.4Z" fill="#F56D45"/>
    <path d="M647.84 267.99H642.44V286.62H647.84V267.99Z" fill="#263238"/>
    <path d="M645.98 276.29H644.34V270.48C644.343 270.264 644.43 270.058 644.584 269.907C644.737 269.755 644.944 269.67 645.16 269.67C645.376 269.67 645.583 269.755 645.736 269.907C645.89 270.058 645.977 270.264 645.98 270.48V276.29Z" fill="#E0E0E0"/>
    <path d="M649.19 242.45H640.75V250.89H649.19V242.45Z" fill="#F56D45"/>
    <path d="M636.89 244.8C631.946 245.147 626.984 245.147 622.04 244.8C626.984 244.453 631.946 244.453 636.89 244.8Z" fill="#263238"/>
    <path d="M636.89 246.73C631.946 247.077 626.984 247.077 622.04 246.73C626.984 246.383 631.946 246.383 636.89 246.73Z" fill="#263238"/>
    <path d="M636.89 248.66C631.946 249.007 626.984 249.007 622.04 248.66C626.984 248.313 631.946 248.313 636.89 248.66Z" fill="#263238"/>
    <path d="M641.27 319.53H640.27V319.45C639.236 319.319 638.28 318.834 637.564 318.077C636.847 317.32 636.415 316.339 636.34 315.3C636.25 311.77 636.27 306.13 636.29 301.16C636.29 298.88 636.29 296.71 636.29 294.92C636.29 289.29 639.88 270.92 642.51 257.59C643.45 252.79 644.27 248.65 644.76 245.9C645.43 242.11 645.76 234.34 645.76 224.03C645.76 223.35 645.76 223.35 645.91 223.21L646.26 223.56H646.76V224C646.76 234.37 646.46 242.2 645.76 246.06C645.27 248.81 644.46 252.96 643.51 257.76C640.89 271.1 637.3 289.36 637.31 294.9C637.31 296.69 637.31 298.9 637.31 301.14C637.31 306.14 637.31 311.74 637.36 315.25C637.452 316.109 637.846 316.906 638.473 317.5C639.1 318.094 639.918 318.445 640.78 318.49C641.717 318.393 642.593 317.985 643.27 317.33C643.562 317.043 643.794 316.701 643.952 316.323C644.11 315.945 644.191 315.539 644.19 315.13L644.27 285.39H645.27L645.19 315.11C645.196 315.652 645.092 316.189 644.884 316.689C644.676 317.189 644.368 317.642 643.98 318.02C643.241 318.752 642.295 319.241 641.27 319.42V319.53Z" fill="#263238"/>
    <path d="M612.66 213.32C612.81 213.32 612.92 237.81 612.92 268.01C612.92 298.21 612.81 322.7 612.66 322.7C612.51 322.7 612.4 298.22 612.4 268.01C612.4 237.8 612.54 213.32 612.66 213.32Z" fill="#263238"/>
    <path d="M591.24 225.35C591.15 225.47 590.58 225.15 589.97 224.66C589.36 224.17 588.97 223.66 589.02 223.56C589.07 223.46 589.68 223.76 590.29 224.25C590.9 224.74 591.33 225.24 591.24 225.35Z" fill="#263238"/>
    <path d="M609.18 223.56C609.27 223.67 608.78 224.24 608.09 224.84C607.4 225.44 606.75 225.84 606.66 225.72C606.57 225.6 607.05 225.04 607.75 224.44C608.45 223.84 609.08 223.45 609.18 223.56Z" fill="#263238"/>
    <path d="M606.92 236.71C607.01 236.6 607.58 236.91 608.19 237.41C608.8 237.91 609.19 238.41 609.19 238.51C609.19 238.61 608.53 238.31 607.92 237.81C607.31 237.31 606.83 236.82 606.92 236.71Z" fill="#263238"/>
    <path d="M588.98 238.51C588.89 238.4 589.38 237.83 590.07 237.23C590.76 236.63 591.41 236.23 591.5 236.35C591.59 236.47 591.11 237.03 590.41 237.63C589.71 238.23 589.08 238.66 588.98 238.51Z" fill="#263238"/>
    <path d="M612.07 115.45H623.12H623.21C623.669 115.529 624.087 115.766 624.39 116.12C624.712 116.533 624.875 117.047 624.85 117.57V129.88H625.73V129.66C625.73 127.347 625.73 125.037 625.73 122.73C625.725 122.512 625.78 122.298 625.89 122.11C626.46 121.33 627.06 120.57 627.66 119.81C627.712 119.738 627.778 119.678 627.855 119.632C627.931 119.587 628.016 119.558 628.104 119.547C628.192 119.535 628.282 119.542 628.367 119.567C628.452 119.592 628.531 119.633 628.6 119.69C628.735 119.801 628.82 119.961 628.839 120.135C628.858 120.308 628.808 120.483 628.7 120.62C628.56 120.81 628.42 121 628.27 121.18C628.219 121.235 628.179 121.299 628.153 121.37C628.128 121.44 628.116 121.515 628.12 121.59C628.12 122.39 628.12 123.19 628.12 123.99C628.129 124.083 628.117 124.177 628.087 124.266C628.056 124.354 628.007 124.435 627.943 124.504C627.878 124.572 627.8 124.625 627.714 124.661C627.627 124.696 627.534 124.713 627.44 124.71H627.04V125.79C627.04 127.37 627.04 128.94 627.04 130.52C627.04 131.06 626.8 131.3 626.26 131.3C625.72 131.3 625.45 131.3 625.05 131.3C624.88 131.3 624.84 131.3 624.84 131.52C624.84 132.31 624.84 133.1 624.84 133.89C624.836 133.95 624.836 134.01 624.84 134.07H625.34C625.9 134.07 626.14 134.31 626.14 134.87C626.14 135.64 626.14 136.41 626.14 137.18C626.14 137.95 625.92 138.03 625.3 138.03H609.91C609.3 138.03 609.17 137.94 608.99 137.37V134.66C609.17 134.1 609.3 134 609.91 134H610.33V117.66C610.307 117.324 610.369 116.987 610.51 116.681C610.652 116.375 610.868 116.11 611.14 115.91C611.433 115.724 611.744 115.57 612.07 115.45Z" fill="white"/>
    <path d="M617.6 124.17H613.75C613.22 124.17 612.97 123.92 612.97 123.38V118.88C612.97 118.33 613.22 118.09 613.77 118.09H621.42C621.97 118.09 622.21 118.34 622.21 118.88V123.37C622.21 123.93 621.97 124.17 621.4 124.17H617.6Z" fill="#1A73E8"/>
    <path d="M614.54 126.89H613.7C613.613 126.894 613.525 126.88 613.444 126.85C613.362 126.819 613.287 126.771 613.224 126.71C613.161 126.649 613.112 126.576 613.078 126.495C613.045 126.415 613.029 126.328 613.03 126.24C613.029 126.152 613.045 126.065 613.078 125.984C613.112 125.902 613.161 125.829 613.224 125.767C613.286 125.705 613.361 125.657 613.443 125.625C613.525 125.593 613.612 125.577 613.7 125.58H615.39C615.483 125.569 615.577 125.577 615.666 125.605C615.756 125.632 615.838 125.679 615.908 125.741C615.978 125.803 616.034 125.879 616.073 125.964C616.111 126.049 616.131 126.142 616.131 126.235C616.131 126.329 616.111 126.421 616.073 126.506C616.034 126.592 615.978 126.668 615.908 126.73C615.838 126.792 615.756 126.838 615.666 126.866C615.577 126.893 615.483 126.902 615.39 126.89H614.54Z" fill="#1A73E8"/>
    <path d="M625.15 133.91C620.156 134.257 615.144 134.257 610.15 133.91C615.144 133.563 620.156 133.563 625.15 133.91Z" fill="#1A73E8"/>
    <path d="M646 153.5C646 153.769 634.131 154 619.5 154C604.869 154 593 153.769 593 153.5C593 153.231 604.869 153 619.5 153C634.131 153 646 153.212 646 153.5Z" fill="white"/>
    <path d="M706.87 323.73C706.87 323.87 668.33 323.99 620.8 323.99C573.27 323.99 534.73 323.87 534.73 323.73C534.73 323.59 573.26 323.47 620.8 323.47C668.34 323.47 706.87 323.58 706.87 323.73Z" fill="#263238"/>
    <path d="M646.69 276.29H643.64V288.44H646.69V276.29Z" fill="#F5F5F5"/>
    <path d="M696.33 80.46H536.03V91.87H696.33V80.46Z" fill="#E0E0E0"/>
    <path d="M536.03 80.46C536.03 80.46 536.29 80.46 536.83 80.46H539.2H548.41L582.47 80.38L696.32 80.28H696.54V91.9301V92.1901H696.28L535.99 92.02H535.9V91.9301C535.9 88.1501 535.917 85.2967 535.95 83.3701V81.23C535.95 80.76 535.95 80.53 535.95 80.53C535.95 80.53 535.95 80.78 535.95 81.26C535.95 81.74 535.95 82.47 535.95 83.42C535.95 85.34 535.967 88.1767 536 91.9301L535.91 91.84L696.2 91.67L695.94 91.9301V80.46L696.2 80.72L582.66 80.66L548.54 80.53H539.27H536.86L536.03 80.46Z" fill="#263238"/>
    <path d="M556.06 102.13L536.03 91.8601H696.32L676.29 102.13H556.06Z" fill="#E0E0E0"/>
    <path d="M556.06 102.13H556.66H558.39H565.1L590.17 102.05L676.29 101.96H676.17L696.17 91.6799L696.28 92.1699H676.28L536.02 92.0399L536.08 91.7899L550.91 99.4699L554.75 101.47L555.75 101.99C555.97 102.11 556.07 102.18 556.07 102.18L555.74 102.03L554.74 101.54L550.88 99.5999L535.97 92.0299L535.48 91.7799H536.03L676.29 91.6499H697.39L696.39 92.1399L676.39 102.4H676.34H676.28L590.1 102.31L565.1 102.23H558.4H556.68L556.06 102.13Z" fill="#263238"/>
    <path d="M646 164.5C646 164.788 634.131 165 619.5 165C604.869 165 593 164.788 593 164.5C593 164.212 604.869 164 619.5 164C634.131 164 646 164.231 646 164.5Z" fill="white"/>
</svg>
