<svg width="563" height="289" viewBox="0 0 563 289" fill="none" xmlns="http://www.w3.org/2000/svg">
    <path d="M560.49 133.11H3.77002V271.75H560.49V133.11Z" fill="#F5F5F5"/>
    <path d="M532.85 267.6V181.58H560.41V268.94L532.85 267.6Z" fill="#E0E0E0"/>
    <path d="M355.96 205.56C355.387 200.334 355.203 195.073 355.41 189.82C355.68 185.66 356.41 181.46 355.76 177.33C355.11 173.2 352.58 169.03 348.55 167.93C342.97 166.41 337.66 171.32 334.96 176.43C332.96 180.19 331.64 184.57 332.69 188.68C333.49 191.83 335.61 194.56 336.2 197.76C336.496 200.121 336.361 202.517 335.8 204.83C335.087 208.743 334.383 212.657 333.69 216.57C333.15 219.57 332.59 222.57 331.05 225.2C328.6 229.33 324.05 231.7 320.43 234.81C316.81 237.92 312.49 264.59 314.43 269L363.16 267.17C361.66 249.56 357.44 223.13 355.96 205.56Z" fill="#E0E0E0"/>
    <path d="M191.55 270.67C190.798 267.385 190.835 263.968 191.659 260.7C192.483 257.432 194.07 254.406 196.29 251.87C198.65 249.22 201.76 247.05 203.03 243.73C205.25 237.96 200.95 231.33 202.71 225.4C203.89 221.4 207.59 218.63 209.36 214.84C211.8 209.63 210.24 203.55 209.8 197.84C209.36 192.13 211.01 185.1 216.49 183.34C222.36 181.44 228.21 187.34 229.42 193.34C230.63 199.34 228.91 205.61 228.8 211.78C228.69 217.95 230.24 224.25 229.48 230.44C228.88 235.24 226.9 239.85 226.85 244.69C226.76 253.41 232.74 262.83 228.09 270.22" fill="#E0E0E0"/>
    <path d="M428.21 252.789L542.951 133H560V158.05L428 287L428.21 252.789Z" fill="white" fill-opacity="0.65"/>
    <path d="M19.2099 252.789L133.905 133H150.947H166L19 287L19.2099 252.789Z" fill="white" fill-opacity="0.65"/>
    <path d="M560.72 26H4V80.98H560.72V26Z" fill="#455A64"/>
    <path d="M560.72 81H4V132H560.72V81Z" fill="#1A73E8"/>
    <g opacity="0.3">
        <path opacity="0.3" d="M110.293 80.8101L59.3884 132.46H96.9105L146.689 80.8101H110.293Z" fill="white"/>
    </g>
    <g opacity="0.3">
        <path opacity="0.3" d="M114.133 132.46L160.885 80.8101H172.518L125.514 132.46H114.133Z" fill="white"/>
    </g>
    <g opacity="0.3">
        <path opacity="0.3" d="M423.188 80.8101L372.274 132.46H409.806L459.584 80.8101H423.188Z" fill="white"/>
    </g>
    <g opacity="0.3">
        <path opacity="0.3" d="M427.028 132.46L473.78 80.8101H485.403L438.4 132.46H427.028Z" fill="white"/>
    </g>
    <path d="M458.83 239.69H456.24V252.13H458.83V239.69Z" fill="#FAFAFA"/>
    <path d="M329.931 132.028L215.21 252.844L215 287L347 158.26L346.98 132L329.931 132.028Z" fill="white" fill-opacity="0.65"/>
    <path d="M281.25 58.63C297.382 58.63 310.46 45.5522 310.46 29.42C310.46 13.2877 297.382 0.209961 281.25 0.209961C265.118 0.209961 252.04 13.2877 252.04 29.42C252.04 45.5522 265.118 58.63 281.25 58.63Z" fill="#F56D45"/>
    <path d="M291.48 19.8901L281.6 12.6801C280.05 11.5501 277.87 11.8801 276.74 13.4301L272.01 19.8901H291.48Z" fill="url(#paint0_linear_8_126)"/>
    <path opacity="0.5" d="M297.19 19.9299H292.22C294.03 19.9299 295.42 21.5199 295.19 23.3099L292.95 38.2499C292.76 39.7399 291.48 40.8499 289.98 40.8499H294.95C296.45 40.8499 297.73 39.7399 297.92 38.2499L300.16 23.3099C300.4 21.5199 299 19.9299 297.19 19.9299Z" fill="#FFD68D"/>
    <path d="M294.27 41.8699H270.97C269.32 41.8699 267.97 40.5299 267.97 38.8799L267.99 22.9199C267.99 21.2699 269.33 19.9299 270.99 19.9299H296.5C298.31 19.9299 299.7 21.5199 299.47 23.3099L297.23 39.2699C297.04 40.7599 295.77 41.8699 294.27 41.8699Z" stroke="white" stroke-width="3" stroke-miterlimit="10"/>
    <path d="M267.97 34.8899H297.46" stroke="white" stroke-width="3" stroke-miterlimit="10"/>
    <path d="M279.1 42.8701C279.1 44.8801 277.47 46.5001 275.46 46.5001C273.45 46.5001 271.82 44.8701 271.82 42.8701" stroke="white" stroke-width="3" stroke-miterlimit="10"/>
    <path d="M292.65 42.8701C292.65 44.8801 291.02 46.5001 289.01 46.5001C287 46.5001 285.37 44.8701 285.37 42.8701" stroke="white" stroke-width="3" stroke-miterlimit="10"/>
    <path d="M262.5 16.4399C265.06 17.2899 266.99 18.8399 267.99 21.4299" stroke="white" stroke-width="3" stroke-miterlimit="10" stroke-linecap="round"/>
    <path d="M310.46 29.42C310.451 29.2635 310.451 29.1066 310.46 28.95C310.46 28.61 310.4 28.1501 310.36 27.5601C310.36 27.2601 310.34 26.9267 310.3 26.5601C310.3 26.1901 310.17 25.79 310.11 25.35C309.978 24.3361 309.77 23.3334 309.49 22.35C308.813 19.6192 307.72 17.0088 306.25 14.61C304.132 11.0814 301.291 8.04206 297.912 5.69257C294.533 3.34307 290.695 1.7369 286.65 0.980042C285.441 0.755063 284.218 0.611415 282.99 0.550049C282.36 0.550049 281.73 0.470042 281.1 0.480042L279.18 0.580017C278.529 0.600474 277.88 0.670701 277.24 0.790039C276.6 0.900039 275.94 0.980046 275.3 1.11005C273.986 1.4041 272.693 1.78495 271.43 2.25006C270.136 2.71392 268.876 3.26861 267.66 3.91003C267.05 4.24003 266.46 4.63005 265.85 4.99005C265.242 5.34734 264.66 5.74841 264.11 6.19006C262.954 7.04789 261.855 7.97983 260.82 8.98004C259.805 10.0379 258.86 11.1602 257.99 12.34C256.185 14.7643 254.786 17.4663 253.85 20.34C252.899 23.2952 252.397 26.376 252.36 29.48C252.391 32.5813 252.894 35.6597 253.85 38.61C254.785 41.4842 256.184 44.1865 257.99 46.61C258.857 47.7923 259.802 48.9148 260.82 49.97C261.855 50.9702 262.954 51.9022 264.11 52.76C264.662 53.2016 265.244 53.6058 265.85 53.97C266.46 54.33 267.05 54.71 267.66 55.04C268.876 55.6847 270.136 56.2427 271.43 56.71C272.695 57.1673 273.988 57.5447 275.3 57.84C275.95 57.98 276.6 58.05 277.3 58.16C277.937 58.2799 278.582 58.3501 279.23 58.3701L281.15 58.47C281.78 58.47 282.41 58.42 283.04 58.4C284.268 58.342 285.491 58.2017 286.7 57.98C290.745 57.219 294.582 55.6101 297.961 53.2591C301.339 50.9081 304.181 47.8684 306.3 44.34C307.768 41.9439 308.861 39.337 309.54 36.61C309.819 35.6265 310.027 34.6238 310.16 33.61C310.22 33.17 310.31 32.76 310.35 32.39C310.39 32.02 310.35 31.68 310.41 31.39C310.41 30.8 310.48 30.3901 310.51 30.0001C310.501 29.8435 310.501 29.6866 310.51 29.53C310.51 29.53 310.51 29.6901 310.51 30.0001C310.51 30.3101 310.51 30.8 310.51 31.4C310.51 31.7 310.51 32.05 310.51 32.4C310.51 32.75 310.4 33.19 310.34 33.63C310.229 34.6434 310.038 35.6465 309.77 36.63C309.115 39.3882 308.039 42.0291 306.58 44.46C304.459 48.0478 301.6 51.1435 298.191 53.5417C294.783 55.9399 290.903 57.5858 286.81 58.3701C285.582 58.6045 284.339 58.7515 283.09 58.8101C282.46 58.8101 281.82 58.9 281.17 58.89L279.23 58.8C278.559 58.7811 277.89 58.7109 277.23 58.59C276.58 58.48 275.91 58.41 275.23 58.27C273.896 57.9761 272.584 57.5953 271.3 57.13C269.983 56.6596 268.699 56.0983 267.46 55.45C266.83 55.11 266.24 54.72 265.62 54.35C264.998 53.9862 264.403 53.5784 263.84 53.13C261.437 51.3967 259.329 49.2861 257.6 46.88C255.768 44.4214 254.347 41.6827 253.39 38.77C251.363 32.7356 251.363 26.2044 253.39 20.17C254.35 17.2569 255.775 14.5182 257.61 12.0601C258.489 10.8545 259.455 9.71474 260.5 8.65002C261.547 7.62811 262.663 6.67926 263.84 5.81006C264.403 5.36163 264.998 4.95389 265.62 4.59003C266.24 4.22003 266.83 3.83006 267.46 3.50006C268.699 2.8518 269.983 2.2904 271.3 1.82001C272.582 1.34693 273.895 0.962722 275.23 0.670044C275.89 0.540044 276.56 0.460046 277.23 0.360046C277.89 0.23421 278.559 0.163942 279.23 0.150024L281.17 0.0500488C281.82 0.0500488 282.46 0.110005 283.09 0.130005C284.339 0.189169 285.582 0.336202 286.81 0.570007C290.903 1.35428 294.783 3.00017 298.191 5.39838C301.6 7.79658 304.459 10.8923 306.58 14.48C308.039 16.9144 309.115 19.5586 309.77 22.32C310.038 23.3036 310.229 24.3066 310.34 25.32C310.4 25.77 310.47 26.17 310.51 26.55V27.55C310.51 28.14 310.51 28.6001 310.51 28.9401C310.51 29.2801 310.46 29.42 310.46 29.42Z" fill="#263238"/>
    <path d="M562.31 266.3H0V287.28H562.31V266.3Z" fill="#455A64"/>
    <path d="M347.43 287.37C347.29 287.37 347.17 240.81 347.17 183.37C347.17 125.93 347.29 79.3701 347.43 79.3701C347.57 79.3701 347.69 125.93 347.69 183.37C347.69 240.81 347.58 287.37 347.43 287.37Z" fill="#263238"/>
    <path d="M215.63 287.28C215.49 287.28 215.37 240.74 215.37 183.28C215.37 125.82 215.49 79.28 215.63 79.28C215.77 79.28 215.89 125.82 215.89 183.28C215.89 240.74 215.78 287.28 215.63 287.28Z" fill="#263238"/>
    <path d="M280.39 288.33C280.25 288.33 280.13 253.97 280.13 211.6C280.13 169.23 280.25 134.87 280.39 134.87C280.53 134.87 280.65 169.22 280.65 211.6C280.65 253.98 280.53 288.33 280.39 288.33Z" fill="#263238"/>
    <path d="M289.61 185.34H284.37V221.2H289.61V185.34Z" fill="#455A64"/>
    <path d="M275.62 185.34H270.38V221.2H275.62V185.34Z" fill="#455A64"/>
    <path d="M227.97 212.01H212.84C208.83 212.01 205.58 215.26 205.58 219.27V238C205.58 242.009 208.83 245.26 212.84 245.26H227.97C231.98 245.26 235.23 242.009 235.23 238V219.27C235.23 215.26 231.98 212.01 227.97 212.01Z" fill="#C5D72B"/>
    <path d="M235.23 237.52V219.76C235.225 217.708 234.408 215.741 232.958 214.289C231.508 212.837 229.542 212.018 227.49 212.01H223.31C225.362 212.018 227.328 212.837 228.778 214.289C230.228 215.741 231.045 217.708 231.05 219.76V237.52C231.042 239.57 230.224 241.534 228.774 242.984C227.325 244.434 225.36 245.252 223.31 245.26H227.49C229.541 245.254 231.507 244.437 232.957 242.987C234.408 241.537 235.225 239.571 235.23 237.52V237.52Z" fill="#E1F9AA"/>
    <path d="M227.97 212.01H212.84C208.83 212.01 205.58 215.26 205.58 219.27V238C205.58 242.009 208.83 245.26 212.84 245.26H227.97C231.98 245.26 235.23 242.009 235.23 238V219.27C235.23 215.26 231.98 212.01 227.97 212.01Z" stroke="#485730" stroke-width="3.76" stroke-miterlimit="10"/>
    <path d="M208.75 168.88H180.21C172.6 168.88 166.43 175.049 166.43 182.66V218.02C166.43 225.63 172.6 231.8 180.21 231.8H208.75C216.36 231.8 222.53 225.63 222.53 218.02V182.66C222.53 175.049 216.36 168.88 208.75 168.88Z" fill="#98C841"/>
    <path d="M174.01 217.11V183.57C174.021 179.679 175.57 175.95 178.321 173.198C181.071 170.445 184.799 168.893 188.69 168.88H181.12C177.227 168.89 173.497 170.442 170.744 173.194C167.992 175.947 166.441 179.677 166.43 183.57V217.11C166.441 221.003 167.992 224.733 170.744 227.486C173.497 230.238 177.227 231.789 181.12 231.8H188.69C184.799 231.787 181.071 230.234 178.321 227.482C175.57 224.73 174.021 221.001 174.01 217.11V217.11Z" fill="#93BA3E"/>
    <path d="M222.54 217.11V183.57C222.529 179.677 220.978 175.947 218.226 173.194C215.473 170.442 211.743 168.89 207.85 168.88H203.3C207.193 168.89 210.923 170.442 213.676 173.194C216.428 175.947 217.979 179.677 217.99 183.57V217.11C217.979 221.003 216.428 224.733 213.676 227.486C210.923 230.238 207.193 231.789 203.3 231.8H207.85C211.743 231.789 215.473 230.238 218.226 227.486C220.978 224.733 222.529 221.003 222.54 217.11V217.11Z" fill="#E1F9AA"/>
    <path d="M208.75 168.88H180.21C172.6 168.88 166.43 175.049 166.43 182.66V218.02C166.43 225.63 172.6 231.8 180.21 231.8H208.75C216.36 231.8 222.53 225.63 222.53 218.02V182.66C222.53 175.049 216.36 168.88 208.75 168.88Z" stroke="#485730" stroke-width="3.76" stroke-miterlimit="10"/>
    <path d="M194.93 186.03V283.99" stroke="#485730" stroke-width="3.76" stroke-linecap="round" stroke-linejoin="round"/>
    <path d="M194.93 252.34V283.99" stroke="#485730" stroke-width="3.76" stroke-linecap="round" stroke-linejoin="round"/>
    <path d="M177.84 212.79H161.83C156.887 212.79 152.88 216.797 152.88 221.74V241.87C152.88 246.813 156.887 250.82 161.83 250.82H177.84C182.783 250.82 186.79 246.813 186.79 241.87V221.74C186.79 216.797 182.783 212.79 177.84 212.79Z" fill="#C5D72B"/>
    <path d="M159.4 241.28V222.33C159.405 219.801 160.412 217.378 162.2 215.59C163.988 213.802 166.411 212.795 168.94 212.79H162.43C159.901 212.795 157.476 213.802 155.686 215.589C153.897 217.377 152.888 219.8 152.88 222.33V241.28C152.891 243.808 153.9 246.23 155.689 248.017C157.478 249.805 159.901 250.812 162.43 250.82H168.94C166.412 250.812 163.99 249.804 162.203 248.017C160.416 246.229 159.408 243.808 159.4 241.28Z" fill="#B5BC20"/>
    <path d="M177.84 212.79H161.83C156.887 212.79 152.88 216.797 152.88 221.74V241.87C152.88 246.813 156.887 250.82 161.83 250.82H177.84C182.783 250.82 186.79 246.813 186.79 241.87V221.74C186.79 216.797 182.783 212.79 177.84 212.79Z" stroke="#485730" stroke-width="3.76" stroke-miterlimit="10"/>
    <path d="M194.94 253.46H214.42C215.843 253.455 217.205 252.887 218.211 251.881C219.217 250.875 219.785 249.512 219.79 248.09V235.79" stroke="#485730" stroke-width="3.76" stroke-linecap="round" stroke-linejoin="round"/>
    <path d="M194.69 262.29H175.21C173.787 262.287 172.422 261.721 171.416 260.714C170.409 259.708 169.843 258.343 169.84 256.92V237.68" stroke="#485730" stroke-width="3.76" stroke-linecap="round" stroke-linejoin="round"/>
    <path d="M383.75 168.88H355.21C347.599 168.88 341.43 175.049 341.43 182.66V218.02C341.43 225.63 347.599 231.8 355.21 231.8H383.75C391.36 231.8 397.53 225.63 397.53 218.02V182.66C397.53 175.049 391.36 168.88 383.75 168.88Z" fill="#98C841"/>
    <path d="M349.01 217.11V183.57C349.02 179.679 350.57 175.95 353.321 173.198C356.071 170.445 359.799 168.893 363.69 168.88H356.12C352.227 168.89 348.497 170.442 345.744 173.194C342.992 175.947 341.44 179.677 341.43 183.57V217.11C341.44 221.003 342.992 224.733 345.744 227.486C348.497 230.238 352.227 231.789 356.12 231.8H363.69C359.799 231.787 356.071 230.234 353.321 227.482C350.57 224.73 349.02 221.001 349.01 217.11V217.11Z" fill="#93BA3E"/>
    <path d="M397.54 217.11V183.57C397.529 179.677 395.978 175.947 393.226 173.194C390.473 170.442 386.743 168.89 382.85 168.88H378.3C382.193 168.89 385.923 170.442 388.676 173.194C391.428 175.947 392.979 179.677 392.99 183.57V217.11C392.979 221.003 391.428 224.733 388.676 227.486C385.923 230.238 382.193 231.789 378.3 231.8H382.85C386.743 231.789 390.473 230.238 393.226 227.486C395.978 224.733 397.529 221.003 397.54 217.11V217.11Z" fill="#E1F9AA"/>
    <path d="M383.75 168.88H355.21C347.599 168.88 341.43 175.049 341.43 182.66V218.02C341.43 225.63 347.599 231.8 355.21 231.8H383.75C391.36 231.8 397.53 225.63 397.53 218.02V182.66C397.53 175.049 391.36 168.88 383.75 168.88Z" stroke="#485730" stroke-width="3.76" stroke-miterlimit="10"/>
    <path d="M369.93 186.03V283.99" stroke="#485730" stroke-width="3.76" stroke-linecap="round" stroke-linejoin="round"/>
    <path d="M369.93 252.34V283.99" stroke="#485730" stroke-width="3.76" stroke-linecap="round" stroke-linejoin="round"/>
    <path d="M364.368 256.4C365.09 256.747 365.736 257.236 366.267 257.837C366.798 258.438 367.203 259.14 367.458 259.9C367.953 261.428 368.094 263.049 367.868 264.64C367.518 267.72 365.768 270.83 363.868 273.29C361.278 271.03 360.678 267.08 360.498 265.06C360.218 261.87 361.658 255.92 364.348 256.4" fill="#F56D45"/>
    <path d="M366.898 278.37C366.722 277.489 366.783 276.578 367.072 275.728C367.362 274.878 367.871 274.12 368.548 273.53C369.235 272.95 370.032 272.514 370.891 272.248C371.749 271.982 372.653 271.891 373.548 271.98C373.964 271.976 374.375 272.064 374.754 272.236C375.132 272.409 375.468 272.663 375.738 272.98C375.934 273.313 376.037 273.693 376.037 274.08C376.037 274.467 375.934 274.847 375.738 275.18C375.345 275.851 374.783 276.406 374.108 276.79C371.858 278.2 369.428 279.15 366.888 278.39" fill="#F56D45"/>
    <path d="M363.868 287.84C363.884 287.627 363.918 287.417 363.968 287.21C364.048 286.76 364.148 286.21 364.278 285.5C364.566 283.597 365.161 281.753 366.038 280.04C366.955 278.33 368.307 276.891 369.958 275.87C370.462 275.575 370.999 275.34 371.558 275.17C371.708 275.118 371.862 275.078 372.018 275.05C372.128 275.05 372.178 275.05 372.188 275.05C371.44 275.305 370.723 275.64 370.048 276.05C368.447 277.084 367.136 278.509 366.238 280.19C365.371 281.882 364.764 283.696 364.438 285.57C364.278 286.29 364.148 286.87 364.048 287.27C364.006 287.465 363.946 287.656 363.868 287.84Z" fill="#263238"/>
    <path d="M363.968 261.02C363.98 261.113 363.98 261.207 363.968 261.3C363.968 261.5 363.968 261.77 364.018 262.09C364.018 262.78 364.098 263.78 364.138 265.01C364.218 267.48 364.278 270.89 364.258 274.65C364.238 278.41 364.158 281.83 364.048 284.29C364.048 285.53 363.948 286.52 363.908 287.21C363.908 287.54 363.908 287.8 363.858 288.01C363.868 288.1 363.868 288.19 363.858 288.28C363.858 288.28 363.858 288.19 363.858 288C363.858 287.81 363.858 287.54 363.858 287.21C363.858 286.49 363.858 285.5 363.938 284.29C363.998 281.82 364.058 278.42 364.078 274.65C364.098 270.88 364.078 267.48 364.018 265.01C364.018 263.8 364.018 262.81 364.018 262.09V261.3C363.99 261.209 363.973 261.115 363.968 261.02Z" fill="#263238"/>
    <path d="M362.708 280.24C362.394 278.375 361.64 276.612 360.51 275.095C359.38 273.579 357.905 272.353 356.208 271.52C355.348 271.11 354.208 270.84 353.498 271.52C352.788 272.2 352.948 273.33 353.298 274.22C354.059 276.078 355.353 277.67 357.017 278.794C358.68 279.919 360.64 280.526 362.648 280.54" fill="#F56D45"/>
    <path d="M356.628 274.44C356.816 274.508 357 274.588 357.178 274.68C357.358 274.77 357.568 274.87 357.798 275.01C358.028 275.15 358.318 275.3 358.598 275.51C358.909 275.721 359.209 275.948 359.498 276.19C359.848 276.463 360.182 276.757 360.498 277.07C361.198 277.781 361.815 278.57 362.338 279.42C362.844 280.279 363.247 281.196 363.538 282.15C363.658 282.59 363.778 283.01 363.848 283.41C363.919 283.783 363.969 284.161 363.998 284.54C364.016 284.85 364.016 285.16 363.998 285.47C364.019 285.703 364.019 285.937 363.998 286.17C363.996 286.371 363.976 286.572 363.938 286.77C363.888 286.77 363.938 285.91 363.818 284.55C363.783 284.18 363.723 283.812 363.638 283.45C363.556 283.031 363.449 282.617 363.318 282.21C363.017 281.278 362.615 280.383 362.118 279.54C361.609 278.702 361.012 277.921 360.338 277.21C360.018 276.89 359.708 276.59 359.398 276.33C359.088 276.07 358.798 275.85 358.518 275.64C357.388 274.84 356.608 274.49 356.628 274.44Z" fill="#263238"/>
    <defs>
        <linearGradient id="paint0_linear_8_126" x1="273.483" y1="15.8219" x2="276.721" y2="9.37953" gradientUnits="userSpaceOnUse">
            <stop stop-color="#FFAB03"/>
            <stop offset="1" stop-color="#FFCA27"/>
        </linearGradient>
    </defs>
</svg>
