<svg width="239" height="93" viewBox="0 0 239 93" fill="none" xmlns="http://www.w3.org/2000/svg">
    <path d="M222.75 41.2388H13.1299V71.9988H222.75V41.2388Z" fill="#F56D45"/>
    <g opacity="0.5">
        <path opacity="0.5" d="M222.75 41.2388H13.1299V71.9988H222.75V41.2388Z" fill="black"/>
    </g>
    <path d="M61.4405 72.2805C61.7249 61.1225 52.91 51.8466 41.752 51.5622C30.5939 51.2778 21.318 60.0926 21.0336 71.2506C20.7492 82.4087 29.5641 91.6846 40.7221 91.969C51.8802 92.2534 61.1561 83.4386 61.4405 72.2805Z" fill="#263238"/>
    <path d="M21.1 71.449V71.499C21.0619 74.153 21.5469 76.7885 22.5274 79.2551C23.5079 81.7216 24.9645 83.9709 26.8143 85.8745C30.55 89.719 35.6599 91.922 41.02 91.999C46.38 92.0759 51.5511 90.0204 55.3956 86.2847C59.2401 82.5489 61.443 77.439 61.52 72.079C61.52 72.079 61.52 72.079 61.52 72.029L21.1 71.449Z" fill="#263238"/>
    <path d="M27.1599 71.6288C27.1227 74.4345 27.918 77.1883 29.4455 79.5421C30.973 81.8958 33.1641 83.7439 35.7417 84.8526C38.3194 85.9613 41.1679 86.281 43.9272 85.7711C46.6864 85.2612 49.2326 83.9447 51.2437 81.9881C53.2549 80.0314 54.6409 77.5223 55.2264 74.7781C55.8118 72.0339 55.5706 69.1777 54.5331 66.5706C53.4955 63.9635 51.7084 61.7225 49.3975 60.1309C47.0866 58.5393 44.3557 57.6686 41.55 57.6288C39.6853 57.601 37.8334 57.9413 36.1004 58.6303C34.3675 59.3192 32.7874 60.3432 31.4507 61.6436C30.114 62.9441 29.047 64.4954 28.3108 66.2088C27.5745 67.9222 27.1834 69.764 27.1599 71.6288Z" fill="#FAFAFA"/>
    <path d="M41.5099 57.6288C37.7516 57.5861 34.1299 59.0363 31.4395 61.661C28.7492 64.2857 27.2101 67.8706 27.16 71.6288L55.53 72.0389C55.5604 70.1708 55.2214 68.3152 54.5324 66.5786C53.8434 64.842 52.818 63.2587 51.5152 61.9197C50.2124 60.5806 48.6578 59.5122 46.9408 58.7759C45.2238 58.0395 43.3781 57.6497 41.5099 57.6288V57.6288Z" fill="#E0E0E0"/>
    <path d="M32.66 71.6289C32.6344 73.3399 33.1169 75.0199 34.0464 76.4566C34.9759 77.8934 36.3106 79.0221 37.8817 79.7001C39.4528 80.3781 41.1897 80.5749 42.8727 80.2655C44.5556 79.9562 46.1091 79.1546 47.3364 77.9623C48.5638 76.7699 49.4099 75.2404 49.7677 73.5671C50.1256 71.8937 49.9791 70.1519 49.3469 68.5618C48.7146 66.9718 47.6249 65.605 46.2156 64.6343C44.8064 63.6637 43.141 63.1328 41.43 63.1089C40.2945 63.0917 39.1667 63.2985 38.1113 63.7175C37.0558 64.1365 36.0933 64.7595 35.2787 65.5508C34.4642 66.3421 33.8137 67.2862 33.3643 68.3292C32.915 69.3721 32.6756 70.4934 32.66 71.6289V71.6289Z" fill="#263238"/>
    <path d="M216.06 72.3115C216.35 61.1536 207.54 51.873 196.382 51.5828C185.225 51.2925 175.944 60.1025 175.654 71.2604C175.364 82.4183 184.173 91.6989 195.331 91.9891C206.489 92.2794 215.77 83.4694 216.06 72.3115Z" fill="#263238"/>
    <path d="M175.66 71.449V71.499C175.583 76.859 177.639 82.03 181.374 85.8745C185.11 89.719 190.22 91.922 195.58 91.999C200.94 92.0759 206.111 90.0204 209.956 86.2847C213.8 82.5489 216.003 77.439 216.08 72.079V72.029L175.66 71.449Z" fill="#263238"/>
    <path d="M181.68 71.6289C181.643 74.4346 182.438 77.1884 183.966 79.5422C185.493 81.8959 187.684 83.744 190.262 84.8527C192.839 85.9614 195.688 86.2811 198.447 85.7712C201.206 85.2613 203.753 83.9448 205.764 81.9882C207.775 80.0315 209.161 77.5224 209.746 74.7782C210.332 72.034 210.091 69.1778 209.053 66.5707C208.016 63.9636 206.228 61.7226 203.917 60.131C201.607 58.5394 198.876 57.6687 196.07 57.6289C194.206 57.6024 192.354 57.9437 190.622 58.6331C188.89 59.3225 187.31 60.3465 185.974 61.6467C184.637 62.9469 183.57 64.4977 182.833 66.2105C182.097 67.9233 181.705 69.7645 181.68 71.6289V71.6289Z" fill="#FAFAFA"/>
    <path d="M196.07 57.6289C194.206 57.6024 192.354 57.9437 190.622 58.6331C188.89 59.3225 187.31 60.3465 185.974 61.6467C184.637 62.9469 183.57 64.4977 182.833 66.2105C182.097 67.9233 181.705 69.7645 181.68 71.6289L210.06 72.0389C210.088 70.174 209.748 68.322 209.06 66.5886C208.372 64.8551 207.349 63.2741 206.05 61.936C204.751 60.5979 203.201 59.5288 201.488 58.7897C199.776 58.0507 197.935 57.6562 196.07 57.6289Z" fill="#E0E0E0"/>
    <path d="M187.22 71.6287C187.194 73.3397 187.677 75.0198 188.606 76.4565C189.536 77.8932 190.871 79.022 192.442 79.6999C194.013 80.3779 195.75 80.5747 197.433 80.2654C199.116 79.9561 200.669 79.1545 201.896 77.9622C203.124 76.7698 203.97 75.2402 204.328 73.5669C204.686 71.8936 204.539 70.1517 203.907 68.5617C203.275 66.9716 202.185 65.6048 200.776 64.6342C199.366 63.6635 197.701 63.1327 195.99 63.1088C193.697 63.0767 191.486 63.9561 189.842 65.5536C188.197 67.1512 187.254 69.3363 187.22 71.6287V71.6287Z" fill="#263238"/>
    <path d="M67.8 23.9389C67.8 23.9389 38.0399 26.1289 27.0099 28.5989C19.2299 30.3489 4.23997 33.3589 4.41997 42.7889L5.60997 49.5489C3.94749 50.3955 2.54962 51.6827 1.56908 53.2699C0.588544 54.8571 0.0630614 56.6833 0.049976 58.5489C0.049976 65.0289 -1.31003 75.0889 11.67 75.4889C13.81 75.5589 17.87 75.4889 17.87 75.4889C17.87 75.4889 15.38 47.8389 40.78 47.0289C66.62 46.2089 64.8999 75.2389 64.8999 75.2389H172.74C172.74 75.2389 168.31 46.9589 196.12 46.9189C223.93 46.8789 219.71 75.4189 219.71 75.4189C219.71 75.4189 229.94 76.3089 234.71 67.7089C239.48 59.1089 238.23 52.9889 238.23 52.9889L238.07 47.5489C238.045 46.6575 237.682 45.8089 237.054 45.1756C236.426 44.5422 235.581 44.1716 234.69 44.1389V44.1389C234.69 44.1389 236.55 30.4489 233.69 28.0789C230.83 25.7089 215.16 11.4389 215.16 11.4389L215.91 10.9789C216.19 10.8021 216.414 10.5499 216.557 10.2513C216.701 9.95275 216.757 9.61984 216.719 9.29086C216.681 8.96189 216.552 8.65018 216.345 8.39157C216.138 8.13296 215.863 7.93794 215.55 7.82889L195.12 0.828888C194.708 0.679911 194.277 0.589019 193.84 0.558868C192.19 0.428868 187.53 0.138889 178.97 0.0488889C168.55 -0.0611111 127.16 0.0488889 127.16 0.0488889C127.16 0.0488889 112.92 1.21886 104.99 4.70886C96.68 8.33886 67.8 23.9389 67.8 23.9389Z" fill="#F56D45"/>
    <g opacity="0.4">
        <path opacity="0.4" d="M7.58997 57.8188C6.50997 57.5988 4.85997 57.5788 4.02997 58.3088C3.48219 58.9271 3.17672 59.7228 3.16998 60.5488C2.99799 61.661 3.02169 62.7947 3.23999 63.8988C3.35434 64.4499 3.58122 64.9715 3.90643 65.431C4.23165 65.8904 4.64814 66.2778 5.12994 66.5688C5.6195 66.8487 6.18606 66.9638 6.74603 66.8972C7.306 66.8306 7.82977 66.5857 8.23999 66.1988C8.85401 65.3645 9.12591 64.327 9 63.2988C9.06367 61.9198 9.00674 60.5379 8.82996 59.1688C8.76568 58.8676 8.63595 58.5842 8.44995 58.3388C8.35822 58.19 8.23238 58.0653 8.08283 57.9748C7.93327 57.8844 7.76432 57.8309 7.58997 57.8188" fill="black"/>
    </g>
    <path d="M5.60999 49.5488C8.76999 49.5488 11.83 49.3788 14.99 49.1688C15.1799 49.199 15.3745 49.1812 15.5557 49.1168C15.737 49.0525 15.8992 48.9437 16.0275 48.8004C16.1559 48.6572 16.2462 48.484 16.2903 48.2968C16.3344 48.1095 16.3309 47.9143 16.28 47.7288C16.28 46.0288 16.21 44.1088 14.92 42.9988C14.081 42.3788 13.0727 42.0299 12.03 41.9988C9.46735 41.7266 6.87615 41.9888 4.41998 42.7688L5.60999 49.5488Z" fill="#FAFAFA"/>
    <path d="M71.22 74.3889V74.1189C71.22 73.9389 71.22 73.6689 71.22 73.3289C71.22 72.6189 71.13 71.5989 71.05 70.2789C70.97 68.9589 70.89 67.3289 70.7 65.4589C70.5094 63.3378 70.1381 61.2368 69.59 59.1789C68.9095 56.6927 67.9006 54.3084 66.59 52.0889C65.0805 49.5368 63.0824 47.3075 60.71 45.5289C55.0297 41.7407 48.3475 39.735 41.52 39.7689C34.6797 39.6186 27.9807 41.7274 22.46 45.7689C20.0756 47.5313 17.9862 49.6611 16.27 52.0789C14.7762 54.1842 13.5595 56.473 12.65 58.8889C11.9048 60.8869 11.3914 62.9638 11.12 65.0789C10.9094 66.6731 10.8491 68.2835 10.94 69.8889C10.9993 70.8958 11.1228 71.8978 11.31 72.8889L11.45 73.6689C11.45 73.8489 11.45 73.9389 11.45 73.9389L11.39 73.6789L11.23 72.8989C11.0303 71.9085 10.8933 70.9065 10.82 69.8989C10.7175 68.2878 10.7677 66.6706 10.97 65.0689C11.2337 62.9479 11.7404 60.8642 12.48 58.8589C13.3865 56.426 14.6032 54.1203 16.1 51.9989C17.8182 49.559 19.9146 47.4086 22.31 45.6289C27.8617 41.5607 34.5988 39.4345 41.48 39.5789C48.3476 39.5446 55.0674 41.572 60.77 45.3989C63.1641 47.1897 65.1768 49.4404 66.69 52.0189C68.0046 54.2506 69.0136 56.6487 69.69 59.1489C70.2357 61.2166 70.6004 63.3279 70.78 65.4589C70.96 67.3389 71.04 68.9589 71.1 70.2889C71.16 71.6189 71.2 72.6289 71.23 73.3389C71.23 73.6789 71.23 73.9389 71.23 74.1289C71.23 74.3189 71.22 74.3889 71.22 74.3889Z" fill="#263238"/>
    <path d="M72.36 74.8588C72.36 74.8588 72.36 74.7788 72.36 74.6288C72.36 74.4788 72.36 74.2588 72.36 73.9588C72.36 73.3688 72.36 72.4888 72.27 71.3488C72.21 69.0588 72.11 65.7088 71.99 61.4488C71.87 57.1888 71.73 51.9988 71.57 46.0688C71.53 44.5754 71.49 43.0454 71.45 41.4788C71.4238 40.6774 71.4573 39.8752 71.55 39.0788C71.61 38.6688 71.67 38.2688 71.72 37.8588C71.77 37.4488 71.89 37.0488 71.97 36.6388C72.3632 34.9723 72.9261 33.3505 73.65 31.7988C74.4023 30.1688 75.3313 28.6262 76.42 27.1988V27.1988L95.1 15.4288L100.1 12.2588C101.796 11.1167 103.582 10.1135 105.44 9.25877C107.326 8.37145 109.263 7.59675 111.24 6.93876C112.24 6.58876 113.24 6.30876 114.24 5.99876C115.24 5.68876 116.24 5.44875 117.34 5.23875C121.29 4.3938 125.304 3.88533 129.34 3.71876C133.221 3.52343 137.109 3.52343 140.99 3.71876H141.16V3.82878C139.37 11.8288 137.68 19.3588 136.16 26.2788C135.232 27.7975 134.474 29.4139 133.9 31.0988C133.331 32.7018 133.073 34.3989 133.14 36.0988C133.27 37.7588 133.32 39.3888 133.36 40.9588C133.4 42.5288 133.42 44.0588 133.45 45.5488C133.54 51.4788 133.56 56.6488 133.57 60.9188C133.58 65.1888 133.57 68.5288 133.57 70.8188C133.57 71.9588 133.57 72.8188 133.57 73.4288C133.57 73.7188 133.57 73.9388 133.57 74.0888C133.574 74.1654 133.574 74.2422 133.57 74.3188V74.0888C133.57 73.9388 133.57 73.7188 133.57 73.4288C133.57 72.8288 133.57 71.9588 133.57 70.8188C133.57 68.5288 133.57 65.1788 133.51 60.9188C133.45 56.6588 133.45 51.4788 133.35 45.5488C133.35 44.0688 133.28 42.5488 133.25 40.9588C133.22 39.3688 133.16 37.7688 133.03 36.1188C132.952 34.3987 133.21 32.68 133.79 31.0588C134.363 29.361 135.121 27.7313 136.05 26.1988L141.05 3.74876L141.14 3.85878C137.266 3.65851 133.384 3.65851 129.51 3.85878C125.474 4.01875 121.459 4.5273 117.51 5.37877C116.51 5.57877 115.45 5.87877 114.42 6.12877C113.39 6.37877 112.42 6.71877 111.42 7.06877C109.45 7.7218 107.52 8.48977 105.64 9.36876C103.795 10.2291 102.019 11.2321 100.33 12.3688L95.16 15.6288L76.5 27.3288C75.423 28.7462 74.5011 30.2749 73.75 31.8888C73.028 33.4298 72.4683 35.0419 72.08 36.6988C71.23 39.9388 71.65 43.1288 71.66 46.0888C71.81 52.0188 71.94 57.1988 72.04 61.4588C72.14 65.7188 72.22 69.0788 72.28 71.3688C72.28 72.5088 72.28 73.3688 72.33 73.9788V74.8788L72.36 74.8588Z" fill="#263238"/>
    <path d="M140.95 4.40881H141.16H141.68L143.68 4.35883L151.12 4.21881L176.2 3.78882L179.71 8.09882L189.71 20.3988L190.85 21.7988C191.719 22.8971 192.278 24.2085 192.468 25.5963C192.658 26.984 192.472 28.3973 191.93 29.6888C191.53 30.6088 191.15 31.4988 190.79 32.3488L187.32 40.3488L186.32 42.5288L186.07 43.0888C186.041 43.1544 186.008 43.2179 185.97 43.2788L186.05 43.0788L186.28 42.5088C186.5 41.9988 186.8 41.2688 187.2 40.3188L190.61 32.3188C191.26 30.6088 192.4 28.8188 192.33 26.6288C192.315 25.514 192.059 24.4155 191.58 23.4088C191.329 22.8863 191.02 22.3933 190.66 21.9388C190.28 21.4788 189.9 21.0188 189.52 20.5388L179.52 8.24881L176.01 3.94882H176.09L151 4.31882L143.56 4.3988H141.56H140.86L140.95 4.40881Z" fill="#263238"/>
    <path d="M128.29 37.7588H128.59C128.872 37.7067 129.141 37.5979 129.38 37.4388C129.753 37.2038 130.038 36.8523 130.19 36.4388C130.279 36.1716 130.316 35.89 130.3 35.6088C130.288 35.2947 130.206 34.9873 130.06 34.7088C129.892 34.3924 129.641 34.1271 129.335 33.9406C129.029 33.7542 128.678 33.6534 128.32 33.6488H119.94C119.45 33.645 118.976 33.821 118.607 34.1436C118.239 34.4662 118.001 34.9128 117.94 35.3988C117.876 35.8564 117.96 36.3226 118.18 36.7288C118.406 37.1203 118.759 37.4235 119.18 37.5888C119.585 37.7271 120.013 37.7816 120.44 37.7488H123.9H127.11H127.99H128.29C128.191 37.7639 128.089 37.7639 127.99 37.7488H127.11H123.9H120.44C120.22 37.7488 120.02 37.7488 119.79 37.7488C119.556 37.739 119.326 37.6882 119.11 37.5988C118.663 37.4155 118.29 37.0882 118.05 36.6688C117.812 36.2251 117.718 35.7184 117.78 35.2188C117.839 34.6876 118.092 34.1968 118.491 33.8407C118.889 33.4845 119.405 33.288 119.94 33.2888H128.32C128.876 33.3017 129.406 33.5298 129.798 33.9252C130.189 34.3205 130.412 34.8524 130.42 35.4088C130.432 35.7036 130.391 35.9983 130.3 36.2788C130.137 36.7247 129.831 37.1042 129.43 37.3588C129.178 37.5159 128.895 37.6149 128.6 37.6488C128.502 37.6992 128.398 37.7362 128.29 37.7588V37.7588Z" fill="#263238"/>
    <path d="M184.16 37.759H184.46C184.742 37.7069 185.011 37.598 185.25 37.439C185.623 37.204 185.908 36.8524 186.06 36.439C186.149 36.1717 186.186 35.8901 186.17 35.609C186.158 35.2949 186.076 34.9875 185.93 34.709C185.762 34.3926 185.511 34.1273 185.205 33.9408C184.899 33.7543 184.548 33.6535 184.19 33.649H175.81C175.32 33.6451 174.846 33.8212 174.477 34.1437C174.109 34.4663 173.871 34.913 173.81 35.399C173.804 35.8343 173.926 36.2619 174.16 36.629C174.386 37.0205 174.739 37.3236 175.16 37.489C175.565 37.6273 175.993 37.6817 176.42 37.649H179.88H183.09H183.96H184.27C184.167 37.6637 184.063 37.6637 183.96 37.649H183.09H179.88H176.42C176.2 37.649 176 37.649 175.77 37.649C175.536 37.6391 175.306 37.5883 175.09 37.499C174.643 37.3156 174.27 36.9883 174.03 36.569C173.792 36.1253 173.698 35.6186 173.76 35.119C173.819 34.5877 174.072 34.097 174.471 33.7408C174.869 33.3847 175.385 33.1882 175.92 33.189H184.3C184.856 33.2019 185.386 33.43 185.778 33.8254C186.169 34.2207 186.392 34.7525 186.4 35.309C186.412 35.6038 186.371 35.8984 186.28 36.179C186.117 36.6248 185.811 37.0044 185.41 37.259C185.157 37.4131 184.874 37.512 184.58 37.549C184.455 37.6453 184.312 37.7166 184.16 37.759Z" fill="#263238"/>
    <path d="M233.16 28.6289H221.98C221.228 28.629 220.49 28.835 219.847 29.2246C219.203 29.6142 218.679 30.1724 218.33 30.8389V30.8389C218.038 31.3866 217.875 31.9937 217.852 32.6139C217.83 33.2342 217.949 33.8514 218.2 34.4189L222.59 44.4189L233.78 44.3089C233.78 44.3089 236.16 31.6289 233.16 28.6289Z" fill="#FAFAFA"/>
    <path d="M77.8799 27.2289L135.58 26.1689L173.13 25.4789L185.52 18.3289C185.756 18.1917 185.96 18.006 186.118 17.7842C186.277 17.5624 186.387 17.3094 186.441 17.042C186.495 16.7746 186.491 16.4988 186.431 16.2328C186.37 15.9668 186.254 15.7167 186.09 15.4989L178.38 5.36887C177.982 4.84893 177.471 4.42653 176.885 4.1337C176.299 3.84087 175.655 3.6853 175 3.67886L133 3.33887C133 3.33887 117.18 2.41887 104.72 9.39887C95.4206 14.7934 86.4574 20.7477 77.8799 27.2289V27.2289Z" fill="#263238"/>
    <path d="M104.32 4.38892C104.32 4.38892 107.21 5.70889 105.32 6.92889C103.43 8.14889 74.21 26.6289 74.21 26.6289L67.49 23.6289C79.4 16.9089 91.4199 10.4689 104.32 4.38892Z" fill="#455A64"/>
    <path d="M75.16 27.0388H74.98L74.45 27.1488L72.45 27.5788C70.66 27.9288 68.08 28.4288 64.87 28.9788C58.46 30.0788 49.56 31.3688 39.68 32.2188C37.2 32.4388 34.79 32.6221 32.45 32.7688C30.12 32.9188 27.87 33.0588 25.73 33.2588C21.9331 33.532 18.172 34.175 14.5 35.1788C12.0345 35.8777 9.66108 36.868 7.42999 38.1288C6.61999 38.5588 6.04995 38.9688 5.63995 39.2188L5.17999 39.5188L5.01996 39.6088L5.16998 39.4988L5.62 39.1888C6.19038 38.7853 6.78112 38.4115 7.38995 38.0688C9.61399 36.7813 11.9887 35.7736 14.46 35.0688C18.1335 34.027 21.9024 33.357 25.71 33.0688C27.85 32.8688 30.11 32.7188 32.44 32.5688C34.77 32.4188 37.19 32.2288 39.66 32.0188C49.54 31.1588 58.44 29.8988 64.85 28.8288C68.06 28.2988 70.64 27.8288 72.43 27.4888L74.49 27.0988L75.02 27.0088L75.16 27.0388Z" fill="#263238"/>
    <path d="M237.66 52.8788C237.66 52.9388 233.81 52.9788 229.07 52.9788C224.33 52.9788 220.48 52.9788 220.48 52.8788C220.48 52.7788 224.33 52.7788 229.07 52.7788C233.81 52.7788 237.66 52.8288 237.66 52.8788Z" fill="#263238"/>
    <path d="M167.3 62.6989C167.3 62.7489 145.59 62.7889 118.82 62.7889C92.0499 62.7889 70.33 62.7889 70.33 62.6989C70.33 62.6089 92.0299 62.5989 118.82 62.5989C145.61 62.5989 167.3 62.6289 167.3 62.6989Z" fill="#263238"/>
    <path d="M15.29 53.2089C15.29 53.2589 12.22 53.2989 8.44 53.2989C4.66 53.2989 1.57996 53.2989 1.57996 53.2089C1.57996 53.1189 4.65 53.1089 8.44 53.1089C12.23 53.1089 15.29 53.1489 15.29 53.2089Z" fill="#263238"/>
    <path d="M214.9 11.0488C214.9 11.0488 212.32 13.9288 213.33 16.0488C214.34 18.1688 224.81 25.5788 224.81 25.5788L232.41 26.9988L214.9 11.0488Z" fill="#455A64"/>
    <path d="M142.66 5.88892L140.95 24.3389L171.52 23.4589L183.84 16.2989L175.86 5.88892H142.66Z" fill="#455A64"/>
    <path d="M85.16 25.2789C85.16 25.2789 103.6 11.9589 110.88 9.27888C116.375 7.07441 122.239 5.93745 128.16 5.92888C134.46 5.74888 138.31 5.92888 138.31 5.92888L133.43 24.6889L85.16 25.2789Z" fill="#455A64"/>
    <path d="M82.42 25.3389C82.4205 24.7648 82.5736 24.2012 82.8635 23.7057C83.1534 23.2102 83.5698 22.8006 84.07 22.5189L88.3 20.1389C89.5242 19.4648 90.9026 19.1203 92.3 19.1389C93.1524 19.14 93.9994 19.275 94.81 19.5389C95.6935 19.844 96.4627 20.4116 97.0148 21.1657C97.567 21.9198 97.8758 22.8245 97.9 23.7589V23.7589C97.9242 24.3858 97.8216 25.0112 97.5983 25.5975C97.375 26.1838 97.0356 26.719 96.6004 27.171C96.1653 27.623 95.6433 27.9824 95.0659 28.2278C94.4884 28.4731 93.8674 28.5994 93.24 28.5989H85.69C85.2596 28.6056 84.8322 28.526 84.4331 28.3646C84.0339 28.2033 83.6712 27.9636 83.3663 27.6597C83.0615 27.3557 82.8206 26.9938 82.6581 26.5951C82.4955 26.1965 82.4146 25.7693 82.42 25.3389Z" fill="#F56D45"/>
    <path d="M82.42 25.3388C82.42 25.3388 82.42 25.4788 82.42 25.7488C82.4731 26.1386 82.5986 26.5151 82.79 26.8588C83.0953 27.3985 83.5456 27.8419 84.09 28.1388C84.4303 28.3158 84.7994 28.4309 85.18 28.4788C85.613 28.5043 86.047 28.5043 86.48 28.4788H92.94C93.553 28.4975 94.1639 28.3991 94.74 28.1888C95.3356 27.9673 95.8799 27.6271 96.34 27.1888C96.8146 26.7183 97.1811 26.1501 97.4139 25.5237C97.6466 24.8972 97.74 24.2275 97.6877 23.5613C97.6353 22.895 97.4385 22.2482 97.1107 21.6658C96.783 21.0833 96.3323 20.5793 95.79 20.1888C95.2619 19.8298 94.6666 19.5815 94.04 19.4588C93.441 19.3123 92.8266 19.2385 92.21 19.2388C91.0688 19.2388 89.9407 19.4808 88.9 19.9488C88.41 20.1688 87.96 20.4388 87.52 20.6788L86.2599 21.3788L84.16 22.5488C83.6095 22.8374 83.1571 23.2829 82.86 23.8288C82.6667 24.169 82.5379 24.5419 82.48 24.9288C82.48 25.1988 82.48 25.3388 82.48 25.3388C82.4667 25.2024 82.4667 25.0651 82.48 24.9288C82.5246 24.5303 82.6433 24.1437 82.83 23.7888C83.1265 23.2239 83.5819 22.7581 84.14 22.4488L86.3 21.2188L87.56 20.5088C88 20.2688 88.44 19.9888 88.94 19.7588C89.9998 19.2703 91.153 19.0179 92.3199 19.0188C92.9491 19.0195 93.5763 19.0899 94.19 19.2288C94.8397 19.3635 95.4574 19.6214 96.0099 19.9888C96.5818 20.3945 97.0574 20.921 97.4031 21.5311C97.7487 22.1411 97.9559 22.8197 98.0099 23.5188C98.0622 24.2257 97.9598 24.9355 97.71 25.5988C97.4667 26.2301 97.0922 26.8025 96.6113 27.2783C96.1303 27.7541 95.5539 28.1224 94.92 28.3588C94.3209 28.5749 93.6866 28.6767 93.05 28.6588H86.59C86.1503 28.6844 85.7096 28.6844 85.27 28.6588C84.8732 28.6085 84.4896 28.483 84.14 28.2888C83.5819 27.9795 83.1265 27.5137 82.83 26.9488C82.6399 26.596 82.5242 26.208 82.49 25.8088C82.4462 25.6558 82.4227 25.4978 82.42 25.3388Z" fill="#263238"/>
    <path d="M224.52 74.5589C224.52 74.5589 224.52 74.469 224.52 74.299C224.52 74.129 224.52 73.8689 224.57 73.5289C224.62 73.1889 224.63 72.779 224.65 72.289C224.67 71.799 224.65 71.219 224.71 70.579C224.77 69.939 224.71 69.229 224.71 68.449C224.71 67.669 224.71 66.819 224.55 65.919C224.383 63.862 224.018 61.8259 223.46 59.8389C223.129 58.6844 222.725 57.5521 222.25 56.449C221.746 55.2539 221.137 54.1061 220.43 53.019C218.855 50.6203 216.851 48.5322 214.52 46.859C211.957 44.991 209.092 43.5771 206.05 42.6789C202.776 41.7449 199.384 41.2935 195.98 41.3389C192.575 41.3032 189.184 41.7957 185.93 42.799C184.39 43.2798 182.895 43.8921 181.46 44.6289C180.091 45.3559 178.789 46.2025 177.57 47.1589C175.308 48.932 173.29 50.9966 171.57 53.299C170.813 54.3555 170.144 55.4726 169.57 56.639C169.051 57.7201 168.59 58.8284 168.19 59.9589C166.98 63.3755 166.247 66.9423 166.01 70.5589C165.95 71.8389 166.01 72.839 166.01 73.509C166.01 73.849 166.01 74.0989 166.01 74.2789C166.017 74.3655 166.017 74.4524 166.01 74.539C166.01 74.539 166.01 74.4589 166.01 74.2789C166.01 74.0989 166.01 73.849 165.94 73.519C165.94 72.839 165.88 71.839 165.94 70.519C166.147 66.8875 166.86 63.3027 168.06 59.8689C168.43 58.7789 168.91 57.6689 169.43 56.5289C170.005 55.3535 170.673 54.2264 171.43 53.1589C173.148 50.8424 175.165 48.7642 177.43 46.979C178.654 46.0104 179.963 45.1537 181.34 44.419C182.784 43.6719 184.29 43.0496 185.84 42.5589C189.113 41.5437 192.524 41.0444 195.95 41.079C199.374 41.0421 202.786 41.5002 206.08 42.4389C209.14 43.343 212.023 44.7672 214.6 46.6489C215.796 47.5272 216.913 48.5076 217.94 49.579C218.915 50.5855 219.786 51.6877 220.54 52.8689C221.248 53.9663 221.857 55.1242 222.36 56.329C222.836 57.4373 223.237 58.5766 223.56 59.7389C224.111 61.7369 224.469 63.7828 224.63 65.8489C224.73 66.7489 224.73 67.599 224.77 68.389C224.81 69.179 224.77 69.879 224.77 70.519C224.77 71.159 224.71 71.729 224.69 72.229C224.67 72.729 224.62 73.139 224.59 73.479L224.52 74.2389V74.5589Z" fill="#263238"/>
    <path d="M132.58 27.229H132.24H131.24L127.61 27.289C124.55 27.349 120.33 27.459 115.61 27.589C110.89 27.719 106.71 27.799 103.61 27.829H99.98H98.98H98.6299C98.6299 27.829 98.63 27.829 98.72 27.829H99.16H100.16L103.79 27.769C106.85 27.709 111.07 27.599 115.79 27.469C120.51 27.339 124.69 27.249 127.79 27.229H132.74H132.58Z" fill="white"/>
    <path d="M127.57 32.9088C125.369 33.0422 123.161 33.0422 120.96 32.9088C123.162 32.7888 125.368 32.7888 127.57 32.9088V32.9088Z" fill="white"/>
    <path d="M128.79 12.6989C128.79 12.7489 124.7 14.4589 119.61 16.5189C114.52 18.5789 110.38 20.2089 110.36 20.1489C110.34 20.0889 114.45 18.3889 119.54 16.3289C124.63 14.2689 128.77 12.6289 128.79 12.6989Z" fill="white"/>
    <path d="M120.46 13.9889C120.46 14.0389 116.57 15.7589 111.73 17.8289C106.89 19.8989 102.93 21.5489 102.91 21.4989C102.89 21.4489 106.8 19.7289 111.65 17.6489C116.5 15.5689 120.44 13.9389 120.46 13.9889Z" fill="white"/>
    <path d="M173.27 11.9789C173.27 11.9789 169.18 13.7389 164.09 15.7989C159 17.8589 154.86 19.4889 154.84 19.4389C154.82 19.3889 158.93 17.6789 164.02 15.6189C169.11 13.5589 173.25 11.9289 173.27 11.9789Z" fill="white"/>
    <path d="M164.94 13.2689C164.94 13.3189 161.05 15.0389 156.2 17.1189C151.35 19.1989 147.41 20.8389 147.39 20.7889C147.37 20.7389 151.28 19.0189 156.13 16.9389C160.98 14.8589 164.92 13.2189 164.94 13.2689Z" fill="white"/>
    <path d="M174.07 27.2288C174.07 27.2288 165.9 27.3788 155.82 27.4388C145.74 27.4988 137.57 27.4988 137.57 27.4388C137.57 27.3788 145.74 27.2888 155.82 27.2288C165.9 27.1688 174.07 27.1788 174.07 27.2288Z" fill="white"/>
    <path d="M183.16 32.6288C183.16 32.6288 180.87 32.7488 178.04 32.7688C175.21 32.7888 172.92 32.7688 172.92 32.7188C172.92 32.6688 175.21 32.5988 178.04 32.5788C180.87 32.5588 183.16 32.5388 183.16 32.6288Z" fill="white"/>
    <path d="M26.65 29.7988C26.5802 29.8286 26.5057 29.8455 26.43 29.8488L25.79 29.9288L24.79 30.0688C24.39 30.1288 23.94 30.1888 23.45 30.2888C22.45 30.4588 21.3 30.7188 20.02 31.0588C18.74 31.3988 17.36 31.8588 15.94 32.4088C14.604 32.939 13.2956 33.5364 12.02 34.1988C10.85 34.8188 9.81996 35.4188 9.01996 35.9588C8.58996 36.2188 8.22995 36.4888 7.88995 36.7088C7.54995 36.9288 7.28 37.1288 7.06 37.2988L6.52997 37.6688L6.33997 37.7888C6.38797 37.7298 6.4454 37.6791 6.50995 37.6388L7.00995 37.2288C7.22995 37.0588 7.49996 36.8488 7.82996 36.6188C8.15996 36.3888 8.51995 36.1188 8.94995 35.8488C9.77995 35.2888 10.81 34.6688 11.95 34.0388C13.2222 33.3636 14.5309 32.7593 15.87 32.2288C17.2152 31.7065 18.5871 31.2559 19.98 30.8788C21.27 30.5488 22.44 30.3088 23.44 30.1488C23.93 30.0588 24.38 30.0088 24.78 29.9588L25.78 29.8488H26.42L26.65 29.7988Z" fill="white"/>
    <path d="M94.16 20.889C94.16 20.889 94.04 20.739 93.79 20.539C93.4274 20.2602 92.9948 20.0872 92.54 20.039C91.8661 19.9845 91.1879 20.0557 90.54 20.2489C89.727 20.4575 88.9313 20.7283 88.16 21.0589C86.7597 21.6698 85.4559 22.4817 84.29 23.4689C83.39 24.2189 82.92 24.7789 82.89 24.7489C82.9811 24.6039 83.0885 24.4697 83.21 24.349C83.5249 23.9977 83.8587 23.6639 84.21 23.349C85.3632 22.3213 86.673 21.4841 88.09 20.8689C88.8711 20.5305 89.681 20.2628 90.5099 20.069C91.1811 19.8719 91.8849 19.8107 92.58 19.889C93.0551 19.9497 93.5011 20.1517 93.86 20.4689C93.9569 20.5531 94.0411 20.6507 94.11 20.759L94.16 20.889Z" fill="white"/>
    <path d="M215.75 10.9089C215.223 11.0369 214.682 11.0941 214.14 11.0789C213.507 11.0558 212.878 10.9755 212.26 10.8389C211.439 10.654 210.633 10.4067 209.85 10.0989C208.98 9.76894 208.05 9.35892 207.05 8.92892L205.48 8.28894C204.94 8.07894 204.37 7.88892 203.79 7.67892C201.268 6.82451 198.697 6.12326 196.09 5.57895C191.35 4.59469 186.537 3.99606 181.7 3.78894C180.77 3.73894 179.93 3.73893 179.2 3.71893H177.3H176.11H175.79H176.1L177.3 3.64893H179.2C179.94 3.64893 180.78 3.64893 181.71 3.64893C186.558 3.81064 191.383 4.39285 196.13 5.38895C198.745 5.93381 201.323 6.64186 203.85 7.50894C204.43 7.71894 205 7.90894 205.54 8.12894L207.11 8.77893C208.11 9.20893 209.04 9.63893 209.9 9.96893C210.675 10.279 211.47 10.5363 212.28 10.7389C212.893 10.8858 213.52 10.9728 214.15 10.9989C214.546 11.0235 214.944 11.0235 215.34 10.9989H215.65L215.75 10.9089Z" fill="#263238"/>
</svg>
