<svg width="1410" height="442" viewBox="0 0 1410 442" fill="none" xmlns="http://www.w3.org/2000/svg">
    <path d="M296.488 381.599L500.201 379.004L499.85 351.466L296.137 354.062L296.488 381.599Z" fill="#455A64"/>
    <g opacity="0.4">
        <path opacity="0.4" d="M296.488 381.599L500.201 379.004L499.85 351.466L296.137 354.062L296.488 381.599Z" fill="black"/>
    </g>
    <path d="M287.56 351.85C288.594 348.905 290.425 346.304 292.849 344.337C295.273 342.37 298.195 341.115 301.29 340.71L346.96 334.71L363.5 322.58C374.998 314.149 388.843 309.52 403.1 309.34L492.43 308.21L511.57 307.96C511.841 307.956 512.111 308.007 512.362 308.11C512.613 308.213 512.84 308.366 513.03 308.56C513.236 308.779 513.387 309.044 513.469 309.333C513.551 309.622 513.562 309.927 513.501 310.221C513.44 310.516 513.309 310.791 513.119 311.024C512.929 311.257 512.686 311.441 512.41 311.56L504.63 315.01C504.931 315.503 505.202 316.014 505.44 316.54L510 326.8C511.111 329.284 511.7 331.969 511.73 334.69C512.316 334.677 512.898 334.779 513.445 334.991C513.991 335.203 514.49 335.52 514.913 335.925C515.337 336.33 515.676 336.814 515.913 337.351C516.149 337.887 516.277 338.464 516.29 339.05L516.52 356.89L521.18 358.89C522.277 359.366 523.214 360.148 523.878 361.143C524.541 362.138 524.903 363.304 524.92 364.5L524.98 369.13C524.999 370.878 524.412 372.579 523.318 373.943C522.224 375.307 520.691 376.249 518.98 376.61L494.49 381.8V379.58C494.451 376.469 493.799 373.395 492.571 370.536C491.344 367.677 489.565 365.087 487.336 362.916C485.107 360.744 482.472 359.034 479.581 357.881C476.691 356.729 473.601 356.158 470.49 356.2C467.379 356.24 464.306 356.893 461.448 358.121C458.589 359.349 456 361.129 453.829 363.357C451.658 365.586 449.947 368.22 448.794 371.11C447.641 374 447.069 377.089 447.11 380.2V382.41L348.52 383.67V381.45C348.438 375.166 345.864 369.172 341.363 364.785C336.863 360.399 330.804 357.98 324.52 358.06C318.236 358.142 312.242 360.716 307.855 365.217C303.469 369.717 301.05 375.776 301.13 382.06V384.28L289.03 384.43C288.252 384.442 287.48 384.3 286.757 384.013C286.034 383.726 285.375 383.298 284.817 382.756C284.26 382.213 283.815 381.566 283.508 380.851C283.202 380.136 283.039 379.368 283.03 378.59L282.96 373.36C282.891 367.873 283.788 362.416 285.61 357.24L287.56 351.85Z" fill="#263238"/>
    <path d="M505.45 316.57L510 326.8C511.111 329.284 511.7 331.969 511.73 334.69L505.63 334.76L499.44 317.39L504.64 315.09C504.94 315.566 505.21 316.061 505.45 316.57Z" fill="#455A64"/>
    <path d="M515.94 350.87H512.58C510.66 350.893 508.779 350.327 507.19 349.25L501.54 345.44C501.049 345.107 500.646 344.66 500.366 344.138C500.086 343.616 499.936 343.033 499.93 342.44C499.938 341.48 500.321 340.562 500.998 339.882C501.674 339.201 502.591 338.813 503.55 338.8L515.77 338.65C515.841 338.649 515.911 338.661 515.977 338.687C516.043 338.713 516.104 338.752 516.155 338.801C516.206 338.85 516.247 338.909 516.275 338.974C516.303 339.039 516.319 339.109 516.32 339.18L516.47 350.33C516.473 350.401 516.461 350.471 516.435 350.538C516.41 350.604 516.371 350.664 516.322 350.714C516.272 350.765 516.212 350.805 516.147 350.832C516.081 350.858 516.011 350.871 515.94 350.87Z" fill="#EBEBEB"/>
    <path d="M491.189 383.782C491.531 372.383 482.567 362.865 471.168 362.523C459.769 362.181 450.251 371.145 449.909 382.544C449.567 393.943 458.531 403.461 469.93 403.803C481.329 404.145 490.847 395.182 491.189 383.782Z" fill="#263238"/>
    <path d="M490.89 380.3C490.964 383.01 490.503 385.708 489.534 388.239C488.565 390.771 487.106 393.087 485.242 395.055C483.378 397.023 481.144 398.605 478.669 399.71C476.194 400.815 473.525 401.422 470.815 401.495C465.342 401.644 460.035 399.612 456.06 395.847C452.085 392.082 449.769 386.893 449.62 381.42L490.89 380.3Z" fill="#263238"/>
    <path d="M484.74 380.52C484.816 383.384 484.041 386.207 482.513 388.631C480.985 391.055 478.773 392.972 476.156 394.139C473.539 395.306 470.635 395.67 467.81 395.187C464.986 394.703 462.368 393.393 460.289 391.423C458.209 389.452 456.76 386.908 456.125 384.114C455.49 381.32 455.698 378.4 456.723 375.724C457.747 373.048 459.542 370.736 461.88 369.08C464.219 367.424 466.996 366.498 469.86 366.42C471.763 366.368 473.658 366.692 475.436 367.372C477.213 368.053 478.84 369.077 480.222 370.387C481.604 371.696 482.714 373.265 483.489 375.004C484.264 376.742 484.69 378.617 484.74 380.52Z" fill="#FAFAFA"/>
    <path d="M469.86 366.42C473.703 366.318 477.429 367.746 480.219 370.39C483.009 373.034 484.635 376.677 484.74 380.52L455.74 381.31C455.687 379.404 456.01 377.507 456.691 375.727C457.373 373.946 458.398 372.318 459.71 370.935C461.022 369.552 462.594 368.441 464.335 367.666C466.077 366.891 467.954 366.468 469.86 366.42Z" fill="#E0E0E0"/>
    <path d="M479.08 380.67C479.129 382.416 478.659 384.138 477.729 385.617C476.799 387.096 475.451 388.266 473.856 388.978C472.261 389.691 470.491 389.915 468.769 389.621C467.047 389.327 465.45 388.529 464.182 387.328C462.913 386.127 462.03 384.576 461.643 382.873C461.256 381.169 461.383 379.389 462.008 377.758C462.633 376.127 463.728 374.717 465.154 373.708C466.58 372.699 468.274 372.136 470.02 372.09C472.359 372.028 474.626 372.897 476.325 374.506C478.024 376.114 479.015 378.331 479.08 380.67Z" fill="#263238"/>
    <path d="M345.105 384.616C345.218 373.217 336.07 363.884 324.671 363.77C313.272 363.656 303.939 372.804 303.825 384.203C303.711 395.602 312.859 404.936 324.258 405.05C335.657 405.164 344.991 396.015 345.105 384.616Z" fill="#263238"/>
    <path d="M345.37 382.15C345.451 384.865 344.996 387.569 344.03 390.108C343.064 392.646 341.607 394.969 339.741 396.943C337.876 398.917 335.639 400.504 333.159 401.612C330.679 402.72 328.005 403.327 325.29 403.4C319.816 403.548 314.508 401.515 310.532 397.75C306.556 393.984 304.239 388.794 304.09 383.32L345.37 382.15Z" fill="#263238"/>
    <path d="M339.22 382.37C339.272 384.272 338.949 386.166 338.269 387.943C337.589 389.721 336.565 391.346 335.257 392.728C333.949 394.11 332.381 395.221 330.643 395.996C328.906 396.772 327.032 397.198 325.13 397.25C321.294 397.347 317.577 395.917 314.795 393.275C312.012 390.634 310.392 386.995 310.29 383.16C310.237 381.257 310.559 379.362 311.238 377.584C311.918 375.805 312.941 374.178 314.25 372.795C315.558 371.413 317.126 370.301 318.864 369.525C320.603 368.748 322.477 368.322 324.38 368.27C328.216 368.179 331.931 369.611 334.713 372.254C337.495 374.897 339.115 378.535 339.22 382.37Z" fill="#FAFAFA"/>
    <path d="M324.34 368.27C328.183 368.168 331.909 369.596 334.699 372.24C337.489 374.884 339.115 378.527 339.22 382.37L310.22 383.16C310.167 381.255 310.49 379.357 311.171 377.577C311.853 375.797 312.878 374.168 314.19 372.785C315.502 371.402 317.074 370.291 318.815 369.516C320.557 368.741 322.434 368.318 324.34 368.27Z" fill="#E0E0E0"/>
    <path d="M333.56 382.52C333.625 384.86 332.757 387.13 331.148 388.831C329.539 390.532 327.32 391.524 324.98 391.59C323.82 391.622 322.666 391.425 321.582 391.01C320.499 390.596 319.507 389.972 318.665 389.174C317.823 388.377 317.146 387.421 316.673 386.361C316.2 385.302 315.941 384.16 315.91 383C315.848 380.659 316.718 378.39 318.329 376.691C319.94 374.992 322.16 374.003 324.5 373.94C325.658 373.908 326.812 374.105 327.894 374.518C328.976 374.932 329.967 375.556 330.808 376.352C331.649 377.149 332.325 378.104 332.798 379.162C333.27 380.221 333.529 381.361 333.56 382.52Z" fill="#263238"/>
    <path d="M346.97 334.8L363.51 322.67C368.272 319.184 373.465 316.33 378.96 314.18L384.46 314.11L351.35 336.72L346.97 334.8Z" fill="#455A64"/>
    <path d="M297.86 347.53L289.75 347.63C290.913 346.052 292.301 344.654 293.87 343.48C295.72 342.87 298.01 345.16 297.86 347.53Z" fill="#FAFAFA"/>
    <path d="M463.1 335.89L355.71 337.26L386.1 315.71C388.328 314.033 391.032 313.108 393.82 313.07L460.39 312.23C460.39 312.23 484.3 311.34 489.64 318.48L463.1 335.89Z" fill="#263238"/>
    <path d="M462.18 335.95L457.9 313.59L470.39 313.43C475.194 313.427 479.961 314.274 484.47 315.93L488.29 317.55C488.815 317.75 489.286 318.07 489.664 318.485C490.042 318.901 490.317 319.399 490.467 319.94C490.617 320.482 490.637 321.05 490.527 321.601C490.416 322.152 490.177 322.669 489.83 323.11L485.51 328.61C483.893 330.687 481.858 332.401 479.535 333.639C477.213 334.878 474.656 335.614 472.03 335.8C471.64 335.8 471.25 335.8 470.86 335.8L462.18 335.95ZM412.66 336.58L412.37 314.17L449.17 313.7L453.45 336.06L412.66 336.58ZM360.06 337.25L387.38 316.25C388.929 315.063 390.819 314.407 392.77 314.38L405.5 314.22L401.5 336.68L360.06 337.25Z" fill="#455A64"/>
    <path d="M406.39 377.44C406.395 377.407 406.395 377.373 406.39 377.34V377.02C406.39 376.74 406.39 376.34 406.39 375.83C406.39 374.77 406.34 373.27 406.31 371.43C406.22 367.7 406.09 362.57 405.95 356.91C405.87 354.07 405.8 351.37 405.73 348.91C405.73 347.68 405.66 346.52 405.63 345.42C405.577 344.42 405.601 343.417 405.7 342.42C405.862 340.964 406.177 339.53 406.64 338.14C406.8 337.64 406.94 337.27 407.04 337.01L407.16 336.72V336.62V336.71C407.16 336.78 407.08 336.87 407.03 337C406.98 337.13 406.76 337.62 406.59 338.11C406.102 339.499 405.766 340.938 405.59 342.4C405.48 343.396 405.45 344.399 405.5 345.4C405.5 346.49 405.5 347.66 405.58 348.89C405.64 351.34 405.71 354.05 405.79 356.89C405.95 362.55 406.09 367.68 406.2 371.41C406.26 373.26 406.31 374.76 406.34 375.81C406.34 376.32 406.34 376.72 406.34 377.01C406.34 377.13 406.34 377.24 406.34 377.32C406.349 377.363 406.366 377.403 406.39 377.44Z" fill="#455A64"/>
    <path d="M359.29 338.8L359.2 338.86L358.97 339.05L358.79 339.19L358.61 339.39C358.455 339.554 358.311 339.727 358.18 339.91C357.381 341.103 356.771 342.412 356.37 343.79C356.09 344.65 355.83 345.61 355.6 346.65C355.49 347.17 355.39 347.71 355.29 348.27C355.196 348.848 355.162 349.435 355.19 350.02C355.19 352.41 355.32 355.02 355.43 357.79C355.64 363.3 355.87 368.29 356.05 371.9C356.14 373.69 356.22 375.15 356.27 376.17C356.27 376.66 356.27 377.05 356.34 377.33V377.63C356.34 377.7 356.34 377.73 356.34 377.73V377.33C356.34 377.05 356.34 376.66 356.34 376.17C356.34 375.17 356.25 373.68 356.18 371.89C356.03 368.27 355.83 363.29 355.61 357.78C355.51 355.03 355.4 352.4 355.36 350.02C355.327 349.441 355.361 348.861 355.46 348.29C355.55 347.74 355.64 347.2 355.76 346.68C355.98 345.68 356.23 344.68 356.49 343.83C356.874 342.459 357.464 341.154 358.24 339.96C358.545 339.535 358.897 339.145 359.29 338.8Z" fill="#263238"/>
    <path d="M355.73 338.14C355.725 337.486 355.892 336.842 356.215 336.273C356.538 335.704 357.006 335.23 357.57 334.9L362.38 332.12C363.745 331.327 365.292 330.9 366.87 330.88C367.846 330.872 368.817 331.014 369.75 331.3C370.762 331.636 371.648 332.273 372.289 333.125C372.93 333.977 373.297 335.004 373.34 336.07C373.376 336.786 373.268 337.503 373.021 338.176C372.774 338.85 372.393 339.466 371.902 339.989C371.411 340.512 370.819 340.931 370.162 341.219C369.506 341.508 368.797 341.661 368.08 341.67L359.47 341.78C358.985 341.787 358.504 341.698 358.054 341.518C357.604 341.339 357.193 341.073 356.846 340.735C356.499 340.397 356.221 339.993 356.03 339.548C355.838 339.103 355.737 338.625 355.73 338.14Z" fill="#263238"/>
    <path d="M355.73 338.14C355.764 338.295 355.787 338.452 355.8 338.61C355.865 339.051 356.014 339.475 356.24 339.86C356.593 340.472 357.114 340.972 357.74 341.3C358.129 341.505 358.553 341.634 358.99 341.68C359.483 341.705 359.977 341.705 360.47 341.68L367.85 341.56C368.533 341.563 369.211 341.441 369.85 341.2C370.526 340.932 371.142 340.53 371.66 340.02C372.191 339.483 372.6 338.839 372.86 338.13C373.12 337.4 373.222 336.623 373.16 335.85C373.091 335.086 372.856 334.346 372.471 333.683C372.086 333.019 371.56 332.448 370.93 332.01C370.323 331.612 369.643 331.337 368.93 331.2C368.245 331.043 367.543 330.969 366.84 330.98C365.536 330.99 364.25 331.283 363.07 331.84C362.51 332.09 362.01 332.41 361.51 332.69L360.08 333.51L357.62 334.91C357.003 335.258 356.494 335.77 356.15 336.39C355.941 336.786 355.802 337.216 355.74 337.66C355.748 337.816 355.748 337.973 355.74 338.13C355.725 337.974 355.725 337.816 355.74 337.66C355.779 337.202 355.908 336.757 356.12 336.35C356.446 335.699 356.958 335.16 357.59 334.8L360.04 333.36L361.46 332.53C361.96 332.25 362.46 331.92 363.03 331.66C364.233 331.084 365.547 330.777 366.88 330.76C367.599 330.75 368.318 330.824 369.02 330.98C369.762 331.119 370.47 331.404 371.1 331.82C371.759 332.274 372.309 332.868 372.712 333.56C373.114 334.251 373.36 335.023 373.43 335.82C373.504 336.626 373.398 337.439 373.12 338.2C372.853 338.952 372.423 339.635 371.86 340.2C371.325 340.74 370.681 341.16 369.97 341.43C369.292 341.684 368.574 341.809 367.85 341.8L360.47 341.87C359.97 341.895 359.47 341.895 358.97 341.87C358.518 341.814 358.081 341.675 357.68 341.46C357.039 341.117 356.512 340.596 356.16 339.96C355.94 339.557 355.801 339.116 355.75 338.66C355.73 338.487 355.723 338.314 355.73 338.14Z" fill="#455A64"/>
    <path d="M369.02 332.89C368.887 332.753 368.747 332.623 368.6 332.5C368.185 332.184 367.689 331.99 367.17 331.94C366.393 331.886 365.612 331.981 364.87 332.22C363.945 332.48 363.042 332.815 362.17 333.22C360.58 333.936 359.104 334.883 357.79 336.03C356.79 336.9 356.24 337.54 356.21 337.51C356.317 337.347 356.438 337.193 356.57 337.05C356.915 336.647 357.286 336.266 357.68 335.91C358.982 334.716 360.467 333.74 362.08 333.02C362.963 332.621 363.88 332.303 364.82 332.07C365.587 331.836 366.392 331.754 367.19 331.83C367.732 331.901 368.243 332.126 368.66 332.48C368.769 332.578 368.867 332.689 368.95 332.81C369 332.8 369.03 332.89 369.02 332.89Z" fill="white"/>
    <path d="M440.2 381.93C440.2 381.93 440.2 381.84 440.2 381.67C440.2 381.5 440.2 381.25 440.2 380.93C440.2 380.61 440.13 380.2 440.12 379.72C440.11 379.24 440.12 378.72 440.12 378.06C440.12 377.4 440.22 376.75 440.27 375.99C440.27 375.61 440.38 375.22 440.44 374.82C440.5 374.42 440.55 373.99 440.65 373.55C441.047 371.584 441.627 369.659 442.38 367.8C443.339 365.568 444.558 363.457 446.01 361.51C447.678 359.279 449.655 357.296 451.88 355.62C454.344 353.764 457.098 352.328 460.03 351.37C463.179 350.359 466.463 349.83 469.77 349.8C473.081 349.788 476.377 350.264 479.55 351.21C482.504 352.115 485.302 353.463 487.85 355.21C490.166 356.765 492.275 358.606 494.13 360.69C495.749 362.503 497.183 364.472 498.41 366.57C499.399 368.313 500.255 370.128 500.97 372C501.13 372.41 501.25 372.82 501.39 373.21C501.53 373.6 501.66 373.97 501.76 374.34C501.95 375.07 502.15 375.74 502.29 376.34L502.64 377.96C502.73 378.44 502.78 378.84 502.83 379.16C502.88 379.48 502.92 379.73 502.95 379.9C502.98 380.07 502.95 380.15 502.95 380.15C502.954 380.067 502.954 379.983 502.95 379.9L502.85 379.16C502.85 378.83 502.76 378.43 502.67 377.96C502.58 377.49 502.47 376.96 502.34 376.33C502.21 375.7 502.01 375.05 501.82 374.33C501.73 373.96 501.59 373.59 501.46 373.19C501.33 372.79 501.21 372.39 501.05 371.98C500.343 370.097 499.49 368.271 498.5 366.52C497.306 364.387 495.895 362.384 494.29 360.54C492.427 358.442 490.311 356.585 487.99 355.01C485.425 353.262 482.61 351.913 479.64 351.01C476.452 350.051 473.139 349.57 469.81 349.58C466.48 349.613 463.175 350.156 460.01 351.19C457.062 352.153 454.294 353.6 451.82 355.47C449.585 357.16 447.602 359.16 445.93 361.41C444.464 363.386 443.242 365.531 442.29 367.8C441.522 369.66 440.932 371.588 440.53 373.56C440.43 374 440.39 374.43 440.32 374.83C440.25 375.23 440.19 375.63 440.16 376.01C440.16 376.77 440.04 377.46 440.03 378.09C440.02 378.72 440.03 379.27 440.03 379.75C440.03 380.23 440.1 380.63 440.12 380.96C440.14 381.29 440.17 381.53 440.19 381.7L440.2 381.93Z" fill="#455A64"/>
    <path d="M460.93 351.01L461.03 350.86L461.29 350.44C461.52 350.06 461.83 349.51 462.2 348.83C462.645 348.028 463.048 347.203 463.41 346.36C463.514 346.111 463.594 345.854 463.65 345.59C463.685 345.445 463.685 345.295 463.65 345.15C463.65 345.01 463.57 344.88 463.53 344.75C463.34 344.21 463.13 343.67 462.9 343.12C461.99 340.92 461.07 338.97 460.41 337.56C460.08 336.86 459.8 336.29 459.61 335.9C459.52 335.72 459.44 335.58 459.38 335.45C459.32 335.32 459.29 335.3 459.29 335.3C459.29 335.3 459.29 335.36 459.35 335.47L459.54 335.93L460.29 337.62C460.92 339.04 461.82 341 462.73 343.19C462.957 343.743 463.167 344.283 463.36 344.81C463.462 345.046 463.51 345.303 463.5 345.56C463.451 345.813 463.378 346.061 463.28 346.3C462.9 347.3 462.47 348.07 462.12 348.77L461.26 350.4L461.03 350.85C460.95 350.95 460.92 351 460.93 351.01Z" fill="#455A64"/>
    <path d="M490.89 357.54C490.89 357.54 496.67 357.54 503.79 357.41C510.91 357.28 516.69 357.15 516.69 357.1C516.69 357.05 510.92 357.1 503.79 357.23C496.66 357.36 490.88 357.49 490.89 357.54Z" fill="#263238"/>
    <path d="M356.38 377.8C356.38 377.86 375.12 377.66 398.24 377.36C421.36 377.06 440.11 376.79 440.11 376.74C440.11 376.69 421.36 376.88 398.24 377.18C375.12 377.48 356.38 377.7 356.38 377.8Z" fill="#455A64"/>
    <path d="M283.08 378.91C283.08 378.91 285.95 378.97 289.49 378.91C293.03 378.85 295.9 378.79 295.9 378.74C295.9 378.69 293.03 378.68 289.49 378.74C285.95 378.8 283.08 378.86 283.08 378.91Z" fill="#263238"/>
    <path d="M298.5 344.87H298.64H299.04L300.59 344.73C301.93 344.6 303.86 344.4 306.25 344.13C311.04 343.59 317.64 342.76 324.9 341.65C332.16 340.54 338.7 339.36 343.43 338.45C345.79 337.99 347.7 337.6 349.02 337.33L350.53 337L350.93 336.91H351.06H350.92L350.53 336.98L349 337.27L343.4 338.34C338.67 339.22 332.13 340.34 324.87 341.48C317.61 342.62 311.02 343.48 306.24 344.02L300.58 344.67L299.04 344.85H298.64L298.5 344.87Z" fill="#455A64"/>
    <path d="M391.84 345.94H391.55C391.276 345.898 391.014 345.799 390.78 345.65C390.411 345.413 390.13 345.062 389.98 344.65C389.9 344.391 389.863 344.121 389.87 343.85C389.881 343.548 389.956 343.251 390.09 342.98C390.254 342.679 390.495 342.428 390.789 342.253C391.083 342.077 391.418 341.983 391.76 341.98H394.21L399.85 341.92C400.325 341.914 400.785 342.085 401.14 342.4C401.483 342.709 401.703 343.132 401.76 343.59C401.827 344.032 401.75 344.485 401.54 344.88C401.335 345.254 401.012 345.55 400.62 345.72C400.232 345.854 399.82 345.908 399.41 345.88H398.22H396.08L392.97 345.95H392.13H391.84H392.13H400.04C400.264 345.931 400.483 345.877 400.69 345.79C401.114 345.604 401.465 345.284 401.69 344.88C401.916 344.45 402.003 343.961 401.94 343.48C401.873 342.975 401.629 342.511 401.25 342.17C400.86 341.821 400.353 341.632 399.83 341.64L394.2 341.72H391.74C391.369 341.733 391.007 341.846 390.694 342.047C390.381 342.247 390.128 342.528 389.96 342.86C389.817 343.149 389.741 343.467 389.74 343.79C389.735 344.075 389.779 344.359 389.87 344.63C390.039 345.049 390.341 345.4 390.73 345.63C390.974 345.776 391.247 345.868 391.53 345.9C391.631 345.927 391.735 345.941 391.84 345.94Z" fill="#263238"/>
    <path d="M392.47 341.25C393.531 341.338 394.597 341.358 395.66 341.31C396.729 341.334 397.798 341.287 398.86 341.17C397.794 341.111 396.726 341.111 395.66 341.17C394.596 341.135 393.531 341.162 392.47 341.25Z" fill="white"/>
    <path d="M444.92 345.59C444.92 345.59 444.82 345.59 444.63 345.59C444.357 345.54 444.095 345.438 443.86 345.29C443.495 345.052 443.217 344.701 443.07 344.29C442.981 344.03 442.944 343.755 442.96 343.48C442.963 343.177 443.038 342.878 443.18 342.61C443.343 342.311 443.583 342.061 443.875 341.885C444.166 341.709 444.5 341.614 444.84 341.61H447.3L452.93 341.54C453.406 341.539 453.865 341.713 454.22 342.03C454.567 342.333 454.791 342.753 454.85 343.21C454.911 343.652 454.834 344.103 454.63 344.5C454.425 344.874 454.102 345.17 453.71 345.34C453.324 345.483 452.91 345.538 452.5 345.5H451.3H449.16L446.06 345.57H445.22H444.92C445.019 345.585 445.121 345.585 445.22 345.57H449.16H451.31H452.5C452.71 345.57 452.91 345.57 453.13 345.57C453.354 345.551 453.573 345.497 453.78 345.41C454.204 345.224 454.555 344.904 454.78 344.5C455.005 344.07 455.089 343.58 455.02 343.1C454.958 342.596 454.716 342.131 454.34 341.79C453.947 341.447 453.442 341.258 452.92 341.26L447.29 341.34H444.83C444.458 341.353 444.097 341.465 443.784 341.666C443.47 341.866 443.217 342.148 443.05 342.48C442.908 342.769 442.832 343.087 442.83 343.41C442.82 343.696 442.864 343.981 442.96 344.25C443.123 344.669 443.422 345.022 443.81 345.25C444.056 345.401 444.333 345.493 444.62 345.52C444.716 345.558 444.817 345.581 444.92 345.59Z" fill="#263238"/>
    <path d="M445.55 340.91C446.616 340.969 447.684 340.969 448.75 340.91C449.815 340.928 450.88 340.884 451.94 340.78C450.879 340.692 449.814 340.672 448.75 340.72C447.681 340.718 446.612 340.782 445.55 340.91Z" fill="white"/>
    <path d="M295.66 384.43V383.43C295.66 383.11 295.66 382.7 295.66 382.22C295.66 381.74 295.72 381.22 295.76 380.57C295.8 379.92 295.91 379.26 296 378.51C296 378.14 296.14 377.75 296.21 377.35C296.28 376.95 296.36 376.52 296.47 376.1C296.942 374.154 297.584 372.253 298.39 370.42C299.394 368.211 300.641 366.121 302.11 364.19C303.79 361.972 305.764 359.993 307.98 358.31C310.437 356.45 313.179 355.001 316.1 354.02C319.233 352.974 322.507 352.411 325.81 352.35C329.113 352.326 332.401 352.805 335.56 353.77C338.502 354.679 341.278 356.056 343.78 357.85C346.033 359.476 348.052 361.404 349.78 363.58C351.294 365.477 352.592 367.536 353.65 369.72C354.502 371.53 355.195 373.41 355.72 375.34C355.84 375.77 355.91 376.19 356.01 376.59C356.11 376.99 356.2 377.37 356.25 377.74C356.36 378.49 356.48 379.18 356.54 379.74C356.6 380.3 356.64 380.91 356.68 381.39C356.72 381.87 356.68 382.28 356.68 382.6V383.35C356.68 383.52 356.68 383.6 356.68 383.6C356.685 383.517 356.685 383.433 356.68 383.35V382.6C356.68 382.28 356.68 381.87 356.68 381.39C356.68 380.91 356.6 380.39 356.56 379.74C356.52 379.09 356.38 378.43 356.28 377.68C356.28 377.3 356.12 376.92 356.04 376.52C355.96 376.12 355.88 375.69 355.76 375.26C355.262 373.321 354.592 371.431 353.76 369.61C352.7 367.415 351.402 365.342 349.89 363.43C348.159 361.245 346.141 359.304 343.89 357.66C341.38 355.847 338.59 354.458 335.63 353.55C332.453 352.572 329.144 352.09 325.82 352.12C322.496 352.175 319.201 352.741 316.05 353.8C313.112 354.785 310.356 356.244 307.89 358.12C305.662 359.814 303.677 361.806 301.99 364.04C300.525 365.99 299.281 368.096 298.28 370.32C297.475 372.158 296.839 374.066 296.38 376.02C296.27 376.45 296.21 376.88 296.12 377.28C296.03 377.68 295.96 378.07 295.92 378.45C295.84 379.2 295.73 379.89 295.69 380.51C295.65 381.13 295.69 381.69 295.62 382.17C295.55 382.65 295.62 383.06 295.62 383.38V384.13C295.65 384.35 295.66 384.43 295.66 384.43Z" fill="#455A64"/>
    <path d="M451.47 312.34H452.11H453.93L460.62 312.26L482.69 311.91L494.84 311.69C498.57 311.62 501.94 311.6 504.76 311.4C506.99 311.269 509.209 310.985 511.4 310.55C512.18 310.39 512.77 310.25 513.17 310.14L513.63 310.01H513.78H513.63L513.16 310.11C512.76 310.21 512.16 310.34 511.39 310.49C509.196 310.894 506.978 311.158 504.75 311.28C501.94 311.46 498.57 311.46 494.84 311.53L482.69 311.73L460.61 312.14L453.93 312.28H452.11H451.63L451.47 312.34Z" fill="#263238"/>
    <path d="M426.12 322.18C426.12 322.18 430.04 324.27 434.92 326.75C439.8 329.23 443.77 331.2 443.8 331.15C443.83 331.1 439.88 329.06 435 326.58C430.12 324.1 426.14 322.13 426.12 322.18Z" fill="#FAFAFA"/>
    <path d="M417.91 320.64L418.1 320.75L418.66 321.05L420.74 322.05C422.49 322.94 424.9 324.17 427.55 325.57C430.2 326.97 432.55 328.27 434.3 329.21L436.3 330.33L436.85 330.63C436.98 330.69 437.05 330.73 437.06 330.72L436.87 330.59L436.33 330.27C435.86 329.98 435.18 329.58 434.33 329.1C432.63 328.1 430.26 326.81 427.61 325.41C424.96 324.01 422.53 322.79 420.77 321.93L418.67 320.93L418.09 320.67C418.031 320.655 417.971 320.645 417.91 320.64Z" fill="#FAFAFA"/>
    <path d="M382.43 324.07C382.43 324.07 382.43 324.07 382.59 324.15L383.04 324.36L384.72 325.08C386.13 325.69 388.08 326.55 390.21 327.55C392.34 328.55 394.21 329.49 395.63 330.18L397.26 331L397.71 331.22L397.87 331.29L397.73 331.19L397.3 330.94L395.69 330.07C394.33 329.34 392.43 328.38 390.29 327.38C388.15 326.38 386.2 325.54 384.77 324.96L383.07 324.29L382.6 324.12L382.43 324.07Z" fill="#FAFAFA"/>
    <path d="M387.54 323.5C387.861 323.696 388.195 323.87 388.54 324.02C389.18 324.32 390.06 324.75 391.02 325.27C391.98 325.79 392.81 326.27 393.42 326.66C393.736 326.882 394.071 327.076 394.42 327.24C394.135 326.982 393.827 326.751 393.5 326.55C392.729 326.028 391.931 325.548 391.11 325.11C390.296 324.662 389.458 324.258 388.6 323.9C388.26 323.733 387.905 323.599 387.54 323.5Z" fill="#FAFAFA"/>
    <path d="M467.73 322.28C467.73 322.28 470.31 323.34 473.54 324.53C476.77 325.72 479.4 326.65 479.42 326.61C479.44 326.57 476.83 325.55 473.6 324.36C470.37 323.17 467.75 322.24 467.73 322.28Z" fill="#FAFAFA"/>
    <path d="M471.05 321.16C471.05 321.16 473.27 322.05 476.05 323.02C478.83 323.99 481.11 324.75 481.12 324.7C481.13 324.65 478.9 323.82 476.12 322.85C473.34 321.88 471.06 321.12 471.05 321.16Z" fill="#FAFAFA"/>
    <path d="M319.96 351.35H320.25L321.09 351.25L321.7 351.18L322.42 351.13C322.94 351.13 323.52 351.03 324.18 351.03H325.18H326.29C327.06 351.03 327.88 351.11 328.74 351.18C330.601 351.387 332.445 351.721 334.26 352.18C336.069 352.664 337.84 353.279 339.56 354.02C340.34 354.38 341.1 354.71 341.77 355.08C342.11 355.26 342.44 355.42 342.77 355.6L343.66 356.12C344.23 356.44 344.66 356.78 345.15 357.06L345.75 357.46L346.24 357.82L346.92 358.31L347.17 358.47L346.95 358.28L346.28 357.76L345.8 357.39L345.2 356.97C344.77 356.68 344.29 356.33 343.72 355.97L342.84 355.43C342.54 355.25 342.2 355.09 341.84 354.9C341.17 354.52 340.42 354.19 339.63 353.82C337.906 353.068 336.127 352.446 334.31 351.96C332.484 351.49 330.626 351.155 328.75 350.96C327.89 350.9 327.07 350.82 326.3 350.82C325.91 350.82 325.54 350.82 325.18 350.82H324.18C323.53 350.82 322.94 350.9 322.42 350.94L321.7 351.01L321.09 351.1L320.26 351.23L319.96 351.35Z" fill="#FAFAFA"/>
    <path d="M468.84 348.49H469.07H469.74C470.03 348.49 470.38 348.49 470.74 348.49C471.1 348.49 471.62 348.49 472.13 348.56L472.94 348.62L473.81 348.73C474.41 348.79 475.05 348.91 475.72 349.01C477.171 349.287 478.606 349.641 480.02 350.07C481.52 350.55 482.92 351.07 484.17 351.63C485.42 352.19 486.52 352.72 487.43 353.21C487.89 353.44 488.29 353.68 488.65 353.88L489.56 354.41L490.13 354.75C490.195 354.795 490.266 354.832 490.34 354.86C490.285 354.803 490.221 354.756 490.15 354.72L489.59 354.35C489.35 354.19 489.06 354 488.7 353.79C488.34 353.58 487.95 353.33 487.49 353.09C486.59 352.58 485.49 352.03 484.24 351.47C482.883 350.871 481.494 350.346 480.08 349.9C478.659 349.463 477.213 349.109 475.75 348.84C475.07 348.74 474.43 348.63 473.82 348.57L472.95 348.48L472.14 348.43C471.62 348.43 471.14 348.43 470.74 348.43C470.34 348.43 469.98 348.43 469.74 348.43H469.07L468.84 348.49Z" fill="#FAFAFA"/>
    <path d="M0 406H1410" stroke="#E0E0E0" stroke-width="5"/>
    <path d="M579.02 18.4201C579.6 14.1501 573.57 10.6301 569.02 10.2601C566.86 10.0901 564.61 10.4201 562.56 9.70009C558.12 8.16009 556.35 2.42009 552.02 0.590089C548.78 -0.769911 545.02 0.440089 541.91 2.02009C538.8 3.60009 535.66 5.59009 532.16 5.82009C529.11 6.01009 525.79 4.88009 523.16 6.37009C521.16 7.48009 520.16 9.77009 518.3 11.1301C516.44 12.4901 514.16 12.7301 511.94 12.8501C509.72 12.9701 507.41 12.9901 505.38 13.9201C503.35 14.8501 501.68 16.9901 502.1 19.1801L579.02 18.4201Z" fill="#EBEBEB"/>
    <path d="M1376.98 83.4398C1377.72 77.9998 1370.04 73.5198 1364.27 73.0498C1361.52 72.8298 1358.66 73.2498 1356.06 72.3398C1350.41 70.3398 1348.15 63.0798 1342.64 60.7498C1338.52 59.0198 1333.78 60.5598 1329.78 62.5698C1325.78 64.5798 1321.84 67.1098 1317.38 67.3998C1313.49 67.6498 1309.28 66.2098 1305.88 68.0998C1303.35 69.5198 1302.03 72.4298 1299.69 74.1498C1297.35 75.8698 1294.43 76.1498 1291.6 76.3498C1288.77 76.5498 1285.84 76.5298 1283.26 77.7098C1280.68 78.8898 1278.55 81.6198 1279.08 84.3998L1376.98 83.4398Z" fill="#EBEBEB"/>
    <path d="M395.982 83.4342C396.722 77.9942 389.042 73.5142 383.272 73.0542C380.522 72.8342 377.662 73.2542 375.062 72.3442C369.412 70.3442 367.152 63.0742 361.642 60.7542C357.522 59.0142 352.782 60.5642 348.782 62.5742C344.782 64.5842 340.842 67.1142 336.382 67.3942C332.492 67.6442 328.282 66.2042 324.882 68.1042C322.352 69.5142 321.032 72.4342 318.692 74.1042C316.352 75.7742 313.432 76.1042 310.602 76.2942C307.772 76.4842 304.842 76.4842 302.262 77.6642C299.682 78.8442 297.552 81.5642 298.082 84.3542L395.982 83.4342Z" fill="#F5F5F5"/>
    <path d="M1059 40.424C1059.59 36.144 1053.56 32.624 1049 32.254C1046.84 32.084 1044.59 32.414 1042.54 31.704C1038.1 30.154 1036.33 24.414 1031.99 22.594C1028.75 21.224 1024.99 22.444 1021.89 24.024C1018.79 25.604 1015.64 27.584 1012.13 27.814C1009.08 28.004 1005.77 26.874 1003.13 28.364C1001.13 29.474 1000.13 31.774 998.265 33.124C996.395 34.474 994.135 34.724 991.905 34.844C989.675 34.964 987.375 34.994 985.355 35.924C983.335 36.854 981.645 38.994 982.065 41.184L1059 40.424Z" fill="#F5F5F5"/>
    <path d="M712.59 58.9899C713.18 54.7099 707.15 51.1899 702.59 50.8299C700.43 50.6499 698.18 50.9799 696.13 50.2699C691.69 48.7199 689.92 42.9799 685.58 41.1599C682.35 39.7899 678.58 41.0099 675.48 42.5899C672.38 44.1699 669.23 46.1599 665.72 46.3799C662.67 46.5799 659.36 45.4399 656.72 46.9299C654.72 48.0499 653.72 50.3399 651.85 51.6899C649.98 53.0399 647.72 53.2899 645.49 53.4099C643.26 53.5299 640.96 53.5599 638.94 54.4899C636.92 55.4199 635.23 57.5599 635.65 59.7499L712.59 58.9899Z" fill="#F5F5F5"/>
    <path d="M123.005 59.424C123.595 55.144 117.565 51.624 113.005 51.264C110.845 51.084 108.595 51.414 106.545 50.704C102.105 49.154 100.335 43.414 95.9946 41.594C92.7646 40.224 88.9946 41.444 85.8946 43.024C82.7946 44.604 79.6446 46.594 76.1346 46.814C73.0846 47.014 69.7746 45.874 67.1346 47.364C65.1346 48.484 64.1346 50.774 62.2646 52.124C60.3946 53.474 58.1346 53.724 55.9046 53.844C53.6746 53.964 51.3746 53.994 49.3546 54.924C47.3346 55.854 45.6446 57.994 46.0646 60.184L123.005 59.424Z" fill="#F5F5F5"/>
    <path d="M973.8 441.83H835.72L829.58 433.79H967.67L973.8 441.83Z" fill="#E0E0E0"/>
    <path d="M631.81 437.81H493.72L487.59 429.77H625.67L631.81 437.81Z" fill="#E0E0E0"/>
    <path d="M218 427H590V409" stroke="#F56D45" stroke-width="5"/>
    <path d="M552 427H924V409" stroke="#F56D45" stroke-width="5"/>
</svg>
