<svg width="995" height="361" viewBox="0 0 995 361" fill="none" xmlns="http://www.w3.org/2000/svg">
    <path d="M69.5489 136.927C69.8483 136.006 71.1517 136.006 71.4511 136.927L71.9593 138.491C72.0932 138.903 72.4772 139.182 72.9104 139.182H74.5552C75.524 139.182 75.9267 140.422 75.143 140.991L73.8123 141.958C73.4618 142.213 73.3152 142.664 73.449 143.076L73.9573 144.641C74.2567 145.562 73.2022 146.328 72.4185 145.759L71.0878 144.792C70.7373 144.537 70.2627 144.537 69.9122 144.792L68.5815 145.759C67.7978 146.328 66.7433 145.562 67.0427 144.641L67.551 143.076C67.6848 142.664 67.5382 142.213 67.1877 141.958L65.857 140.991C65.0733 140.422 65.476 139.182 66.4448 139.182H68.0896C68.5228 139.182 68.9068 138.903 69.0407 138.491L69.5489 136.927Z" fill="#F56D45"/>
    <path d="M76.5489 186.927C76.8483 186.006 78.1517 186.006 78.4511 186.927L78.9593 188.491C79.0932 188.903 79.4772 189.182 79.9104 189.182H81.5552C82.524 189.182 82.9267 190.422 82.143 190.991L80.8123 191.958C80.4618 192.213 80.3152 192.664 80.449 193.076L80.9573 194.641C81.2567 195.562 80.2022 196.328 79.4185 195.759L78.0878 194.792C77.7373 194.537 77.2627 194.537 76.9122 194.792L75.5815 195.759C74.7978 196.328 73.7433 195.562 74.0427 194.641L74.551 193.076C74.6848 192.664 74.5382 192.213 74.1877 191.958L72.857 190.991C72.0733 190.422 72.476 189.182 73.4448 189.182H75.0896C75.5228 189.182 75.9068 188.903 76.0407 188.491L76.5489 186.927Z" fill="#F56D45"/>
    <path d="M108.549 113.927C108.848 113.006 110.152 113.006 110.451 113.927L110.959 115.491C111.093 115.903 111.477 116.182 111.91 116.182H113.555C114.524 116.182 114.927 117.422 114.143 117.991L112.812 118.958C112.462 119.213 112.315 119.664 112.449 120.076L112.957 121.641C113.257 122.562 112.202 123.328 111.418 122.759L110.088 121.792C109.737 121.537 109.263 121.537 108.912 121.792L107.582 122.759C106.798 123.328 105.743 122.562 106.043 121.641L106.551 120.076C106.685 119.664 106.538 119.213 106.188 118.958L104.857 117.991C104.073 117.422 104.476 116.182 105.445 116.182H107.09C107.523 116.182 107.907 115.903 108.041 115.491L108.549 113.927Z" fill="#F56D45"/>
    <path d="M128.549 144.927C128.848 144.006 130.152 144.006 130.451 144.927L130.959 146.491C131.093 146.903 131.477 147.182 131.91 147.182H133.555C134.524 147.182 134.927 148.422 134.143 148.991L132.812 149.958C132.462 150.213 132.315 150.664 132.449 151.076L132.957 152.641C133.257 153.562 132.202 154.328 131.418 153.759L130.088 152.792C129.737 152.537 129.263 152.537 128.912 152.792L127.582 153.759C126.798 154.328 125.743 153.562 126.043 152.641L126.551 151.076C126.685 150.664 126.538 150.213 126.188 149.958L124.857 148.991C124.073 148.422 124.476 147.182 125.445 147.182H127.09C127.523 147.182 127.907 146.903 128.041 146.491L128.549 144.927Z" fill="#F56D45"/>
    <path d="M4.54894 31.9271C4.8483 31.0057 6.1517 31.0057 6.45106 31.9271L6.95934 33.4914C7.09321 33.9034 7.47717 34.1824 7.9104 34.1824H9.55524C10.524 34.1824 10.9267 35.422 10.143 35.9914L8.81232 36.9582C8.46183 37.2128 8.31518 37.6642 8.44905 38.0762L8.95733 39.6406C9.25669 40.5619 8.20221 41.328 7.41849 40.7586L6.08779 39.7918C5.7373 39.5372 5.2627 39.5372 4.91221 39.7918L3.58151 40.7586C2.7978 41.328 1.74331 40.5619 2.04267 39.6406L2.55095 38.0762C2.68483 37.6642 2.53817 37.2128 2.18768 36.9582L0.856976 35.9914C0.0732617 35.422 0.476037 34.1824 1.44476 34.1824H3.0896C3.52283 34.1824 3.90678 33.9034 4.04066 33.4914L4.54894 31.9271Z" fill="#F56D45"/>
    <path d="M171.549 201.927C171.848 201.006 173.152 201.006 173.451 201.927L173.959 203.491C174.093 203.903 174.477 204.182 174.91 204.182H176.555C177.524 204.182 177.927 205.422 177.143 205.991L175.812 206.958C175.462 207.213 175.315 207.664 175.449 208.076L175.957 209.641C176.257 210.562 175.202 211.328 174.418 210.759L173.088 209.792C172.737 209.537 172.263 209.537 171.912 209.792L170.582 210.759C169.798 211.328 168.743 210.562 169.043 209.641L169.551 208.076C169.685 207.664 169.538 207.213 169.188 206.958L167.857 205.991C167.073 205.422 167.476 204.182 168.445 204.182H170.09C170.523 204.182 170.907 203.903 171.041 203.491L171.549 201.927Z" fill="#F56D45"/>
    <path d="M89.5489 266.927C89.8483 266.006 91.1517 266.006 91.4511 266.927L91.9593 268.491C92.0932 268.903 92.4772 269.182 92.9104 269.182H94.5552C95.524 269.182 95.9267 270.422 95.143 270.991L93.8123 271.958C93.4618 272.213 93.3152 272.664 93.449 273.076L93.9573 274.641C94.2567 275.562 93.2022 276.328 92.4185 275.759L91.0878 274.792C90.7373 274.537 90.2627 274.537 89.9122 274.792L88.5815 275.759C87.7978 276.328 86.7433 275.562 87.0427 274.641L87.551 273.076C87.6848 272.664 87.5382 272.213 87.1877 271.958L85.857 270.991C85.0733 270.422 85.476 269.182 86.4448 269.182H88.0896C88.5228 269.182 88.9068 268.903 89.0407 268.491L89.5489 266.927Z" fill="#F56D45"/>
    <path d="M50.5489 259.927C50.8483 259.006 52.1517 259.006 52.4511 259.927L52.9593 261.491C53.0932 261.903 53.4772 262.182 53.9104 262.182H55.5552C56.524 262.182 56.9267 263.422 56.143 263.991L54.8123 264.958C54.4618 265.213 54.3152 265.664 54.449 266.076L54.9573 267.641C55.2567 268.562 54.2022 269.328 53.4185 268.759L52.0878 267.792C51.7373 267.537 51.2627 267.537 50.9122 267.792L49.5815 268.759C48.7978 269.328 47.7433 268.562 48.0427 267.641L48.551 266.076C48.6848 265.664 48.5382 265.213 48.1877 264.958L46.857 263.991C46.0733 263.422 46.476 262.182 47.4448 262.182H49.0896C49.5228 262.182 49.9068 261.903 50.0407 261.491L50.5489 259.927Z" fill="#F56D45"/>
    <path d="M167.549 244.927C167.848 244.006 169.152 244.006 169.451 244.927L169.959 246.491C170.093 246.903 170.477 247.182 170.91 247.182H172.555C173.524 247.182 173.927 248.422 173.143 248.991L171.812 249.958C171.462 250.213 171.315 250.664 171.449 251.076L171.957 252.641C172.257 253.562 171.202 254.328 170.418 253.759L169.088 252.792C168.737 252.537 168.263 252.537 167.912 252.792L166.582 253.759C165.798 254.328 164.743 253.562 165.043 252.641L165.551 251.076C165.685 250.664 165.538 250.213 165.188 249.958L163.857 248.991C163.073 248.422 163.476 247.182 164.445 247.182H166.09C166.523 247.182 166.907 246.903 167.041 246.491L167.549 244.927Z" fill="#F56D45"/>
    <path d="M243.549 201.927C243.848 201.006 245.152 201.006 245.451 201.927L245.959 203.491C246.093 203.903 246.477 204.182 246.91 204.182H248.555C249.524 204.182 249.927 205.422 249.143 205.991L247.812 206.958C247.462 207.213 247.315 207.664 247.449 208.076L247.957 209.641C248.257 210.562 247.202 211.328 246.418 210.759L245.088 209.792C244.737 209.537 244.263 209.537 243.912 209.792L242.582 210.759C241.798 211.328 240.743 210.562 241.043 209.641L241.551 208.076C241.685 207.664 241.538 207.213 241.188 206.958L239.857 205.991C239.073 205.422 239.476 204.182 240.445 204.182H242.09C242.523 204.182 242.907 203.903 243.041 203.491L243.549 201.927Z" fill="#F56D45"/>
    <path d="M228.549 284.927C228.848 284.006 230.152 284.006 230.451 284.927L230.959 286.491C231.093 286.903 231.477 287.182 231.91 287.182H233.555C234.524 287.182 234.927 288.422 234.143 288.991L232.812 289.958C232.462 290.213 232.315 290.664 232.449 291.076L232.957 292.641C233.257 293.562 232.202 294.328 231.418 293.759L230.088 292.792C229.737 292.537 229.263 292.537 228.912 292.792L227.582 293.759C226.798 294.328 225.743 293.562 226.043 292.641L226.551 291.076C226.685 290.664 226.538 290.213 226.188 289.958L224.857 288.991C224.073 288.422 224.476 287.182 225.445 287.182H227.09C227.523 287.182 227.907 286.903 228.041 286.491L228.549 284.927Z" fill="#F56D45"/>
    <path d="M318.549 219.927C318.848 219.006 320.152 219.006 320.451 219.927L320.959 221.491C321.093 221.903 321.477 222.182 321.91 222.182H323.555C324.524 222.182 324.927 223.422 324.143 223.991L322.812 224.958C322.462 225.213 322.315 225.664 322.449 226.076L322.957 227.641C323.257 228.562 322.202 229.328 321.418 228.759L320.088 227.792C319.737 227.537 319.263 227.537 318.912 227.792L317.582 228.759C316.798 229.328 315.743 228.562 316.043 227.641L316.551 226.076C316.685 225.664 316.538 225.213 316.188 224.958L314.857 223.991C314.073 223.422 314.476 222.182 315.445 222.182H317.09C317.523 222.182 317.907 221.903 318.041 221.491L318.549 219.927Z" fill="#F56D45"/>
    <path d="M368.549 236.927C368.848 236.006 370.152 236.006 370.451 236.927L370.959 238.491C371.093 238.903 371.477 239.182 371.91 239.182H373.555C374.524 239.182 374.927 240.422 374.143 240.991L372.812 241.958C372.462 242.213 372.315 242.664 372.449 243.076L372.957 244.641C373.257 245.562 372.202 246.328 371.418 245.759L370.088 244.792C369.737 244.537 369.263 244.537 368.912 244.792L367.582 245.759C366.798 246.328 365.743 245.562 366.043 244.641L366.551 243.076C366.685 242.664 366.538 242.213 366.188 241.958L364.857 240.991C364.073 240.422 364.476 239.182 365.445 239.182H367.09C367.523 239.182 367.907 238.903 368.041 238.491L368.549 236.927Z" fill="#F56D45"/>
    <path d="M333.549 163.927C333.848 163.006 335.152 163.006 335.451 163.927L335.959 165.491C336.093 165.903 336.477 166.182 336.91 166.182H338.555C339.524 166.182 339.927 167.422 339.143 167.991L337.812 168.958C337.462 169.213 337.315 169.664 337.449 170.076L337.957 171.641C338.257 172.562 337.202 173.328 336.418 172.759L335.088 171.792C334.737 171.537 334.263 171.537 333.912 171.792L332.582 172.759C331.798 173.328 330.743 172.562 331.043 171.641L331.551 170.076C331.685 169.664 331.538 169.213 331.188 168.958L329.857 167.991C329.073 167.422 329.476 166.182 330.445 166.182H332.09C332.523 166.182 332.907 165.903 333.041 165.491L333.549 163.927Z" fill="#F56D45"/>
    <path d="M289.549 255.927C289.848 255.006 291.152 255.006 291.451 255.927L291.959 257.491C292.093 257.903 292.477 258.182 292.91 258.182H294.555C295.524 258.182 295.927 259.422 295.143 259.991L293.812 260.958C293.462 261.213 293.315 261.664 293.449 262.076L293.957 263.641C294.257 264.562 293.202 265.328 292.418 264.759L291.088 263.792C290.737 263.537 290.263 263.537 289.912 263.792L288.582 264.759C287.798 265.328 286.743 264.562 287.043 263.641L287.551 262.076C287.685 261.664 287.538 261.213 287.188 260.958L285.857 259.991C285.073 259.422 285.476 258.182 286.445 258.182H288.09C288.523 258.182 288.907 257.903 289.041 257.491L289.549 255.927Z" fill="#F56D45"/>
    <path d="M413.549 267.927C413.848 267.006 415.152 267.006 415.451 267.927L415.959 269.491C416.093 269.903 416.477 270.182 416.91 270.182H418.555C419.524 270.182 419.927 271.422 419.143 271.991L417.812 272.958C417.462 273.213 417.315 273.664 417.449 274.076L417.957 275.641C418.257 276.562 417.202 277.328 416.418 276.759L415.088 275.792C414.737 275.537 414.263 275.537 413.912 275.792L412.582 276.759C411.798 277.328 410.743 276.562 411.043 275.641L411.551 274.076C411.685 273.664 411.538 273.213 411.188 272.958L409.857 271.991C409.073 271.422 409.476 270.182 410.445 270.182H412.09C412.523 270.182 412.907 269.903 413.041 269.491L413.549 267.927Z" fill="#F56D45"/>
    <path d="M479.549 259.927C479.848 259.006 481.152 259.006 481.451 259.927L481.959 261.491C482.093 261.903 482.477 262.182 482.91 262.182H484.555C485.524 262.182 485.927 263.422 485.143 263.991L483.812 264.958C483.462 265.213 483.315 265.664 483.449 266.076L483.957 267.641C484.257 268.562 483.202 269.328 482.418 268.759L481.088 267.792C480.737 267.537 480.263 267.537 479.912 267.792L478.582 268.759C477.798 269.328 476.743 268.562 477.043 267.641L477.551 266.076C477.685 265.664 477.538 265.213 477.188 264.958L475.857 263.991C475.073 263.422 475.476 262.182 476.445 262.182H478.09C478.523 262.182 478.907 261.903 479.041 261.491L479.549 259.927Z" fill="#F56D45"/>
    <path d="M486.549 309.927C486.848 309.006 488.152 309.006 488.451 309.927L488.959 311.491C489.093 311.903 489.477 312.182 489.91 312.182H491.555C492.524 312.182 492.927 313.422 492.143 313.991L490.812 314.958C490.462 315.213 490.315 315.664 490.449 316.076L490.957 317.641C491.257 318.562 490.202 319.328 489.418 318.759L488.088 317.792C487.737 317.537 487.263 317.537 486.912 317.792L485.582 318.759C484.798 319.328 483.743 318.562 484.043 317.641L484.551 316.076C484.685 315.664 484.538 315.213 484.188 314.958L482.857 313.991C482.073 313.422 482.476 312.182 483.445 312.182H485.09C485.523 312.182 485.907 311.903 486.041 311.491L486.549 309.927Z" fill="#F56D45"/>
    <path d="M536.549 292.927C536.848 292.006 538.152 292.006 538.451 292.927L538.959 294.491C539.093 294.903 539.477 295.182 539.91 295.182H541.555C542.524 295.182 542.927 296.422 542.143 296.991L540.812 297.958C540.462 298.213 540.315 298.664 540.449 299.076L540.957 300.641C541.257 301.562 540.202 302.328 539.418 301.759L538.088 300.792C537.737 300.537 537.263 300.537 536.912 300.792L535.582 301.759C534.798 302.328 533.743 301.562 534.043 300.641L534.551 299.076C534.685 298.664 534.538 298.213 534.188 297.958L532.857 296.991C532.073 296.422 532.476 295.182 533.445 295.182H535.09C535.523 295.182 535.907 294.903 536.041 294.491L536.549 292.927Z" fill="#F56D45"/>
    <path d="M579.549 351.927C579.848 351.006 581.152 351.006 581.451 351.927L581.959 353.491C582.093 353.903 582.477 354.182 582.91 354.182H584.555C585.524 354.182 585.927 355.422 585.143 355.991L583.812 356.958C583.462 357.213 583.315 357.664 583.449 358.076L583.957 359.641C584.257 360.562 583.202 361.328 582.418 360.759L581.088 359.792C580.737 359.537 580.263 359.537 579.912 359.792L578.582 360.759C577.798 361.328 576.743 360.562 577.043 359.641L577.551 358.076C577.685 357.664 577.538 357.213 577.188 356.958L575.857 355.991C575.073 355.422 575.476 354.182 576.445 354.182H578.09C578.523 354.182 578.907 353.903 579.041 353.491L579.549 351.927Z" fill="#F56D45"/>
    <path d="M769.549 247.927C769.848 247.006 771.152 247.006 771.451 247.927L771.959 249.491C772.093 249.903 772.477 250.182 772.91 250.182H774.555C775.524 250.182 775.927 251.422 775.143 251.991L773.812 252.958C773.462 253.213 773.315 253.664 773.449 254.076L773.957 255.641C774.257 256.562 773.202 257.328 772.418 256.759L771.088 255.792C770.737 255.537 770.263 255.537 769.912 255.792L768.582 256.759C767.798 257.328 766.743 256.562 767.043 255.641L767.551 254.076C767.685 253.664 767.538 253.213 767.188 252.958L765.857 251.991C765.073 251.422 765.476 250.182 766.445 250.182H768.09C768.523 250.182 768.907 249.903 769.041 249.491L769.549 247.927Z" fill="#F56D45"/>
    <path d="M828.549 175.927C828.848 175.006 830.152 175.006 830.451 175.927L830.959 177.491C831.093 177.903 831.477 178.182 831.91 178.182H833.555C834.524 178.182 834.927 179.422 834.143 179.991L832.812 180.958C832.462 181.213 832.315 181.664 832.449 182.076L832.957 183.641C833.257 184.562 832.202 185.328 831.418 184.759L830.088 183.792C829.737 183.537 829.263 183.537 828.912 183.792L827.582 184.759C826.798 185.328 825.743 184.562 826.043 183.641L826.551 182.076C826.685 181.664 826.538 181.213 826.188 180.958L824.857 179.991C824.073 179.422 824.476 178.182 825.445 178.182H827.09C827.523 178.182 827.907 177.903 828.041 177.491L828.549 175.927Z" fill="#F56D45"/>
    <path d="M873.549 217.927C873.848 217.006 875.152 217.006 875.451 217.927L875.959 219.491C876.093 219.903 876.477 220.182 876.91 220.182H878.555C879.524 220.182 879.927 221.422 879.143 221.991L877.812 222.958C877.462 223.213 877.315 223.664 877.449 224.076L877.957 225.641C878.257 226.562 877.202 227.328 876.418 226.759L875.088 225.792C874.737 225.537 874.263 225.537 873.912 225.792L872.582 226.759C871.798 227.328 870.743 226.562 871.043 225.641L871.551 224.076C871.685 223.664 871.538 223.213 871.188 222.958L869.857 221.991C869.073 221.422 869.476 220.182 870.445 220.182H872.09C872.523 220.182 872.907 219.903 873.041 219.491L873.549 217.927Z" fill="#F56D45"/>
    <path d="M988.549 225.927C988.848 225.006 990.152 225.006 990.451 225.927L990.959 227.491C991.093 227.903 991.477 228.182 991.91 228.182H993.555C994.524 228.182 994.927 229.422 994.143 229.991L992.812 230.958C992.462 231.213 992.315 231.664 992.449 232.076L992.957 233.641C993.257 234.562 992.202 235.328 991.418 234.759L990.088 233.792C989.737 233.537 989.263 233.537 988.912 233.792L987.582 234.759C986.798 235.328 985.743 234.562 986.043 233.641L986.551 232.076C986.685 231.664 986.538 231.213 986.188 230.958L984.857 229.991C984.073 229.422 984.476 228.182 985.445 228.182H987.09C987.523 228.182 987.907 227.903 988.041 227.491L988.549 225.927Z" fill="#F56D45"/>
    <path d="M973.549 0.927052C973.848 0.00574136 975.152 0.0057404 975.451 0.927051L975.959 2.49139C976.093 2.90341 976.477 3.18237 976.91 3.18237H978.555C979.524 3.18237 979.927 4.42199 979.143 4.99139L977.812 5.9582C977.462 6.21285 977.315 6.66422 977.449 7.07624L977.957 8.64058C978.257 9.56189 977.202 10.328 976.418 9.75861L975.088 8.7918C974.737 8.53715 974.263 8.53715 973.912 8.7918L972.582 9.75861C971.798 10.328 970.743 9.56189 971.043 8.64058L971.551 7.07624C971.685 6.66422 971.538 6.21285 971.188 5.9582L969.857 4.99139C969.073 4.42199 969.476 3.18237 970.445 3.18237H972.09C972.523 3.18237 972.907 2.90341 973.041 2.49139L973.549 0.927052Z" fill="#F56D45"/>
    <path d="M914.549 108.927C914.848 108.006 916.152 108.006 916.451 108.927L916.959 110.491C917.093 110.903 917.477 111.182 917.91 111.182H919.555C920.524 111.182 920.927 112.422 920.143 112.991L918.812 113.958C918.462 114.213 918.315 114.664 918.449 115.076L918.957 116.641C919.257 117.562 918.202 118.328 917.418 117.759L916.088 116.792C915.737 116.537 915.263 116.537 914.912 116.792L913.582 117.759C912.798 118.328 911.743 117.562 912.043 116.641L912.551 115.076C912.685 114.664 912.538 114.213 912.188 113.958L910.857 112.991C910.073 112.422 910.476 111.182 911.445 111.182H913.09C913.523 111.182 913.907 110.903 914.041 110.491L914.549 108.927Z" fill="#F56D45"/>
</svg>
